SplineFontDB: 3.0
FontName: Ambarisha-Regular
FullName: Ambarisha Regular
FamilyName: Ambarisha
Weight: Regular
Copyright: Copyright (c) 2015, kelvin,,,
UComments: "2015-7-12: Created with FontForge (http://fontforge.org)"
Version: 001.000
ItalicAngle: 0
UnderlinePosition: -100
UnderlineWidth: 50
Ascent: 820
Descent: 180
InvalidEm: 0
LayerCount: 2
Layer: 0 0 "Back" 1
Layer: 1 0 "Fore" 0
XUID: [1021 248 804086465 15881546]
FSType: 0
OS2Version: 0
OS2_WeightWidthSlopeOnly: 0
OS2_UseTypoMetrics: 1
CreationTime: 1436745016
ModificationTime: 1461920923
PfmFamily: 17
TTFWeight: 400
TTFWidth: 5
LineGap: 0
VLineGap: 0
OS2TypoAscent: 58
OS2TypoAOffset: 1
OS2TypoDescent: -518
OS2TypoDOffset: 1
OS2TypoLinegap: 0
OS2WinAscent: 0
OS2WinAOffset: 1
OS2WinDescent: 0
OS2WinDOffset: 1
HheadAscent: 58
HheadAOffset: 1
HheadDescent: -518
HheadDOffset: 1
OS2Vendor: 'PfEd'
Lookup: 4 0 1 "'dlig' Discretionary Ligatures lookup 0" { "'dlig' Discretionary Ligatures lookup 0-1"  } ['liga' ('DFLT' <'dflt' > 'grek' <'dflt' > 'latn' <'dflt' > ) ]
Lookup: 4 0 0 "Ambarisha-Regular-'rphf' Reph Form lookup 0" { "Ambarisha-Regular-'rphf' Reph Form lookup 0 subtable"  } ['rphf' ('DFLT' <'dflt' > 'knd2' <'dflt' > 'knda' <'dflt' > ) ]
Lookup: 4 0 0 "Ambarisha-Regular-'blwf' Below Base Forms in Kannada2 lookup 1" { "Ambarisha-Regular-'blwf' Below Base Forms in Kannada2 lookup 1 subtable"  } ['blwf' ('DFLT' <'dflt' > 'knd2' <'dflt' > ) ]
Lookup: 4 0 0 "Ambarisha-Regular-'blwf' Below Base Forms in Kannada lookup 2" { "Ambarisha-Regular-'blwf' Below Base Forms in Kannada lookup 2 subtable"  } ['blwf' ('knda' <'dflt' > ) ]
Lookup: 4 0 0 "Ambarisha-Regular-'pres' Pre Base Substitutions lookup 3" { "Ambarisha-Regular-'pres' Pre Base Substitutions lookup 3 subtable"  } ['pres' ('DFLT' <'dflt' > 'knd2' <'dflt' > 'knda' <'dflt' > ) ]

StartChar: r
Encoding: 114 114 0
Width: 268
VWidth: 0
Flags: HMW
AnchorPoint: "bottom" 86 0 basechar 0
AnchorPoint: "top" 152 496 basechar 0
LayerCount: 2
Back
SplineSet
106.80078125 291.017578125 m 5
 121.393554688 399.7734375 156.98046875 496.015625 226.568359375 501.641601562 c 4
 235.086914062 502.331054688 259.94921875 502.490234375 268.334960938 496.080078125 c 5
 256.181640625 425.451171875 l 5
 236.120117188 426.673828125 222.1484375 425.185546875 210.048828125 416.9140625 c 4
 185.560546875 400.17578125 152.927734375 325.165039062 144.94140625 285.235351562 c 4
 126.256835938 191.814453125 115.88671875 122.0703125 112.583007812 44.0498046875 c 4
 112.157226562 34.0029296875 112.408203125 21.4072265625 112.783203125 3.1259765625 c 5
 51.2158203125 -3 l 5
 51.951171875 122.630859375 55.13671875 307.524414062 38 487.600585938 c 5
 103.11328125 498.323242188 l 5
 106.80078125 291.017578125 l 5
EndSplineSet
Fore
SplineSet
236 502 m 3
 247 502 262 501 268 496 c 1
 256 425 l 1
 236 426 222 425 210 417 c 0
 184 400 154 325 145 285 c 0
 127 200 112 88 112 37 c 3
 112 27 113 3 113 3 c 1
 51 -3 l 1
 52 123 55 308 38 488 c 1
 103 498 l 1
 107 291 l 1
 122 400 156 502 236 502 c 3
EndSplineSet
Validated: 33
EndChar

StartChar: e
Encoding: 101 101 1
Width: 295
VWidth: 0
Flags: HMW
AnchorPoint: "bottom" 175 0 basechar 0
AnchorPoint: "top" 172 496 basechar 0
LayerCount: 2
Back
SplineSet
164.366210938 441.326171875 m 4
 132.557617188 438.32421875 107.362304688 398.85546875 101.958984375 341.090820312 c 5
 214.698242188 340.5 l 5
 214.114257812 420.799804688 188.8359375 443.635742188 164.366210938 441.326171875 c 4
101.239257812 295.243164062 m 5
 96.8984375 267.54296875 95.5126953125 234.731445312 96.9833984375 191.318359375 c 4
 100.219726562 95.7490234375 129.16796875 45.8447265625 182.345703125 44.671875 c 4
 197.814453125 44.330078125 240.913085938 54.46484375 263.443359375 62.359375 c 5
 275.001953125 17.873046875 l 5
 247.75390625 2.365234375 179.747070312 -14.107421875 139.081054688 -2 c 4
 48.1484375 25.07421875 30.5703125 131.069335938 29.82421875 245.223632812 c 4
 28.765625 345.278320312 51.6982421875 494.708007812 172.895507812 500.194335938 c 4
 227.395507812 502.661132812 265.385742188 471.171875 270.9140625 398.286132812 c 4
 273.404296875 365.46484375 271.672851562 321.0546875 262.182617188 298.0859375 c 5
 101.239257812 295.243164062 l 5
EndSplineSet
Fore
SplineSet
167 445 m 3
 134 445 107 402 102 344 c 1
 215 343 l 1
 214 423 191 445 167 445 c 3
99 298 m 1
 97 270 96 239 96 222 c 3
 96 92 130 45 182 45 c 3
 198 45 240 54 263 62 c 1
 275 18 l 1
 248 4 210 -6 174 -6 c 3
 87 -6 30 60 30 251 c 3
 30 354 57 502 176 502 c 3
 243 502 272 458 272 374 c 3
 272 362 271 323 262 300 c 1
 99 298 l 1
EndSplineSet
Validated: 1
EndChar

StartChar: u
Encoding: 117 117 2
Width: 340
VWidth: 0
Flags: HMW
AnchorPoint: "bottom" 144 0 basechar 0
AnchorPoint: "top" 173 496 basechar 0
LayerCount: 2
Fore
SplineSet
292 502 m 1
 295 309 297 195 305 5 c 1
 242 -7 l 1
 245 187 l 1
 226 81 211 -3 141 -3 c 3
 32 -3 37 91 34 494 c 1
 103 500 l 1
 102 137 92 60 143 60 c 3
 197 60 221 165 226 495 c 1
 292 502 l 1
EndSplineSet
Validated: 33
EndChar

StartChar: i
Encoding: 105 105 3
Width: 177
VWidth: 0
Flags: HMW
LayerCount: 2
Fore
SplineSet
124 501 m 1
 127 308 129 194 137 4 c 1
 68 -7 l 1
 70 160 65 327 58 494 c 1
 124 501 l 1
137 649 m 3
 137 622 115 593 82 593 c 3
 53 593 40 609 40 634 c 3
 40 661 56 691 96 691 c 3
 123 691 137 672 137 649 c 3
EndSplineSet
Validated: 33
EndChar

StartChar: f
Encoding: 102 102 4
Width: 241
VWidth: 0
Flags: HMW
LayerCount: 2
Back
SplineSet
69.8349609375 546.376953125 m 4
 66.82421875 647.506835938 106.678540433 691.825195312 176.493164062 691.825195312 c 7
 223.767695775 691.825195312 262.614257812 679.48828125 271 673.078125 c 5
 258.84765625 617.634765625 l 5
 226.395507812 626.291015625 210.849611182 631.383789062 178.92578125 631.383789062 c 7
 149.264646493 631.383789062 132.634765625 606.634765625 132.451171875 542.169921875 c 4
 132.1640625 441.5078125 138.34375 179.092773438 148.412109375 2.1259765625 c 5
 83.84375 -4 l 5
 76.19921875 186.59765625 76.26953125 330.266601562 69.8349609375 546.376953125 c 4
EndSplineSet
Fore
SplineSet
70 553 m 3
 70 651 106 692 176 692 c 3
 223 692 263 679 271 673 c 1
 259 618 l 1
 227 627 211 631 179 631 c 3
 149 631 131 604 131 537 c 3
 131 436 138 179 148 2 c 1
 84 -4 l 1
 77 187 70 461 70 553 c 3
10 489 m 1
 227 497 l 1
 229 443 l 1
 11 432 l 1
 10 489 l 1
EndSplineSet
Validated: 5
EndChar

StartChar: c
Encoding: 99 99 5
Width: 253
VWidth: 0
Flags: HMW
AnchorPoint: "top" 160 495 basechar 0
AnchorPoint: "bottom" 159 0 basechar 0
LayerCount: 2
Back
SplineSet
241 482 m 5
 223 433 l 5
 208 438 185 449 164 449 c 7
 113 449 91 372.099960032 91 243 c 7
 91 170.993164062 97 90 130 61 c 4
 149.716796875 43.6728515625 204 53 227 64 c 5
 246 18 l 5
 215 1 182 -7 159 -7 c 7
 78 -7 30 48.9765625 30 232 c 7
 30 461 79.978515625 504 176 504 c 7
 202.017578125 504 228 496 241 482 c 5
EndSplineSet
Fore
SplineSet
241 482 m 1
 223 433 l 1
 208 438 185 449 164 449 c 3
 113 449 91 372 91 243 c 3
 91 171 97 90 130 61 c 0
 138 54 151 51 166 51 c 3
 188 51 213 57 227 64 c 1
 246 18 l 1
 215 1 182 -7 159 -7 c 3
 78 -7 30 49 30 232 c 3
 30 461 80 504 176 504 c 3
 202 504 228 496 241 482 c 1
EndSplineSet
Validated: 1
EndChar

StartChar: o
Encoding: 111 111 6
Width: 311
VWidth: 0
Flags: HMW
AnchorPoint: "bottom" 156 0 basechar 0
AnchorPoint: "top" 160 496 basechar 0
LayerCount: 2
Fore
SplineSet
215 247 m 3
 215 399 200 445 158 445 c 3
 105 445 92 351 92 253 c 3
 92 119 110 51 159 51 c 3
 209 51 215 114 215 247 c 3
162 503 m 3
 274 503 281 347 281 240 c 3
 281 121 266 -8 147 -8 c 3
 65 -8 30 68 30 244 c 3
 30 379 63 503 162 503 c 3
EndSplineSet
Validated: 1
EndChar

StartChar: g
Encoding: 103 103 7
Width: 333
VWidth: 0
Flags: HMW
AnchorPoint: "bottom" 165 -180 basechar 0
AnchorPoint: "top" 178 496 basechar 0
LayerCount: 2
Back
SplineSet
177.641601562 447.673828125 m 3
 124.185999094 447.673828125 97.5380859375 392.546875 94.5 260.3359375 c 0
 90.728515625 96.2412109375 103.245117188 54.673828125 141.948242188 55.3134765625 c 0
 192.458007812 56.1484375 216.734375 150.91796875 223.59765625 427.830078125 c 1
 211.698242188 438.890625 200.981549527 447.673828125 177.641601562 447.673828125 c 3
237.587890625 -50.4775390625 m 0
 239.393554688 0.806640625 238.53515625 56.232421875 238.149414062 162.780273438 c 1
 226.641601562 89.4208984375 210.68359375 -9.111328125 140.780273438 -7.763671875 c 0
 55.8681640625 -6.1279296875 29.271484375 52.0888671875 29.94140625 265.056640625 c 0
 30.4375 422.904296875 76.0861867122 502.372070312 183.087890625 502.372070312 c 3
 230.597004879 502.372070312 248.498046875 495.926757812 284.874023438 470 c 1
 288.1015625 276.5546875 299.948242188 50.97265625 297.723632812 -59.2109375 c 0
 294.998046875 -194.141601562 159.020507812 -189.387695312 50.619140625 -169.690429688 c 1
 62.1826171875 -108.567382812 l 1
 101.91015625 -117.364257812 144.248046875 -122.552734375 191.004882812 -119.305664062 c 0
 231.8359375 -116.469726562 236.384765625 -84.650390625 237.587890625 -50.4775390625 c 0
EndSplineSet
Fore
SplineSet
178 448 m 3
 117 448 94 382 94 209 c 3
 94 100 103 55 142 55 c 3
 193 55 217 151 224 428 c 1
 212 439 201 448 178 448 c 3
239 20 m 3
 239 38 239 92 238 163 c 1
 226 90 211 -8 143 -8 c 3
 59 -8 30 46 30 260 c 3
 30 426 76 502 183 502 c 3
 231 502 249 496 285 470 c 1
 288 277 298 80 298 -30 c 3
 298 -86 292 -112 274 -135 c 0
 248 -168 200 -180 149 -180 c 3
 115 -180 84 -176 51 -170 c 1
 62 -109 l 1
 102 -118 143 -120 164 -120 c 3
 200 -120 220 -119 231 -92 c 0
 239 -73 239 -38 239 20 c 3
EndSplineSet
Validated: 1
EndChar

StartChar: P
Encoding: 80 80 8
Width: 337
VWidth: 0
Flags: HMW
LayerCount: 2
Fore
SplineSet
126 3 m 1
 60 -3 l 1
 67 190 67 392 58 585 c 1
 17 578 l 1
 10 632 l 1
 42 641 103 654 173 654 c 3
 271 654 317 608 317 472 c 3
 317 349 244 278 124 271 c 1
 124 319 l 1
 226 334 249 383 249 476 c 3
 249 558 223 613 120 593 c 1
 125 399 126 197 126 3 c 1
EndSplineSet
Validated: 37
EndChar

StartChar: a
Encoding: 97 97 9
Width: 340
VWidth: 0
Flags: HMW
AnchorPoint: "bottom" 168 0 basechar 0
AnchorPoint: "top" 183 496 basechar 0
LayerCount: 2
Fore
SplineSet
288 470 m 1
 291 281 295 168 305 6 c 1
 244 -6 l 1
 245 169 l 1
 227 66 207 -2 146 -2 c 3
 63 -2 30 53 30 244 c 3
 30 398 79 502 183 502 c 3
 229 502 254 495 288 470 c 1
177 448 m 3
 125 448 94 376 94 227 c 3
 94 86 109 59 147 59 c 3
 196 59 215 165 222 435 c 1
 210 446 195 448 177 448 c 3
EndSplineSet
Validated: 1
EndChar

StartChar: n
Encoding: 110 110 10
Width: 340
VWidth: 0
Flags: HMW
AnchorPoint: "bottom" 174 0 basechar 0
AnchorPoint: "top" 173 496 basechar 0
LayerCount: 2
Fore
SplineSet
46 -3 m 1
 46 190 44 301 32 491 c 1
 97 502 l 1
 98 308 l 1
 117 421 141 500 211 500 c 3
 319 500 302 400 305 1 c 1
 239 -5 l 1
 241 358 249 433 198 433 c 3
 147 433 115 314 110 3 c 1
 46 -3 l 1
EndSplineSet
Validated: 33
EndChar

StartChar: h
Encoding: 104 104 11
Width: 340
VWidth: 0
Flags: HMW
LayerCount: 2
Fore
SplineSet
45 -3 m 1
 45 190 43 496 36 686 c 1
 101 697 l 1
 102 308 l 1
 121 421 149 500 219 500 c 3
 328 500 312 400 316 1 c 1
 250 -4 l 1
 249 359 257 433 206 433 c 3
 155 433 115 315 110 4 c 1
 45 -3 l 1
EndSplineSet
Validated: 33
EndChar

StartChar: b
Encoding: 98 98 12
Width: 340
VWidth: 0
Flags: HMW
LayerCount: 2
Fore
SplineSet
50 19 m 1
 50 212 44 499 36 686 c 1
 102 697 l 1
 102 328 l 1
 120 419 149 504 218 504 c 3
 301 504 319 426 319 263 c 3
 319 106 261 -6 157 -6 c 3
 111 -6 85 0 50 19 c 1
149 43 m 3
 207 43 255 84 255 256 c 3
 255 398 241 439 203 439 c 3
 154 439 111 324 111 54 c 1
 123 45 135 43 149 43 c 3
EndSplineSet
Validated: 1
EndChar

StartChar: d
Encoding: 100 100 13
Width: 340
VWidth: 0
Flags: HMW
AnchorPoint: "bottom" 173 0 basechar 0
AnchorPoint: "top" 259 648 basechar 0
LayerCount: 2
Fore
SplineSet
302 6 m 1
 238 -6 l 1
 239 151 l 1
 221 41 183 -2 141 -2 c 3
 66 -2 30 46 30 242 c 3
 30 396 79 496 183 496 c 3
 202 496 218 495 232 492 c 1
 232 532 231 601 227 687 c 1
 294 698 l 1
 288 465 291 186 302 6 c 1
177 447 m 3
 125 447 94 380 94 208 c 3
 94 96 109 59 145 59 c 3
 197 59 227 174 230 434 c 1
 218 445 198 447 177 447 c 3
EndSplineSet
Validated: 33
EndChar

StartChar: s
Encoding: 115 115 14
Width: 280
VWidth: 0
Flags: HMW
AnchorPoint: "bottom" 145 0 basechar 0
AnchorPoint: "top" 146 496 basechar 0
LayerCount: 2
Fore
SplineSet
225 496 m 1
 216 443 l 1
 188 447 171 449 151 449 c 3
 126 449 103 441 103 412 c 3
 103 373 116 356 157 293 c 0
 215 206 249 164 249 104 c 3
 249 17 183 -8 118 -8 c 3
 78 -8 61 -5 34 5 c 1
 42 55 l 1
 69 50 84 47 112 47 c 3
 156 47 187 54 187 100 c 3
 187 143 162 172 117 240 c 0
 78 299 40 339 40 411 c 3
 40 456 73 502 145 503 c 3
 177 503 190 502 225 496 c 1
EndSplineSet
Validated: 1
EndChar

StartChar: j
Encoding: 106 106 15
Width: 205
VWidth: 0
Flags: HMW
LayerCount: 2
Fore
SplineSet
137 649 m 3
 137 622 115 593 82 593 c 3
 53 593 40 609 40 634 c 3
 40 661 56 691 96 691 c 3
 123 691 137 672 137 649 c 3
76 -24 m 3
 76 128 68 327 58 494 c 1
 124 501 l 1
 127 265 136 86 136 -33 c 3
 136 -153 79 -180 13 -180 c 3
 -14 -180 -43 -176 -70 -171 c 1
 -62 -110 l 1
 -32 -117 -13 -120 7 -120 c 3
 60 -120 76 -108 76 -24 c 3
EndSplineSet
Validated: 1
EndChar

StartChar: l
Encoding: 108 108 16
Width: 166
VWidth: 0
Flags: HMW
AnchorPoint: "bottom" 94 0 basechar 0
AnchorPoint: "top" 77 648 basechar 0
LayerCount: 2
Fore
SplineSet
107 695 m 1
 111 386 117 248 126 4 c 1
 57 -7 l 1
 56 238 54 414 40 688 c 1
 107 695 l 1
EndSplineSet
Validated: 1
EndChar

StartChar: m
Encoding: 109 109 17
Width: 535
VWidth: 0
Flags: HMW
LayerCount: 2
Fore
SplineSet
298 338 m 1
 307 405 336 500 406 500 c 3
 515 500 497 400 500 1 c 1
 434 -5 l 1
 436 358 444 433 393 433 c 3
 342 433 310 312 305 1 c 1
 241 -5 l 1
 243 358 243 433 198 433 c 3
 147 433 115 314 110 3 c 1
 46 -3 l 1
 46 190 44 301 32 491 c 1
 97 502 l 1
 98 308 l 1
 117 421 141 500 211 500 c 3
 275 500 290 441 298 338 c 1
EndSplineSet
Validated: 33
EndChar

StartChar: p
Encoding: 112 112 18
Width: 343
VWidth: 0
Flags: HMW
LayerCount: 2
Fore
SplineSet
35 493 m 1
 100 505 l 1
 99 348 l 1
 117 458 158 503 202 503 c 3
 276 503 308 451 308 256 c 3
 308 102 259 0 155 0 c 3
 136 0 120 1 106 4 c 1
 106 -36 107 -89 111 -175 c 1
 44 -186 l 1
 50 47 48 313 35 493 c 1
161 49 m 3
 218 49 244 121 244 281 c 3
 244 407 229 442 191 442 c 3
 142 442 106 328 106 63 c 1
 120 52 144 49 161 49 c 3
EndSplineSet
Validated: 33
EndChar

StartChar: q
Encoding: 113 113 19
Width: 340
VWidth: 0
Flags: HMW
LayerCount: 2
Fore
SplineSet
288 472 m 1
 291 283 294 -10 304 -172 c 1
 241 -184 l 1
 245 169 l 1
 227 66 206 -2 144 -2 c 3
 65 -2 30 51 30 242 c 3
 30 396 79 504 183 504 c 3
 229 504 253 497 288 472 c 1
177 453 m 3
 125 453 94 377 94 216 c 3
 94 90 109 59 147 59 c 3
 196 59 215 164 222 440 c 1
 210 451 200 453 177 453 c 3
EndSplineSet
Validated: 1
EndChar

StartChar: t
Encoding: 116 116 20
Width: 236
VWidth: 0
Flags: HMW
AnchorPoint: "top" 112 648 basechar 0
AnchorPoint: "bottom" 125 0 basechar 0
LayerCount: 2
Fore
SplineSet
-20 487 m 1
 253 499 l 1
 256 445 l 1
 -19 430 l 1
 -20 487 l 1
144 623 m 1
 148 314 150 248 159 4 c 1
 90 -7 l 1
 89 238 91 342 77 616 c 1
 144 623 l 1
EndSplineSet
Validated: 5
EndChar

StartChar: v
Encoding: 118 118 21
Width: 276
VWidth: 0
Flags: HMW
LayerCount: 2
Fore
SplineSet
145 112 m 1
 167 240 187 358 209 500 c 1
 277 497 l 17
 246 369 188 80 176 3 c 1
 104 -3 l 1
 87 123 47 331 11 494 c 1
 76 504 l 1
 94 375 121 241 145 112 c 1
EndSplineSet
Validated: 1
EndChar

StartChar: y
Encoding: 121 121 22
Width: 340
VWidth: 0
Flags: HMW
AnchorPoint: "bottom" 165 -180 basechar 0
AnchorPoint: "top" 169 496 basechar 0
LayerCount: 2
Back
SplineSet
291.150390625 501.828125 m 5
 294.377929688 260.3828125 306.795816845 60.975647971 304.723632812 -49.2109375 c 4
 301.998046875 -194.141601562 189.020507812 -189.387695312 48.619140625 -169.690429688 c 5
 60.1826171875 -108.567382812 l 5
 99.91015625 -117.364257812 145.237837121 -122.402212107 192.004882812 -119.305664062 c 4
 234.8359375 -116.469726562 244.384765625 -84.650390625 245.587890625 -50.4775390625 c 4
 247.393554688 0.806640625 245.811523438 80.5478515625 245.42578125 187.095703125 c 5
 226.91015625 81.029296875 211.367189568 -4.65418959722 141.463867188 -3.306640625 c 4
 32.142578125 -1.19921875 38.1826171875 94.751953125 35.166015625 493.811523438 c 5
 101.083984375 499.572265625 l 5
 99.283203125 136.90625 89.6982421875 58.896484375 142.631835938 59.771484375 c 4
 197.059570312 60.6708984375 223.026367188 164.1484375 227.568359375 494.563476562 c 5
 291.150390625 501.828125 l 5
EndSplineSet
Fore
SplineSet
247 -6 m 3
 247 43 245 107 245 187 c 1
 226 81 211 -3 141 -3 c 3
 32 -3 38 95 35 494 c 1
 101 500 l 1
 99 137 90 60 143 60 c 3
 197 60 223 165 228 495 c 1
 291 502 l 1
 294 279 305 82 305 -32 c 3
 305 -137 266 -180 161 -180 c 3
 127 -180 89 -176 49 -170 c 1
 60 -109 l 1
 94 -116 131 -120 168 -120 c 3
 237 -120 247 -99 247 -6 c 3
EndSplineSet
Validated: 33
EndChar

StartChar: w
Encoding: 119 119 24
Width: 470
VWidth: 0
Flags: HMW
LayerCount: 2
Fore
SplineSet
145 107 m 1
 167 235 189 328 211 470 c 1
 272 473 l 1
 290 344 314 233 338 104 c 1
 364 229 383 356 397 498 c 1
 469 495 l 1
 441 367 382 81 370 4 c 1
 346 0 322 -4 298 -7 c 1
 285 85 262 215 237 338 c 1
 211 208 184 55 176 3 c 1
 104 -3 l 1
 87 123 47 331 11 494 c 1
 76 504 l 1
 94 375 121 236 145 107 c 1
EndSplineSet
Validated: 1
EndChar

StartChar: x
Encoding: 120 120 25
Width: 299
VWidth: 0
Flags: HMW
LayerCount: 2
Fore
SplineSet
149 309 m 1
 169 368 190 451 206 506 c 1
 271 492 l 1
 240 406 211 327 187 252 c 1
 222 174 257 104 299 23 c 1
 241 -13 l 1
 219 46 183 125 151 193 c 1
 131 135 111 56 92 -9 c 1
 26 2 l 1
 54 80 83 165 113 251 c 1
 81 327 45 411 10 480 c 1
 70 515 l 1
 94 453 124 368 149 309 c 1
EndSplineSet
Validated: 1
EndChar

StartChar: k
Encoding: 107 107 26
Width: 321
VWidth: 0
Flags: HMW
AnchorPoint: "top" 162 648 basechar 0
AnchorPoint: "bottom" 182 0 basechar 0
LayerCount: 2
Fore
SplineSet
110 254 m 1
 144 313 204 450 223 505 c 1
 285 483 l 1
 247 397 207 345 171 270 c 1
 213 192 274 102 331 27 c 1
 276 -16 l 1
 236 41 153 184 110 254 c 1
107 695 m 1
 111 386 117 248 126 4 c 1
 57 -7 l 1
 56 238 54 414 40 688 c 1
 107 695 l 1
EndSplineSet
Validated: 5
EndChar

StartChar: z
Encoding: 122 122 27
Width: 272
VWidth: 0
Flags: HMW
AnchorPoint: "bottom" 146 0 basechar 0
AnchorPoint: "top" 140 496 basechar 0
LayerCount: 2
Fore
SplineSet
245 459 m 1
 200 341 131 155 100 53 c 1
 147 53 218 56 252 60 c 1
 250 0 l 1
 28 -1 l 1
 25 39 l 1
 90 195 134 305 175 441 c 1
 153 441 76 440 32 438 c 1
 30 497 l 1
 240 497 l 1
 245 459 l 1
EndSplineSet
Validated: 1
EndChar

StartChar: A
Encoding: 65 65 28
Width: 323
VWidth: 0
Flags: HMW
AnchorPoint: "bottom" 162 0 basechar 0
AnchorPoint: "top" 158 648 basechar 0
LayerCount: 2
Fore
SplineSet
195 652 m 1
 212 526 287 168 323 5 c 1
 258 -5 l 1
 250.788478547 39.2993460663 239.095710874 101.051966885 225.87797773 168.270751476 c 1
 93.9228079843 163.428359926 l 1
 84.109210448 101.946457506 75.0327215087 44.3930206471 68 -1 c 1
 0 0 l 1
 31 128 82 402 118 646 c 1
 195 652 l 1
215.536734313 220.466453483 m 1
 192.659580354 335.20395633 167.660356835 456.575582012 154 530 c 1
 141.058626907 454.70473837 121.196628297 333.387317047 102.556040247 217.342563325 c 1
 215.536734313 220.466453483 l 1
EndSplineSet
Validated: 1
EndChar

StartChar: B
Encoding: 66 66 29
Width: 338
VWidth: 0
Flags: HMW
LayerCount: 2
Fore
SplineSet
50 -3 m 1
 57 190 53 447 44 640 c 1
 71 648 98 654 154 654 c 3
 239 654 289 618 289 490 c 3
 289 426 257 370 206 346 c 1
 280 332 310 265 310 199 c 3
 310 59 275 -3 50 -3 c 1
118 56 m 1
 211 56 243 85 243 193 c 3
 243 268 214 315 119 305 c 1
 120 223 120 138 118 56 c 1
118 352 m 1
 199 368 222 408 222 493 c 3
 222 575 197 609 109 593 c 1
 113 515 116 430 118 352 c 1
EndSplineSet
Validated: 33
EndChar

StartChar: C
Encoding: 67 67 30
Width: 293
VWidth: 0
Flags: HMW
AnchorPoint: "top" 178 648 basechar 0
AnchorPoint: "bottom" 193 0 basechar 0
LayerCount: 2
Fore
SplineSet
276 636 m 1
 258 587 l 1
 243 592 220 603 199 603 c 3
 114 603 95 528 95 337 c 3
 95 142 115 89 151 59 c 0
 171 42 240 48 271 61 c 1
 288 15 l 1
 257 -2 225 -9 199 -9 c 3
 69 -9 30 57 30 319 c 3
 30 574 68 658 207 658 c 3
 236 658 263 650 276 636 c 1
EndSplineSet
Validated: 33
EndChar

StartChar: D
Encoding: 68 68 31
Width: 368
VWidth: 0
Flags: HMW
AnchorPoint: "bottom" 190 0 basechar 0
AnchorPoint: "top" 169 648 basechar 0
LayerCount: 2
Fore
SplineSet
129 55 m 1
 251 61 273 97 273 349 c 3
 273 539 240 609 121 591 c 1
 131 410 135 236 129 55 c 1
61 -3 m 1
 68 190 68 392 59 585 c 1
 25 582 l 1
 20 633 l 1
 52 642 103 652 173 652 c 3
 285 652 338 579 338 350 c 3
 338 63 297 -3 61 -3 c 1
EndSplineSet
Validated: 33
EndChar

StartChar: E
Encoding: 69 69 32
Width: 285
VWidth: 0
Flags: HMW
AnchorPoint: "bottom" 170 0 basechar 0
AnchorPoint: "top" 147 648 basechar 0
LayerCount: 2
Fore
SplineSet
78 357 m 1
 230 366 l 1
 232 309 l 1
 80 304 l 1
 78 357 l 1
70 48 m 1
 272 60 l 1
 274 0 l 1
 54 -7 l 1
 70 48 l 1
40 644 m 1
 248 654 l 1
 250 596 l 1
 61 590 l 1
 40 644 l 1
108 635 m 1
 111 368 114 253 123 9 c 1
 54 -7 l 1
 53 238 54 370 40 644 c 1
 108 635 l 1
EndSplineSet
Validated: 5
EndChar

StartChar: F
Encoding: 70 70 33
Width: 270
VWidth: 0
Flags: HMW
LayerCount: 2
Fore
SplineSet
92 357 m 1
 244 366 l 1
 246 309 l 1
 94 304 l 1
 92 357 l 1
54 645 m 1
 262 653 l 1
 264 595 l 1
 75 591 l 1
 54 645 l 1
122 636 m 1
 125 369 130 244 139 0 c 1
 69 -4 l 1
 68 241 68 371 54 645 c 1
 122 636 l 1
EndSplineSet
Validated: 5
EndChar

StartChar: G
Encoding: 71 71 34
Width: 336
VWidth: 0
Flags: HMW
AnchorPoint: "bottom" 182 0 basechar 0
AnchorPoint: "top" 180 648 basechar 0
LayerCount: 2
Fore
SplineSet
180 352 m 1
 292 358 l 1
 275 304 l 1
 181 295 l 1
 180 352 l 1
292 358 m 1
 292 222 299 88 304 0 c 1
 239 -11 l 1
 239 84 235 223 227 342 c 1
 292 358 l 1
275 636 m 1
 257 587 l 1
 242 592 219 603 198 603 c 3
 113 603 94 528 94 337 c 3
 94 142 113 86 144 64 c 0
 166 48 218 53 241 86 c 1
 248 37 l 1
 232 13 199 -4 175 -4 c 3
 75 -4 29 57 29 319 c 3
 29 574 67 658 206 658 c 3
 235 658 262 650 275 636 c 1
EndSplineSet
Validated: 37
EndChar

StartChar: H
Encoding: 72 72 35
Width: 345
VWidth: 0
Flags: HMW
LayerCount: 2
Fore
SplineSet
290 650 m 1
 290 383 296 244 305 0 c 1
 236 -4 l 1
 235 241 233 373 222 647 c 1
 290 650 l 1
75 357 m 1
 245 366 l 1
 247 309 l 1
 77 304 l 1
 75 357 l 1
107 651 m 1
 110 384 111 244 120 0 c 1
 51 -4 l 1
 50 241 53 370 40 644 c 1
 107 651 l 1
EndSplineSet
Validated: 5
EndChar

StartChar: I
Encoding: 73 73 36
Width: 164
VWidth: 0
Flags: HMW
AnchorPoint: "bottom" 93 0 basechar 0
AnchorPoint: "top" 73 648 basechar 0
LayerCount: 2
Fore
SplineSet
107 652 m 1
 111 343 115 246 124 2 c 1
 55 -4 l 1
 54 241 54 371 40 645 c 1
 107 652 l 1
EndSplineSet
Validated: 1
EndChar

StartChar: J
Encoding: 74 74 37
Width: 258
VWidth: 0
Flags: MW
LayerCount: 2
Fore
SplineSet
220 128 m 3
 220 21 187 -4 115 -4 c 3
 73 -4 42 1 16 7 c 1
 25 71 l 1
 60 63 95 56 119 56 c 3
 145 56 158 72 158 127 c 3
 158 228 156 415 142 643 c 1
 209 653 l 1
 213 462 220 220 220 128 c 3
EndSplineSet
Validated: 1
EndChar

StartChar: K
Encoding: 75 75 38
Width: 342
VWidth: 0
Flags: HMW
AnchorPoint: "top" 164 648 basechar 0
AnchorPoint: "bottom" 183 0 basechar 0
LayerCount: 2
Fore
SplineSet
116 314 m 1
 150 373 215 580 230 651 c 1
 299 632 l 1
 263 545 209 405 177 330 c 1
 216 249 295 97 341 22 c 1
 280 -13 l 1
 252 44 159 236 116 314 c 1
117 649 m 1
 121 340 127 248 136 4 c 1
 68 -7 l 1
 67 238 65 371 51 645 c 1
 117 649 l 1
EndSplineSet
Validated: 5
EndChar

StartChar: L
Encoding: 76 76 39
Width: 288
VWidth: 0
Flags: HMW
AnchorPoint: "bottom" 182 0 basechar 0
AnchorPoint: "top" 111 648 basechar 0
LayerCount: 2
Fore
SplineSet
84 49 m 1
 287 64 l 1
 288 0 l 1
 68 -6 l 1
 84 49 l 1
122 653 m 1
 125 386 126 254 133 10 c 1
 68 -6 l 1
 67 239 68 368 54 642 c 1
 122 653 l 1
EndSplineSet
Validated: 5
EndChar

StartChar: M
Encoding: 77 77 40
Width: 450
VWidth: 0
Flags: HMW
LayerCount: 2
Fore
SplineSet
333 510 m 1
 311 382 274 169 252 27 c 1
 191 24 l 1
 171 153 111 382 84 511 c 1
 88 399 90 144 97 2 c 1
 30 -3 l 1
 36 125 36 495 33 644 c 1
 57 648 95 652 119 655 c 1
 133 563 196 282 225 159 c 1
 251 289 297 595 305 647 c 1
 384 653 l 1
 392 527 404 166 420 3 c 1
 349 -7 l 1
 349 122 336 381 333 510 c 1
EndSplineSet
Validated: 33
EndChar

StartChar: N
Encoding: 78 78 41
Width: 364
VWidth: 0
Flags: HMW
AnchorPoint: "bottom" 180 0 basechar 0
AnchorPoint: "top" 180 648 basechar 0
LayerCount: 2
Fore
SplineSet
324 4 m 1
 233 -7 l 1
 205 122 133 393 97 522 c 1
 101 410 110 144 117 2 c 1
 49 -3 l 1
 52 125 48 476 40 644 c 1
 64 648 107 652 131 655 c 1
 150 563 230 252 262 129 c 1
 261 258 253 418 241 644 c 1
 312 657 l 1
 313 348 315 248 324 4 c 1
EndSplineSet
Validated: 33
EndChar

StartChar: O
Encoding: 79 79 42
Width: 355
VWidth: 0
Flags: HMW
AnchorPoint: "bottom" 179 0 basechar 0
AnchorPoint: "top" 182 648 basechar 0
LayerCount: 2
Fore
SplineSet
253 319 m 3
 253 546 225 600 175 600 c 3
 115 600 100 507 100 321 c 3
 100 117 123 49 186 49 c 3
 235 49 253 124 253 319 c 3
179 658 m 3
 301 658 320 518 320 289 c 3
 320 124 302 -10 173 -10 c 3
 74 -10 35 80 35 310 c 3
 35 550 65 658 179 658 c 3
EndSplineSet
Validated: 1
EndChar

StartChar: S
Encoding: 83 83 43
Width: 275
VWidth: 0
Flags: HMW
AnchorPoint: "bottom" 141 0 basechar 0
AnchorPoint: "top" 146 648 basechar 0
LayerCount: 2
Fore
SplineSet
223 648 m 1
 214 595 l 1
 186 599 165 604 145 604 c 3
 107 604 83 583 83 545 c 3
 83 491 112 430 156 362 c 0
 220 264 255 188 255 128 c 3
 255 25 201 -8 101 -8 c 3
 74 -8 49 -5 22 5 c 1
 30 55 l 1
 57 50 83 47 111 47 c 3
 175 47 193 64 193 114 c 3
 193 169 163 229 116 304 c 0
 75 370 20 457 20 544 c 3
 20 620 68 658 150 658 c 3
 180 658 200 654 223 648 c 1
EndSplineSet
Validated: 1
EndChar

StartChar: Q
Encoding: 81 81 44
Width: 365
VWidth: 0
Flags: HMW
LayerCount: 2
Fore
SplineSet
157 0 m 25
 207 0 l 25
 240 -110 l 25
 157 -123 l 25
 157 0 l 25
258 314 m 3
 258 541 226 600 176 600 c 3
 116 600 105 512 105 326 c 3
 105 122 130 45 193 45 c 3
 242 45 258 119 258 314 c 3
184 658 m 3
 306 658 325 513 325 284 c 3
 325 119 307 -10 178 -10 c 3
 79 -10 40 85 40 315 c 3
 40 555 70 658 184 658 c 3
EndSplineSet
Validated: 5
EndChar

StartChar: R
Encoding: 82 82 45
Width: 337
VWidth: 0
Flags: HMW
AnchorPoint: "bottom" 182 0 basechar 0
AnchorPoint: "top" 158 648 basechar 0
LayerCount: 2
Fore
SplineSet
128 5 m 1
 60 -6 l 1
 67 187 67 396 58 589 c 1
 17 583 l 1
 10 639 l 1
 61 648 112 654 157 654 c 3
 250 654 293 614 293 501 c 3
 293 427 266 384 222 353 c 1
 248 343 258 322 264 298 c 0
 275 255 281 169 320 10 c 1
 245 -8 l 1
 227 122 213 248 199 285 c 0
 190 310 174 330 122 317 c 1
 121 360 l 1
 211 376 225 423 225 493 c 3
 225 566 204 604 119 594 c 1
 124 400 126 199 128 5 c 1
EndSplineSet
Validated: 37
EndChar

StartChar: W
Encoding: 87 87 46
Width: 470
VWidth: 0
Flags: HMW
LayerCount: 2
Fore
SplineSet
145 112 m 1
 165 240 187 466 209 608 c 1
 275 611 l 1
 293 482 326 244 350 115 c 1
 365 240 388 508 395 650 c 1
 472 647 l 1
 450 519 392 83 380 6 c 1
 356 2 329 -2 305 -5 c 1
 292 87 261 335 239 458 c 1
 218 328 187 55 179 3 c 1
 104 -3 l 1
 87 123 30 481 -2 644 c 1
 71 654 l 1
 89 525 121 241 145 112 c 1
EndSplineSet
Validated: 1
EndChar

StartChar: T
Encoding: 84 84 47
Width: 272
VWidth: 0
Flags: HMW
AnchorPoint: "bottom" 153 0 basechar 0
AnchorPoint: "top" 140 648 basechar 0
LayerCount: 2
Fore
SplineSet
-10 642 m 1
 280 654 l 1
 282 597 l 1
 152 594 l 1
 -9 585 l 1
 -10 642 l 1
170 623 m 1
 172 412 179 248 188 4 c 1
 117 -7 l 1
 116 238 117 397 106 616 c 1
 170 623 l 1
EndSplineSet
Validated: 5
EndChar

StartChar: U
Encoding: 85 85 48
Width: 349
VWidth: 0
Flags: HMW
AnchorPoint: "bottom" 187 0 basechar 0
AnchorPoint: "top" 181 648 basechar 0
LayerCount: 2
Fore
SplineSet
307 652 m 1
 308 407 309 267 309 171 c 3
 309 36 251 -8 189 -8 c 3
 110 -8 70 32 61 154 c 0
 54 250 49 419 38 644 c 1
 108 650 l 1
 110 413 119 249 125 164 c 0
 131 85 143 50 187 50 c 3
 232 50 248 77 248 173 c 3
 248 258 243 476 236 645 c 1
 307 652 l 1
EndSplineSet
Validated: 1
EndChar

StartChar: V
Encoding: 86 86 49
Width: 302
VWidth: 0
Flags: HMW
LayerCount: 2
Fore
SplineSet
164 115 m 1
 186 243 213 458 231 650 c 1
 304 647 l 17
 268 454 213 80 201 3 c 1
 125 -3 l 1
 108 123 34 479 -2 642 c 1
 70 653 l 1
 88 524 140 244 164 115 c 1
EndSplineSet
Validated: 1
EndChar

StartChar: X
Encoding: 88 88 50
Width: 310
VWidth: 0
Flags: MW
LayerCount: 2
Fore
SplineSet
152 391 m 1
 172 460 199 568 216 652 c 1
 281 646 l 1
 242 520 214 424 188 336 c 1
 225 228 263 136 310 15 c 1
 246 -13 l 1
 219 76 176 199 149 278 c 1
 129 199 97 88 75 -6 c 1
 8 0 l 1
 44 122 85 232 113 341 c 1
 82 432 43 518 0 630 c 1
 65 660 l 1
 92 572 129 457 152 391 c 1
EndSplineSet
Validated: 1
EndChar

StartChar: Y
Encoding: 89 89 51
Width: 278
VWidth: 0
Flags: HMW
AnchorPoint: "bottom" 150 0 basechar 0
AnchorPoint: "top" 145 648 basechar 0
LayerCount: 2
Fore
SplineSet
147 336 m 1
 168 431 188 508 210 650 c 1
 278 647 l 17
 247 519 198 346 175 269 c 1
 176 164 179 78 183 2 c 1
 114 -4 l 1
 113 71 114 176 110 269 c 1
 84 389 46 480 0 643 c 1
 65 654 l 1
 92 525 114 465 147 336 c 1
EndSplineSet
Validated: 1
EndChar

StartChar: Z
Encoding: 90 90 52
Width: 286
VWidth: 0
Flags: HMW
AnchorPoint: "bottom" 150 0 basechar 0
AnchorPoint: "top" 151 648 basechar 0
LayerCount: 2
Fore
SplineSet
256 610 m 1
 220 492 121 155 93 53 c 1
 140 53 232 55 266 57 c 1
 264 0 l 1
 28 -1 l 1
 21 34 l 1
 71 190 156 457 188 592 c 1
 166 592 84 591 40 589 c 1
 38 648 l 1
 250 648 l 1
 256 610 l 1
EndSplineSet
Validated: 1
EndChar

StartChar: one
Encoding: 49 49 53
Width: 253
VWidth: 0
Flags: HMW
LayerCount: 2
Fore
SplineSet
174 645 m 1
 178 336 179 250 188 6 c 1
 122 -7 l 1
 121 217 122 313 119 544 c 1
 52 468 l 1
 10 512 l 1
 55 552 100 603 132 651 c 1
 174 645 l 1
EndSplineSet
Validated: 1
EndChar

StartChar: nine
Encoding: 57 57 54
Width: 339
VWidth: 0
Flags: HMW
LayerCount: 2
Fore
SplineSet
277 630 m 1
 280 441 289 168 299 6 c 1
 231 -6 l 1
 235 327 l 1
 217 224 187 185 140 185 c 3
 57 185 26 256 26 420 c 3
 26 544 73 657 177 657 c 3
 223 657 243 650 277 630 c 1
171 603 m 3
 119 603 87 540 87 403 c 3
 87 287 108 246 143 246 c 3
 192 246 218 320 218 590 c 1
 206 601 189 603 171 603 c 3
EndSplineSet
Validated: 1
EndChar

StartChar: eight
Encoding: 56 56 55
Width: 343
VWidth: 0
Flags: HMW
LayerCount: 2
Fore
SplineSet
242 179 m 3
 242 267 211 307 169 307 c 3
 116 307 97 243 97 185 c 3
 97 85 123 51 175 51 c 3
 222 51 242 102 242 179 c 3
164 656 m 3
 263 656 291 578 291 468 c 3
 291 421 271 355 238 336 c 1
 283 322 308 250 308 172 c 3
 308 64 263 -8 163 -8 c 3
 76 -8 35 65 35 176 c 3
 35 256 59 309 91 330 c 1
 59 353 37 415 37 472 c 3
 37 585 78 656 164 656 c 3
225 475 m 3
 225 564 202 598 161 598 c 3
 115 598 99 554 99 481 c 3
 99 412 124 354 165 354 c 3
 206 354 225 398 225 475 c 3
EndSplineSet
Validated: 1
EndChar

StartChar: zero
Encoding: 48 48 56
Width: 345
VWidth: 0
Flags: HMW
LayerCount: 2
Fore
SplineSet
243 319 m 3
 243 546 220 600 170 600 c 3
 110 600 100 507 100 321 c 3
 100 117 118 49 181 49 c 3
 230 49 243 124 243 319 c 3
174 658 m 3
 296 658 310 518 310 289 c 3
 310 124 297 -10 168 -10 c 3
 69 -10 35 80 35 310 c 3
 35 550 60 658 174 658 c 3
EndSplineSet
Validated: 1
EndChar

StartChar: two
Encoding: 50 50 57
Width: 284
VWidth: 0
Flags: HMW
LayerCount: 2
Fore
SplineSet
242 527 m 3
 242 338 145 156 91 54 c 1
 138 54 220 60 254 63 c 1
 252 0 l 1
 30 -1 l 1
 26 38 l 1
 115 195 180 356 180 509 c 3
 180 560 162 595 116 595 c 3
 84 595 59 586 33 578 c 1
 20 626 l 1
 53 640 86 653 138 653 c 3
 216 653 242 603 242 527 c 3
EndSplineSet
Validated: 1
EndChar

StartChar: three
Encoding: 51 51 58
Width: 285
VWidth: 0
Flags: HMW
LayerCount: 2
Fore
SplineSet
255 171 m 3
 255 45 183 -8 99 -8 c 3
 70 -8 42 -5 15 5 c 1
 23 55 l 1
 50 50 67 47 95 47 c 3
 159 47 193 84 193 167 c 3
 193 257 162 296 89 305 c 1
 86 352 l 1
 133 373 170 413 170 501 c 3
 170 564 146 596 105 596 c 3
 73 596 56 590 30 582 c 1
 17 630 l 1
 50 644 70 652 122 652 c 3
 212 652 234 581 234 501 c 3
 234 428 211 382 161 346 c 1
 209 323 255 280 255 171 c 3
EndSplineSet
Validated: 1
EndChar

StartChar: four
Encoding: 52 52 59
Width: 338
VWidth: 0
Flags: HMW
LayerCount: 2
Fore
SplineSet
196 545 m 1
 158 392 120 270 87 169 c 1
 215 169 279 173 313 178 c 1
 313 115 l 1
 26 114 l 1
 22 153 l 1
 84 295 146 499 180 650 c 1
 254 646 l 17
 255 430 255 219 267 3 c 9
 199 -6 l 17
 199 114 198 356 196 545 c 1
EndSplineSet
Validated: 5
EndChar

StartChar: five
Encoding: 53 53 60
Width: 285
VWidth: 0
Flags: HMW
LayerCount: 2
Fore
SplineSet
49 312 m 1
 51 372 51 519 43 645 c 1
 234 651 l 1
 233 592 l 1
 105 592 l 1
 106 496 107 418 109 360 c 1
 209 352 258 288 258 181 c 3
 258 53 192 -7 93 -7 c 3
 80 -7 45 -5 25 1 c 1
 33 51 l 1
 50 48 83 47 95 47 c 3
 152 47 195 80 195 185 c 3
 195 287 137 312 49 312 c 1
EndSplineSet
Validated: 33
EndChar

StartChar: six
Encoding: 54 54 61
Width: 320
VWidth: 0
Flags: HMW
LayerCount: 2
Fore
SplineSet
35 243 m 3
 35 436 73 555 99 659 c 1
 154 642 l 1
 96 447 93 355 89 284 c 1
 101 339 125 424 194 424 c 3
 277 424 298 327 298 218 c 3
 298 80 265 -6 162 -6 c 3
 87 -6 35 53 35 243 c 3
174 44 m 3
 212 44 237 80 237 211 c 3
 237 319 216 361 181 361 c 3
 122 361 102 224 102 173 c 3
 102 79 133 44 174 44 c 3
EndSplineSet
Validated: 1
EndChar

StartChar: seven
Encoding: 55 55 62
Width: 248
VWidth: 0
Flags: HMW
LayerCount: 2
Fore
SplineSet
10 648 m 1
 231 648 l 1
 233 617 l 1
 190 395 165 246 131 -5 c 1
 64 6 l 1
 116 262 138 366 173 594 c 1
 11 589 l 1
 10 648 l 1
EndSplineSet
Validated: 1
EndChar

StartChar: period
Encoding: 46 46 63
Width: 187
VWidth: 0
Flags: HMW
LayerCount: 2
Fore
SplineSet
145 52 m 3
 145 25 122 -7 87 -7 c 3
 56 -7 42 11 42 36 c 3
 42 63 59 96 101 96 c 3
 130 96 145 75 145 52 c 3
EndSplineSet
Validated: 1
EndChar

StartChar: comma
Encoding: 44 44 64
Width: 187
VWidth: 0
Flags: HMW
LayerCount: 2
Fore
SplineSet
135 88 m 1
 131 5 114 -59 95 -108 c 1
 52 -94 l 1
 62 -47 74 22 75 94 c 1
 135 88 l 1
EndSplineSet
Validated: 1
EndChar

StartChar: colon
Encoding: 58 58 65
Width: 187
VWidth: 0
Flags: HMW
LayerCount: 2
Fore
SplineSet
137 456 m 3
 137 429 118 394 83 394 c 3
 57 394 34 409 34 434 c 3
 34 461 50 496 92 496 c 3
 121 496 137 479 137 456 c 3
145 52 m 3
 145 25 122 -7 87 -7 c 3
 56 -7 42 11 42 36 c 3
 42 63 59 96 101 96 c 3
 130 96 145 75 145 52 c 3
EndSplineSet
Validated: 1
EndChar

StartChar: semicolon
Encoding: 59 59 66
Width: 187
VWidth: 0
Flags: HMW
LayerCount: 2
Fore
SplineSet
135 88 m 1
 131 5 114 -59 95 -108 c 1
 52 -94 l 1
 62 -47 74 22 75 94 c 1
 135 88 l 1
137 456 m 3
 137 429 118 394 83 394 c 3
 57 394 34 409 34 434 c 3
 34 461 50 496 92 496 c 3
 121 496 137 479 137 456 c 3
EndSplineSet
Validated: 1
EndChar

StartChar: quotesingle
Encoding: 39 39 67
Width: 109
VWidth: 0
Flags: HMW
LayerCount: 2
Fore
SplineSet
79 690 m 1
 77 638 74 555 74 506 c 1
 28 503 l 1
 27 550 20 608 10 680 c 1
 79 690 l 1
EndSplineSet
Validated: 1
EndChar

StartChar: quotedbl
Encoding: 34 34 68
Width: 220
VWidth: 0
Flags: HMW
LayerCount: 2
Fore
SplineSet
190 688 m 1
 186 636 183 559 182 510 c 1
 137 501 l 1
 134 548 131 611 122 683 c 1
 190 688 l 1
79 690 m 1
 77 638 74 555 74 506 c 1
 28 503 l 1
 27 550 20 608 10 680 c 1
 79 690 l 1
EndSplineSet
Validated: 1
EndChar

StartChar: quoteleft
Encoding: 256 8216 69
Width: 109
VWidth: 0
Flags: HMW
LayerCount: 2
Fore
SplineSet
23 498 m 1
 19 515 15 532 15 550 c 3
 15 600 16 648 28 684 c 1
 67 687 l 1
 67 640 76 571 94 514 c 1
 23 498 l 1
EndSplineSet
Validated: 1
EndChar

StartChar: quoteright
Encoding: 257 8217 70
Width: 109
VWidth: 0
Flags: HMW
LayerCount: 2
Fore
SplineSet
87 689 m 1
 91 672 93 655 93 637 c 3
 93 587 80 534 68 498 c 1
 22 507 l 1
 32 554 31 618 16 677 c 1
 87 689 l 1
EndSplineSet
Validated: 33
EndChar

StartChar: quotedblleft
Encoding: 258 8220 71
Width: 240
VWidth: 0
Flags: HMW
LayerCount: 2
Fore
SplineSet
146 502 m 1
 143 515 141 547 141 565 c 3
 141 586 142 650 154 686 c 1
 193 685 l 1
 193 620 202 568 220 511 c 1
 146 502 l 1
28 498 m 1
 24 515 20 532 20 550 c 3
 20 600 21 648 33 684 c 1
 72 687 l 1
 72 640 81 571 99 514 c 1
 28 498 l 1
EndSplineSet
Validated: 1
EndChar

StartChar: quotedblright
Encoding: 259 8221 72
Width: 238
VWidth: 0
Flags: HMW
LayerCount: 2
Fore
SplineSet
212 687 m 1
 216 670 218 655 218 637 c 3
 218 587 205 530 193 494 c 1
 150 504 l 1
 157 551 155 621 141 680 c 1
 212 687 l 1
91 689 m 1
 95 672 97 655 97 637 c 3
 97 587 84 534 72 498 c 1
 26 507 l 1
 36 554 35 618 20 677 c 1
 91 689 l 1
EndSplineSet
Validated: 33
EndChar

StartChar: emdash
Encoding: 260 8212 73
Width: 800
VWidth: 0
Flags: HMW
LayerCount: 2
Fore
SplineSet
32 316 m 1
 767 321 l 1
 768 277 l 1
 32 269 l 1
 32 316 l 1
EndSplineSet
Validated: 1
EndChar

StartChar: endash
Encoding: 262 8211 75
Width: 460
VWidth: 0
Flags: HMW
LayerCount: 2
Fore
SplineSet
32 316 m 1
 427 318 l 1
 427 274 l 1
 32 269 l 1
 32 316 l 1
EndSplineSet
Validated: 1
EndChar

StartChar: parenleft
Encoding: 40 40 77
Width: 188
VWidth: 0
Flags: HMW
LayerCount: 2
Fore
SplineSet
173 695 m 1
 106 584 80 496 80 316 c 3
 80 112 127 -9 188 -99 c 1
 156 -126 l 1
 86 -65 20 102 20 310 c 3
 20 532 79 642 138 715 c 1
 173 695 l 1
EndSplineSet
Validated: 1
EndChar

StartChar: parenright
Encoding: 41 41 78
Width: 188
VWidth: 0
Flags: HMW
LayerCount: 2
Fore
SplineSet
16 -102 m 1
 88 9 108 117 108 297 c 3
 108 501 61 598 0 688 c 1
 32 715 l 1
 105 653 168 511 168 303 c 3
 168 81 115 -53 50 -126 c 1
 16 -102 l 1
EndSplineSet
Validated: 1
EndChar

StartChar: hyphen
Encoding: 45 45 79
Width: 250
VWidth: 0
Flags: HMW
LayerCount: 2
Fore
SplineSet
32 321 m 1
 219 325 l 1
 220 271 l 1
 32 264 l 1
 32 321 l 1
EndSplineSet
Validated: 1
EndChar

StartChar: question
Encoding: 63 63 80
Width: 284
VWidth: 0
Flags: HMW
LayerCount: 2
Fore
SplineSet
205 52 m 3
 205 25 182 -7 147 -7 c 3
 116 -7 102 11 102 36 c 3
 102 63 119 96 161 96 c 3
 190 96 205 75 205 52 c 3
127 171 m 1
 108 190 92 227 92 249 c 3
 92 327 180 431 180 522 c 3
 180 573 162 594 116 594 c 3
 84 594 59 585 33 577 c 1
 20 625 l 1
 53 639 86 652 138 652 c 3
 216 652 242 602 242 526 c 3
 242 427 152 319 152 257 c 3
 152 227 158 209 164 190 c 1
 127 171 l 1
EndSplineSet
Validated: 1
EndChar

StartChar: exclam
Encoding: 33 33 81
Width: 187
VWidth: 0
Flags: HMW
LayerCount: 2
Fore
SplineSet
115 652 m 1
 113 466 113 295 113 189 c 1
 61 183 l 1
 61 287 49 491 40 643 c 1
 115 652 l 1
145 52 m 3
 145 25 122 -7 87 -7 c 3
 56 -7 42 11 42 36 c 3
 42 63 59 96 101 96 c 3
 130 96 145 75 145 52 c 3
EndSplineSet
Validated: 1
EndChar

StartChar: slash
Encoding: 47 47 82
Width: 216
VWidth: 0
Flags: HMW
LayerCount: 2
Fore
SplineSet
15 -138 m 1
 46 14 123 509 141 701 c 1
 201 698 l 1
 170 505 98 32 74 -146 c 1
 15 -138 l 1
EndSplineSet
Validated: 1
EndChar

StartChar: numbersign
Encoding: 35 35 83
Width: 408
VWidth: 0
Flags: MW
LayerCount: 2
Fore
SplineSet
18 202 m 1
 391 292 l 1
 398 239 l 1
 27 148 l 1
 18 202 l 1
10 401 m 1
 383 491 l 1
 390 438 l 1
 19 347 l 1
 10 401 l 1
303 652 m 1
 303 343 306 246 321 2 c 1
 259 -2 l 1
 258 243 256 367 243 641 c 1
 303 652 l 1
149 649 m 1
 151 340 154 246 167 2 c 1
 105 -4 l 1
 104 241 104 368 89 642 c 1
 149 649 l 1
EndSplineSet
Validated: 5
EndChar

StartChar: backslash
Encoding: 92 92 84
Width: 189
VWidth: 0
Flags: MW
LayerCount: 2
Fore
SplineSet
186 -138 m 1
 127 -146 l 1
 103 32 31 495 0 688 c 1
 59 701 l 1
 77 509 155 14 186 -138 c 1
EndSplineSet
Validated: 1
EndChar

StartChar: greater
Encoding: 62 62 85
Width: 380
VWidth: 0
Flags: HMW
LayerCount: 2
Fore
SplineSet
294 298 m 1
 153 127 l 1
 109 168 l 1
 227 295 l 1
 100 413 l 1
 142 459 l 1
 294 298 l 1
EndSplineSet
Validated: 1
EndChar

StartChar: dollar
Encoding: 36 36 86
Width: 275
VWidth: 0
Flags: HMW
LayerCount: 2
Fore
SplineSet
105 -52 m 1
 109 94 l 1
 158 103 l 1
 168 -47 l 1
 105 -52 l 1
163 692 m 1
 159 553 l 1
 110 544 l 1
 99 687 l 1
 163 692 l 1
223 579 m 1
 214 526 l 1
 186 530 165 535 145 535 c 3
 107 535 83 514 83 476 c 3
 83 438 108 406 156 357 c 0
 200 312 255 249 255 189 c 3
 255 87 200 58 109 58 c 3
 82 58 49 61 22 71 c 1
 30 121 l 1
 57 116 83 113 111 113 c 3
 175 113 193 125 193 175 c 3
 193 230 158 264 116 304 c 0
 70 348 20 413 20 475 c 3
 20 551 68 589 150 589 c 3
 180 589 200 585 223 579 c 1
EndSplineSet
Validated: 5
EndChar

StartChar: percent
Encoding: 37 37 87
Width: 618
VWidth: 0
Flags: HMW
LayerCount: 2
Fore
SplineSet
531 162 m 3
 531 247 513 278 481 278 c 3
 441 278 432 234 432 167 c 3
 432 103 445 47 482 47 c 3
 520 47 531 85 531 162 c 3
484 327 m 3
 568 327 588 237 588 157 c 3
 588 68 561 0 476 0 c 3
 415 0 375 58 375 160 c 3
 375 261 410 327 484 327 c 3
182 483 m 3
 182 568 168 599 136 599 c 3
 96 599 85 555 85 488 c 3
 85 424 100 368 137 368 c 3
 175 368 182 406 182 483 c 3
139 648 m 3
 223 648 242 558 242 478 c 3
 242 389 213 321 128 321 c 3
 66 321 30 378 30 481 c 3
 30 582 65 648 139 648 c 3
203 7 m 1
 245 159 317 463 349 655 c 1
 408 644 l 1
 366 451 296 172 262 -6 c 1
 203 7 l 1
EndSplineSet
Validated: 1
EndChar

StartChar: ampersand
Encoding: 38 38 88
Width: 400
VWidth: 0
Flags: HMW
LayerCount: 2
Fore
SplineSet
375 23 m 1
 323 -12 l 1
 281 47 20 388 20 544 c 3
 20 600 36 648 108 648 c 3
 155 648 163 600 163 557 c 3
 163 455 138 285 138 108 c 3
 138 69 166 56 189 56 c 3
 244 56 320 142 292 364 c 1
 347 377 l 17
 374 175 304 0 166 0 c 3
 129 0 85 28 85 115 c 3
 85 224 110 426 110 530 c 11
 110 558 106 588 90 588 c 3
 77 588 69 574 69 546 c 3
 69 450 236 189 375 23 c 1
EndSplineSet
Validated: 37
EndChar

StartChar: asterisk
Encoding: 42 42 89
Width: 324
VWidth: 0
Flags: HMW
LayerCount: 2
Fore
SplineSet
139 574 m 1
 122 687 l 1
 186 692 l 1
 179 575 l 1
 279 628 l 1
 304 570 l 1
 191 538 l 1
 274 454 l 1
 226 413 l 1
 165 507 l 1
 111 401 l 1
 57 434 l 1
 134 535 l 1
 20 551 l 1
 35 613 l 1
 139 574 l 1
EndSplineSet
Validated: 1
EndChar

StartChar: plus
Encoding: 43 43 90
Width: 380
VWidth: 0
Flags: MW
LayerCount: 2
Fore
SplineSet
215 321 m 1
 348 327 l 1
 349 273 l 1
 216 271 l 1
 223 137 l 1
 164 137 l 1
 165 270 l 1
 32 264 l 1
 32 321 l 1
 163 319 l 1
 156 453 l 1
 216 454 l 1
 215 321 l 1
EndSplineSet
Validated: 1
EndChar

StartChar: less
Encoding: 60 60 91
Width: 377
VWidth: 0
Flags: HMW
LayerCount: 2
Fore
SplineSet
86 294 m 1
 229 465 l 1
 273 423 l 1
 152 294 l 1
 277 177 l 1
 236 133 l 1
 86 294 l 1
EndSplineSet
Validated: 1
EndChar

StartChar: minus
Encoding: 264 8722 92
Width: 380
VWidth: 0
Flags: MW
LayerCount: 2
Fore
SplineSet
347 324 m 1
 348 274 l 1
 242 273 138 271 32 266 c 1
 32 319 l 1
 137 319 242 319 347 324 c 1
EndSplineSet
Validated: 1
EndChar

StartChar: equal
Encoding: 61 61 93
Width: 380
VWidth: 0
Flags: HMW
LayerCount: 2
Fore
SplineSet
346 396 m 1
 347 347 l 1
 241 345 138 343 32 339 c 1
 32 391 l 1
 137 391 241 392 346 396 c 1
347 250 m 1
 348 200 l 1
 242 199 139 199 33 194 c 1
 33 246 l 1
 138 246 242 246 347 250 c 1
EndSplineSet
Validated: 1
EndChar

StartChar: at
Encoding: 64 64 94
Width: 702
VWidth: 0
Flags: HMW
LayerCount: 2
Fore
SplineSet
472 437 m 1
 472 131 483 90 537 90 c 3
 573 90 594 138 594 287 c 3
 594 479 536 598 381 598 c 3
 186 598 114 443 114 242 c 3
 114 22 202 -126 370 -126 c 27
 413 -126 438 -121 481 -112 c 9
 490 -164 l 17
 442 -176 415 -180 366 -180 c 27
 162 -180 50 -7 50 242 c 3
 50 465 151 654 378 654 c 3
 599 654 652 479 652 283 c 3
 652 102 606 36 526 36 c 3
 473 36 436 76 429 162 c 1
 412 90 393 36 345 36 c 3
 274 36 237 83 237 245 c 3
 237 376 285 464 373 464 c 3
 412 464 443 458 472 437 c 1
368 408 m 3
 324 408 298 357 298 230 c 3
 298 120 314 97 346 97 c 3
 379 97 414 191 414 397 c 1
 404 406 383 408 368 408 c 3
EndSplineSet
Validated: 1
EndChar

StartChar: bracketleft
Encoding: 91 91 95
Width: 220
VWidth: 0
Flags: HMW
LayerCount: 2
Fore
SplineSet
68 -91 m 1
 215 -86 l 1
 217 -140 l 1
 52 -139 l 1
 68 -91 l 1
40 706 m 1
 196 712 l 1
 194 661 l 1
 61 661 l 1
 40 706 l 1
98 697 m 1
 101 430 102 121 111 -123 c 1
 52 -139 l 1
 51 106 54 432 40 706 c 1
 98 697 l 1
EndSplineSet
Validated: 5
EndChar

StartChar: braceleft
Encoding: 123 123 96
Width: 250
VWidth: 0
Flags: HMW
LayerCount: 2
Fore
SplineSet
124 598 m 3
 124 538 140 458 140 386 c 3
 140 337 123 304 89 294 c 1
 123 287 141 258 141 205 c 3
 141 124 134 22 134 -41 c 3
 134 -99 163 -104 231 -88 c 1
 237 -140 l 1
 208 -147 184 -151 164 -151 c 3
 101 -151 78 -118 78 -44 c 3
 78 67 84 125 84 207 c 3
 84 247 55 262 0 269 c 1
 0 311 l 1
 55 318 84 339 84 384 c 3
 84 476 67 539 67 616 c 3
 67 677 102 711 218 712 c 1
 217 661 l 1
 139 661 124 638 124 598 c 3
EndSplineSet
Validated: 33
EndChar

StartChar: bracketright
Encoding: 93 93 97
Width: 220
VWidth: 0
Flags: HMW
LayerCount: 2
Fore
SplineSet
152 663 m 1
 8 658 l 1
 7 712 l 1
 168 711 l 1
 152 663 l 1
180 -134 m 1
 22 -141 l 1
 24 -90 l 1
 159 -89 l 1
 180 -134 l 1
122 -125 m 1
 120 142 118 451 109 695 c 1
 168 711 l 1
 169 466 166 140 180 -134 c 1
 122 -125 l 1
EndSplineSet
Validated: 5
EndChar

StartChar: asciicircum
Encoding: 94 94 98
Width: 320
VWidth: 0
Flags: MW
LayerCount: 2
Fore
SplineSet
155 691 m 1
 300 520 l 1
 254 484 l 1
 155 605 l 1
 68 480 l 1
 20 513 l 1
 155 691 l 1
EndSplineSet
Validated: 1
EndChar

StartChar: underscore
Encoding: 95 95 99
Width: 400
VWidth: 0
Flags: MW
LayerCount: 2
Fore
SplineSet
400 0 m 1
 401 -54 l 1
 295 -55 106 -55 0 -60 c 1
 0 -4 l 1
 105 -4 295 -4 400 0 c 1
EndSplineSet
Validated: 1
EndChar

StartChar: braceright
Encoding: 125 125 100
Width: 250
VWidth: 0
Flags: HMW
LayerCount: 2
Fore
SplineSet
126 -45 m 3
 126 15 110 129 110 201 c 3
 110 250 127 283 161 293 c 1
 127 300 109 329 109 382 c 3
 109 463 116 539 116 602 c 3
 116 660 86 658 19 651 c 1
 13 703 l 1
 42 708 66 709 86 709 c 3
 149 709 172 679 172 605 c 3
 172 494 166 462 166 380 c 3
 166 340 195 325 250 318 c 1
 250 276 l 1
 195 269 166 248 166 203 c 3
 166 111 183 17 183 -60 c 3
 183 -121 148 -150 32 -151 c 1
 33 -100 l 1
 111 -100 126 -85 126 -45 c 3
EndSplineSet
Validated: 33
EndChar

StartChar: bar
Encoding: 124 124 101
Width: 200
VWidth: 0
Flags: MW
LayerCount: 2
Fore
SplineSet
123 707 m 1
 126 440 127 107 136 -137 c 1
 76 -139 l 1
 75 106 78 432 64 706 c 1
 123 707 l 1
EndSplineSet
Validated: 1
EndChar

StartChar: asciitilde
Encoding: 126 126 102
Width: 380
VWidth: 0
Flags: HMW
LayerCount: 2
Fore
SplineSet
331 339 m 1
 370 301 l 1
 347 269 308 233 260 233 c 3
 193 233 159 298 116 298 c 3
 91 298 73 280 47 249 c 1
 10 288 l 1
 35 319 75 356 118 356 c 3
 184 356 208 291 259 291 c 3
 290 291 308 309 331 339 c 1
EndSplineSet
Validated: 1
EndChar

StartChar: exclamdown
Encoding: 161 161 103
Width: 187
VWidth: 0
Flags: MW
LayerCount: 2
Fore
SplineSet
63 -159 m 1
 67 27 68 198 68 304 c 1
 120 310 l 1
 122 206 128 2 137 -150 c 1
 63 -159 l 1
145 462 m 3
 145 435 122 403 87 403 c 3
 56 403 42 421 42 446 c 3
 42 473 59 506 101 506 c 3
 130 506 145 485 145 462 c 3
EndSplineSet
Validated: 1
EndChar

StartChar: cent
Encoding: 162 162 104
Width: 253
VWidth: 0
Flags: HMW
LayerCount: 2
Fore
SplineSet
183 555 m 1
 179 416 l 1
 130 407 l 1
 119 550 l 1
 183 555 l 1
128 -52 m 1
 130 94 l 1
 179 103 l 1
 191 -47 l 1
 128 -52 l 1
227 128 m 1
 246 82 l 1
 216 65 186 57 159 57 c 3
 78 57 30 114 30 232 c 3
 30 402 80 450 176 450 c 3
 202 450 226 440 241 428 c 1
 223 379 l 1
 208 384 185 395 164 395 c 3
 114 395 91 358 91 243 c 3
 91 155 117 114 168 114 c 3
 185 114 205 119 227 128 c 1
EndSplineSet
Validated: 5
EndChar

StartChar: sterling
Encoding: 163 163 105
Width: 310
VWidth: 0
Flags: HMW
LayerCount: 2
Fore
SplineSet
130 49 m 1
 177 49 262 56 296 58 c 1
 297 0 l 1
 38 -2 l 1
 35 38 l 1
 71 48 87 66 87 111 c 3
 87 213 72 362 72 453 c 3
 72 551 108 592 178 592 c 3
 225 592 264 581 272 575 c 1
 260 520 l 1
 228 529 212 532 180 532 c 3
 150 532 129 519 129 452 c 3
 129 348 144 180 144 123 c 3
 144 87 140 70 130 49 c 1
31 317 m 1
 209 325 l 1
 211 274 l 1
 32 266 l 1
 31 317 l 1
EndSplineSet
Validated: 5
EndChar

StartChar: Euro
Encoding: 164 8364 106
Width: 312
VWidth: 0
Flags: HMW
LayerCount: 2
Fore
SplineSet
230 384 m 1
 231 331 l 1
 125 329 106 328 0 324 c 1
 0 380 l 1
 105 380 125 380 230 384 c 1
231 265 m 1
 232 211 l 1
 126 210 107 211 1 206 c 1
 1 262 l 1
 106 262 126 262 231 265 c 1
294 564 m 1
 276 515 l 1
 261 520 238 531 217 531 c 3
 132 531 111 438 111 301 c 3
 111 146 133 89 169 59 c 0
 189 42 258 48 289 61 c 1
 306 15 l 1
 275 -2 243 -9 217 -9 c 3
 87 -9 48 92 48 283 c 3
 48 460 86 586 225 586 c 3
 254 586 281 578 294 564 c 1
EndSplineSet
Validated: 37
EndChar

StartChar: yen
Encoding: 165 165 107
Width: 297
VWidth: 0
Flags: HMW
LayerCount: 2
Fore
SplineSet
262 269 m 1
 263 216 l 1
 157 214 138 213 32 209 c 1
 32 265 l 1
 137 265 157 265 262 269 c 1
263 150 m 1
 264 96 l 1
 158 95 139 96 33 91 c 1
 33 147 l 1
 138 147 158 147 263 150 c 1
156 266 m 1
 177 361 192 442 214 584 c 1
 282 581 l 17
 251 453 207 293 184 216 c 1
 185 111 188 78 192 2 c 1
 123 -4 l 1
 122 71 123 123 119 216 c 1
 93 336 61 412 15 575 c 1
 80 586 l 1
 107 457 123 395 156 266 c 1
EndSplineSet
Validated: 5
EndChar

StartChar: section
Encoding: 167 167 108
Width: 315
VWidth: 0
Flags: HMW
LayerCount: 2
Fore
SplineSet
181 354 m 1
 119 354 98 308 98 270 c 3
 98 232 111 198 174 128 c 0
 225 71 278 11 278 -49 c 3
 278 -151 223 -180 132 -180 c 3
 105 -180 72 -177 45 -167 c 1
 53 -117 l 1
 80 -122 106 -125 134 -125 c 3
 198 -125 216 -111 216 -63 c 3
 216 -21 189 18 134 80 c 0
 55 169 35 207 35 269 c 3
 35 345 86 408 186 408 c 1
 181 354 l 1
133 168 m 1
 197 168 218 208 218 256 c 3
 218 311 184 353 133 403 c 0
 81 454 39 525 39 587 c 3
 39 663 87 701 169 701 c 3
 199 701 219 697 242 691 c 1
 233 638 l 1
 205 642 184 647 164 647 c 3
 126 647 102 626 102 588 c 3
 102 550 126 507 173 457 c 0
 221 406 280 330 280 270 c 3
 280 168 222 113 131 113 c 1
 133 168 l 1
EndSplineSet
Validated: 5
EndChar

StartChar: guillemotleft
Encoding: 171 171 109
Width: 376
VWidth: 0
Flags: HMW
LayerCount: 2
Fore
SplineSet
170 295 m 1
 273 470 l 1
 322 443 l 1
 231 295 l 1
 332 164 l 1
 284 132 l 1
 170 295 l 1
36 294 m 1
 139 470 l 1
 188 443 l 1
 97 294 l 1
 194 159 l 1
 146 127 l 1
 36 294 l 1
EndSplineSet
Validated: 1
EndChar

StartChar: guillemotright
Encoding: 187 187 110
Width: 376
VWidth: 0
Flags: HMW
LayerCount: 2
Fore
SplineSet
206 292 m 1
 103 118 l 1
 54 145 l 1
 145 292 l 1
 44 417 l 1
 92 455 l 1
 206 292 l 1
340 296 m 1
 237 120 l 1
 188 147 l 1
 279 296 l 1
 182 431 l 1
 230 463 l 1
 340 296 l 1
EndSplineSet
Validated: 1
EndChar

StartChar: logicalnot
Encoding: 172 172 111
Width: 390
VWidth: 0
Flags: HMW
LayerCount: 2
Fore
SplineSet
348 323 m 1
 349 260 349 200 350 137 c 1
 292 137 l 1
 295 181 295 226 296 271 c 1
 198 271 115 270 32 266 c 1
 32 319 l 1
 140 319 246 319 348 323 c 1
EndSplineSet
Validated: 1
EndChar

StartChar: degree
Encoding: 176 176 113
Width: 292
VWidth: 0
Flags: HMW
LayerCount: 2
Fore
SplineSet
202 500 m 3
 202 580 178 606 146 606 c 3
 106 606 85 572 85 505 c 3
 85 441 110 395 147 395 c 3
 185 395 202 423 202 500 c 3
149 655 m 3
 233 655 262 579 262 499 c 3
 262 410 223 348 138 348 c 3
 76 348 30 396 30 499 c 3
 30 600 75 655 149 655 c 3
EndSplineSet
Validated: 1
EndChar

StartChar: plusminus
Encoding: 177 177 114
Width: 380
VWidth: 0
Flags: MW
LayerCount: 2
Fore
SplineSet
345 58 m 1
 346 8 l 1
 240 7 136 5 30 0 c 1
 30 53 l 1
 135 53 240 53 345 58 c 1
215 321 m 1
 348 327 l 1
 349 273 l 1
 216 271 l 1
 223 137 l 1
 164 137 l 1
 165 270 l 1
 32 264 l 1
 32 321 l 1
 163 319 l 1
 156 453 l 1
 216 454 l 1
 215 321 l 1
EndSplineSet
Validated: 1
EndChar

StartChar: mu
Encoding: 181 181 115
Width: 340
VWidth: 0
Flags: HMW
LayerCount: 2
Fore
SplineSet
292 502 m 1
 295 309 297 195 305 5 c 1
 242 -7 l 1
 245 187 l 1
 226 81 211 -3 141 -3 c 3
 118 -3 98 3 84 17 c 1
 102 -180 l 1
 26 -168 l 1
 38 -64 42 39 42 158 c 3
 42 234 41 330 34 494 c 1
 103 500 l 1
 102 137 92 60 143 60 c 3
 197 60 221 165 226 495 c 1
 292 502 l 1
EndSplineSet
Validated: 33
EndChar

StartChar: paragraph
Encoding: 182 182 116
Width: 425
VWidth: 0
Flags: MW
LayerCount: 2
Fore
SplineSet
217 333 m 1
 236 287 l 1
 206 270 176 262 149 262 c 3
 68 262 20 329 20 447 c 3
 20 609 77 655 173 655 c 3
 199 655 222 649 242 645 c 1
 212 592 l 1
 197 597 184 600 163 600 c 3
 113 600 81 567 81 452 c 3
 81 364 107 319 158 319 c 3
 175 319 195 324 217 333 c 1
361 652 m 1
 361 343 364 246 379 2 c 1
 317 -2 l 1
 316 243 314 367 301 641 c 1
 361 652 l 1
242 645 m 1
 244 336 247 246 260 2 c 1
 198 -4 l 1
 197 241 197 368 182 642 c 1
 242 645 l 1
EndSplineSet
Validated: 5
EndChar

StartChar: periodcentered
Encoding: 183 183 117
Width: 187
VWidth: 0
Flags: MW
LayerCount: 2
Fore
SplineSet
145 303 m 3
 145 276 122 244 87 244 c 3
 56 244 42 262 42 287 c 3
 42 314 59 347 101 347 c 3
 130 347 145 326 145 303 c 3
EndSplineSet
Validated: 1
EndChar

StartChar: OE
Encoding: 188 338 118
Width: 485
VWidth: 0
Flags: HMW
LayerCount: 2
Fore
SplineSet
277 357 m 1
 429 366 l 1
 431 309 l 1
 279 304 l 1
 277 357 l 1
224 44 m 1
 471 60 l 1
 473 0 l 1
 208 -7 l 1
 224 44 l 1
239 644 m 1
 447 654 l 1
 449 596 l 1
 260 590 l 1
 239 644 l 1
307 635 m 1
 310 368 313 253 322 9 c 1
 253 8 l 1
 252 253 253 370 239 644 c 1
 307 635 l 1
276 636 m 1
 258 587 l 1
 243 592 220 603 199 603 c 3
 114 603 95 528 95 337 c 3
 95 142 115 89 151 59 c 0
 171 42 240 48 271 61 c 1
 288 15 l 1
 257 -2 225 -9 199 -9 c 3
 69 -9 30 57 30 319 c 3
 30 574 68 658 207 658 c 3
 236 658 263 650 276 636 c 1
EndSplineSet
Validated: 37
EndChar

StartChar: oe
Encoding: 189 339 119
Width: 493
VWidth: 0
Flags: HMW
LayerCount: 2
Fore
SplineSet
352 445 m 3
 319 445 292 402 287 344 c 1
 400 343 l 1
 399 423 376 445 352 445 c 3
284 298 m 1
 282 270 281 248 281 231 c 3
 281 98 315 45 367 45 c 3
 383 45 425 54 448 62 c 1
 460 18 l 1
 433 4 395 -6 359 -6 c 3
 272 -6 215 58 215 249 c 3
 215 352 242 503 361 503 c 3
 428 503 457 458 457 374 c 3
 457 362 456 323 447 300 c 1
 284 298 l 1
215 249 m 3
 215 401 200 445 158 445 c 3
 105 445 92 351 92 253 c 3
 92 119 110 51 159 51 c 3
 209 51 215 116 215 249 c 3
162 503 m 3
 274 503 281 338 281 231 c 3
 281 112 266 -8 147 -8 c 3
 65 -8 30 68 30 244 c 3
 30 379 63 503 162 503 c 3
EndSplineSet
Validated: 5
EndChar

StartChar: questiondown
Encoding: 191 191 120
Width: 284
VWidth: 0
Flags: MW
LayerCount: 2
Fore
SplineSet
181 462 m 3
 181 435 158 403 123 403 c 3
 92 403 78 421 78 446 c 3
 78 473 95 506 137 506 c 3
 166 506 181 485 181 462 c 3
157 324 m 1
 176 305 192 268 192 246 c 3
 192 168 104 64 104 -27 c 3
 104 -78 122 -99 168 -99 c 3
 200 -99 225 -90 251 -82 c 1
 264 -130 l 1
 231 -144 198 -157 146 -157 c 3
 68 -157 42 -107 42 -31 c 3
 42 68 132 176 132 238 c 3
 132 268 126 286 120 305 c 1
 157 324 l 1
EndSplineSet
Validated: 1
EndChar

StartChar: AE
Encoding: 198 198 121
Width: 433
VWidth: 0
Flags: HMW
LayerCount: 2
Fore
SplineSet
226 357 m 1
 378 366 l 1
 380 309 l 1
 228 304 l 1
 226 357 l 1
218 51 m 1
 420 60 l 1
 422 0 l 1
 202 -4 l 1
 218 51 l 1
132 646 m 1
 396 654 l 1
 398 596 l 1
 179 590 l 1
 132 646 l 1
256 635 m 1
 259 368 262 256 271 12 c 1
 202 -4 l 1
 201 241 202 370 188 644 c 1
 256 635 l 1
66 216 m 1
 237 220 l 1
 239 168 l 1
 67 162 l 1
 66 216 l 1
182 632 m 1
 179 590 l 1
 153 462 92 141 68 -1 c 1
 0 0 l 1
 33 128 92 402 132 646 c 1
 182 632 l 1
EndSplineSet
Validated: 5
EndChar

StartChar: Thorn
Encoding: 222 222 122
Width: 328
VWidth: 0
Flags: HMW
LayerCount: 2
Fore
SplineSet
107 652 m 1
 110 343 113 246 124 2 c 1
 55 -4 l 1
 54 241 54 371 40 645 c 1
 107 652 l 1
112 199 m 1
 219 211 232 255 232 340 c 3
 232 425 199 460 107 440 c 1
 81 487 l 1
 108 495 135 501 163 501 c 3
 248 501 298 465 298 337 c 3
 298 237 262 168 113 152 c 1
 112 199 l 1
EndSplineSet
Validated: 37
EndChar

StartChar: germandbls
Encoding: 223 223 123
Width: 380
VWidth: 0
Flags: HMW
LayerCount: 2
Fore
SplineSet
124 475 m 3
 124 288 128 248 138 4 c 1
 69 -7 l 1
 69 238 58 364 58 468 c 3
 58 559 59 697 187 697 c 3
 271 697 306 623 306 539 c 3
 306 453 284 406 249 370 c 1
 305 352 350 305 350 196 c 3
 350 44 275 -2 188 -8 c 1
 184 47 l 1
 243 54 288 78 288 192 c 3
 288 282 251 325 177 329 c 1
 174 376 l 1
 221 397 242 432 242 539 c 3
 242 602 219 641 181 641 c 3
 124 641 124 557 124 475 c 3
EndSplineSet
Validated: 1
EndChar

StartChar: ae
Encoding: 230 230 124
Width: 295
VWidth: 0
Flags: HMW
LayerCount: 2
Fore
SplineSet
-49 51 m 3
 -5 51 27 69 30 228 c 1
 -60 226 -103 198 -103 130 c 3
 -103 65 -73 51 -49 51 c 3
-160 122 m 1
 -161 221 -121 270 30 274 c 1
 30 404 6 449 -46 449 c 3
 -75 449 -107 442 -130 434 c 1
 -142 478 l 1
 -115 492 -69 502 -33 502 c 3
 54 502 90 436 90 245 c 3
 90 142 71 -7 -50 -7 c 3
 -117 -7 -160 38 -160 122 c 1
167 445 m 3
 134 445 107 402 102 344 c 1
 215 343 l 1
 214 423 191 445 167 445 c 3
99 298 m 1
 97 270 96 239 96 222 c 3
 96 92 130 45 182 45 c 3
 198 45 240 54 263 62 c 1
 275 18 l 1
 248 4 210 -6 174 -6 c 3
 87 -6 30 60 30 251 c 3
 30 354 57 503 176 503 c 3
 243 503 272 458 272 374 c 3
 272 362 271 323 262 300 c 1
 99 298 l 1
EndSplineSet
Validated: 37
EndChar

StartChar: eth
Encoding: 240 240 125
Width: 340
VWidth: 0
Flags: MW
LayerCount: 2
Fore
SplineSet
101 596 m 1
 216 622 l 1
 316 655 l 1
 326 605 l 1
 239 585 l 1
 110 546 l 1
 101 596 l 1
231 439 m 1
 219 444 198 447 177 447 c 3
 125 447 92 380 92 208 c 3
 92 96 128 56 164 56 c 3
 204 56 239 88 239 253 c 3
 239 395 237 457 168 683 c 1
 223 700 l 1
 273 550 298 445 298 252 c 3
 298 58 232 -2 157 -2 c 3
 82 -2 30 46 30 242 c 3
 30 396 79 496 183 496 c 3
 202 496 218 495 232 492 c 1
 231 439 l 1
EndSplineSet
Validated: 5
EndChar

StartChar: divide
Encoding: 247 247 126
Width: 380
VWidth: 0
Flags: MW
LayerCount: 2
Fore
SplineSet
231 163 m 3
 231 141 212 116 184 116 c 3
 159 116 148 131 148 151 c 3
 148 173 162 199 196 199 c 3
 219 199 231 181 231 163 c 3
230 447 m 3
 230 425 211 400 183 400 c 3
 158 400 147 415 147 435 c 3
 147 457 161 483 195 483 c 3
 218 483 230 465 230 447 c 3
347 324 m 1
 348 274 l 1
 242 273 138 271 32 266 c 1
 32 319 l 1
 137 319 242 319 347 324 c 1
EndSplineSet
Validated: 1
EndChar

StartChar: thorn
Encoding: 254 254 127
Width: 353
VWidth: 0
Flags: HMW
LayerCount: 2
Fore
SplineSet
40 688 m 1
 105 700 l 1
 109 362 l 1
 127 472 168 503 212 503 c 3
 286 503 318 451 318 256 c 3
 318 102 269 0 165 0 c 3
 146 0 130 1 116 4 c 1
 116 -36 117 -89 121 -175 c 1
 54 -186 l 1
 60 47 53 508 40 688 c 1
171 49 m 3
 228 49 254 121 254 281 c 3
 254 407 239 442 201 442 c 3
 152 442 116 328 116 63 c 1
 130 52 154 49 171 49 c 3
EndSplineSet
Validated: 33
EndChar

StartChar: copyright
Encoding: 169 169 128
Width: 566
VWidth: 0
Flags: HMW
LayerCount: 2
Fore
SplineSet
368 194 m 1
 387 148 l 1
 357 131 327 123 300 123 c 3
 219 123 171 180 171 298 c 3
 171 468 221 516 317 516 c 3
 343 516 367 506 382 494 c 1
 364 445 l 1
 349 450 326 461 305 461 c 3
 255 461 232 424 232 309 c 3
 232 221 258 180 309 180 c 3
 326 180 346 185 368 194 c 1
474 319 m 3
 474 546 385 606 284 606 c 3
 167 606 90 507 90 321 c 3
 90 117 173 39 300 39 c 3
 406 39 474 108 474 319 c 3
288 656 m 3
 467 656 531 524 531 295 c 3
 531 128 454 -12 290 -12 c 3
 126 -12 35 104 35 310 c 3
 35 538 134 656 288 656 c 3
EndSplineSet
Validated: 1
EndChar

StartChar: registered
Encoding: 174 174 129
Width: 566
VWidth: 0
Flags: HMW
LayerCount: 2
Fore
SplineSet
267 140 m 1
 206 129 l 1
 209 219 206 365 204 452 c 1
 168 446 l 1
 161 496 l 1
 212 505 237 511 282 511 c 3
 343 511 382 490 382 421 c 3
 382 360 358 334 327 324 c 1
 344 320 355 312 361 288 c 0
 372 245 380 217 401 146 c 1
 335 128 l 1
 327 185 315 238 305 275 c 0
 298 301 278 311 260 306 c 1
 259 346 l 1
 309 350 326 373 326 413 c 3
 326 450 303 466 258 457 c 1
 258 365 264 231 267 140 c 1
474 319 m 3
 474 546 385 606 284 606 c 3
 167 606 90 507 90 321 c 3
 90 117 173 39 300 39 c 3
 406 39 474 108 474 319 c 3
288 656 m 3
 467 656 531 524 531 295 c 3
 531 128 454 -12 290 -12 c 3
 126 -12 35 104 35 310 c 3
 35 538 134 656 288 656 c 3
EndSplineSet
Validated: 37
EndChar

StartChar: gravecomb
Encoding: 265 768 132
Width: 0
VWidth: 0
Flags: MW
AnchorPoint: "top" -154 496 mark 0
LayerCount: 2
Fore
SplineSet
-255 703 m 1
 -199 746 l 1
 -159 685 -123 636 -93 600 c 1
 -128 568 l 1
 -161 605 -219 665 -255 703 c 1
EndSplineSet
Validated: 1
EndChar

StartChar: acutecomb
Encoding: 266 769 133
Width: 0
VWidth: 0
Flags: MW
AnchorPoint: "top" -159 496 mark 0
LayerCount: 2
Fore
SplineSet
-67 703 m 1
 -103 665 -161 605 -194 568 c 1
 -229 600 l 1
 -199 636 -163 685 -123 746 c 1
 -67 703 l 1
EndSplineSet
Validated: 1
EndChar

StartChar: circumflexcomb
Encoding: 267 770 134
Width: 0
VWidth: 0
Flags: MW
AnchorPoint: "top" -154 496 mark 0
LayerCount: 2
Fore
SplineSet
-162 742 m 1
 -37 600 l 1
 -83 564 l 1
 -162 663 l 1
 -236 564 l 1
 -284 597 l 1
 -162 742 l 1
EndSplineSet
Validated: 1
EndChar

StartChar: tildecomb
Encoding: 268 771 135
Width: 0
VWidth: 0
Flags: MW
AnchorPoint: "top" -157 496 mark 0
LayerCount: 2
Fore
SplineSet
-67 684 m 1
 -36 648 l 1
 -52 626 -83 598 -117 598 c 3
 -164 598 -188 635 -218 635 c 3
 -236 635 -249 623 -267 606 c 1
 -297 640 l 1
 -279 662 -246 692 -216 692 c 3
 -170 692 -154 653 -118 653 c 3
 -96 653 -83 663 -67 684 c 1
EndSplineSet
Validated: 1
EndChar

StartChar: brevecomb
Encoding: 269 774 136
Width: 0
VWidth: 0
Flags: HMW
AnchorPoint: "top" -157 496 mark 0
LayerCount: 2
Fore
SplineSet
-159 577 m 3
 -213 577 -272 616 -290 692 c 1
 -240 717 l 1
 -221 658 -201 633 -159 633 c 3
 -117 633 -92 664 -79 718 c 1
 -30 696 l 1
 -48 619 -100 577 -159 577 c 3
EndSplineSet
Validated: 1
EndChar

StartChar: uni030A
Encoding: 270 778 137
Width: 0
VWidth: 0
Flags: HMW
AnchorPoint: "top" -157 496 mark 0
LayerCount: 2
Fore
SplineSet
-132 659 m 3
 -132 698 -147 709 -164 709 c 3
 -185 709 -199 694 -199 663 c 3
 -199 622 -183 611 -164 611 c 3
 -143 611 -132 628 -132 659 c 3
-161 748 m 3
 -105 748 -83 704 -83 659 c 3
 -83 612 -109 573 -169 573 c 3
 -212 573 -244 604 -244 659 c 3
 -244 713 -213 748 -161 748 c 3
EndSplineSet
Validated: 1
EndChar

StartChar: dieresiscomb
Encoding: 271 776 138
Width: 0
VWidth: 0
Flags: MW
AnchorPoint: "top" -157 496 mark 0
LayerCount: 2
Fore
SplineSet
-57 655 m 3
 -57 633 -76 608 -104 608 c 3
 -129 608 -140 623 -140 643 c 3
 -140 665 -130 691 -96 691 c 3
 -73 691 -57 673 -57 655 c 3
-191 655 m 3
 -191 633 -210 608 -238 608 c 3
 -263 608 -274 623 -274 643 c 3
 -274 665 -263 691 -229 691 c 3
 -206 691 -191 673 -191 655 c 3
EndSplineSet
Validated: 1
EndChar

StartChar: caroncomb
Encoding: 272 780 139
Width: 0
VWidth: 0
Flags: MW
AnchorPoint: "top" -154 496 mark 0
LayerCount: 2
Fore
SplineSet
-159 564 m 1
 -284 705 l 1
 -238 741 l 1
 -159 643 l 1
 -85 743 l 1
 -37 709 l 1
 -159 564 l 1
EndSplineSet
Validated: 1
EndChar

StartChar: dotlessi
Encoding: 273 305 149
Width: 177
VWidth: 0
Flags: MW
AnchorPoint: "bottom" 103 0 basechar 0
AnchorPoint: "top" 91 496 basechar 0
LayerCount: 2
Fore
SplineSet
124 501 m 1
 127 308 129 194 137 4 c 1
 68 -7 l 1
 70 160 65 327 58 494 c 1
 124 501 l 1
EndSplineSet
Validated: 33
EndChar

StartChar: macroncomb
Encoding: 274 772 168
Width: 0
VWidth: 0
Flags: MW
AnchorPoint: "top" -157 496 mark 0
LayerCount: 2
Fore
SplineSet
-258 675 m 25
 -69 678 l 1
 -69 624 l 25
 -258 624 l 1
 -258 675 l 25
EndSplineSet
Validated: 1
EndChar

StartChar: dotcomb
Encoding: 275 775 169
Width: 0
VWidth: 0
Flags: HMW
AnchorPoint: "top" -157 496 mark 0
LayerCount: 2
Fore
SplineSet
-113 649 m 3
 -113 622 -135 593 -168 593 c 3
 -197 593 -210 609 -210 634 c 3
 -210 661 -194 691 -154 691 c 3
 -127 691 -113 672 -113 649 c 3
EndSplineSet
Validated: 1
EndChar

StartChar: hungarumlautcomb
Encoding: 276 779 170
Width: 0
VWidth: 0
Flags: HMW
AnchorPoint: "top" -159 496 mark 0
LayerCount: 2
Fore
SplineSet
-36 722 m 1
 -57 674 -89 612 -108 566 c 1
 -151 585 l 1
 -135 629 -118 673 -101 744 c 1
 -36 722 l 1
-153 726 m 1
 -173 677 -197 613 -216 567 c 1
 -259 586 l 1
 -243 630 -231 673 -218 744 c 1
 -153 726 l 1
EndSplineSet
Validated: 1
EndChar

StartChar: uni0315
Encoding: 278 789 172
Width: 100
VWidth: 0
Flags: HMW
AnchorPoint: "top" 1 647 mark 0
LayerCount: 2
Fore
SplineSet
150 687 m 1
 147 634 135 595 116 546 c 1
 73 560 l 1
 83 601 88 637 90 691 c 1
 150 687 l 1
EndSplineSet
Validated: 1
EndChar

StartChar: grave.cap
Encoding: 279 -1 173
Width: 0
VWidth: 0
Flags: MW
AnchorPoint: "top" -159 648 mark 0
LayerCount: 2
Fore
SplineSet
-254 760 m 1
 -227 820 l 1
 -166 781 -108 749 -66 728 c 1
 -87 685 l 1
 -132 706 -204 739 -254 760 c 1
EndSplineSet
Validated: 1
Colour: c48cff
EndChar

StartChar: acute.cap
Encoding: 280 -1 174
Width: 0
VWidth: 0
Flags: MW
AnchorPoint: "top" -159 648 mark 0
LayerCount: 2
Fore
SplineSet
-66 760 m 1
 -116 739 -189 706 -234 685 c 1
 -254 728 l 1
 -212 749 -154 781 -93 820 c 1
 -66 760 l 1
EndSplineSet
Validated: 1
Colour: c48cff
EndChar

StartChar: circumflex.cap
Encoding: 281 -1 175
Width: 0
VWidth: 0
Flags: MW
AnchorPoint: "top" -154 648 mark 0
LayerCount: 2
Fore
SplineSet
-162 820 m 1
 -37 725 l 1
 -73 681 l 1
 -162 755 l 1
 -251 680 l 1
 -284 725 l 1
 -162 820 l 1
EndSplineSet
Validated: 1
Colour: c48cff
EndChar

StartChar: tilde.cap
Encoding: 282 -1 176
Width: 0
VWidth: 0
Flags: MW
AnchorPoint: "top" -157 648 mark 0
LayerCount: 2
Fore
SplineSet
-67 802 m 1
 -36 766 l 1
 -52 744 -83 716 -117 716 c 3
 -164 716 -188 753 -218 753 c 3
 -236 753 -249 741 -267 724 c 1
 -297 758 l 1
 -279 780 -246 810 -216 810 c 3
 -170 810 -154 771 -118 771 c 3
 -96 771 -83 781 -67 802 c 1
EndSplineSet
Validated: 1
Colour: c48cff
EndChar

StartChar: breve.cap
Encoding: 283 -1 177
Width: 0
VWidth: 0
Flags: HMW
AnchorPoint: "top" -157 648 mark 0
LayerCount: 2
Fore
SplineSet
-159 694 m 3
 -213 694 -266 721 -288 791 c 1
 -240 821 l 1
 -221 774 -201 750 -159 750 c 3
 -117 750 -98 775 -79 821 c 1
 -33 795 l 1
 -48 730 -100 694 -159 694 c 3
EndSplineSet
Validated: 1
Colour: c48cff
EndChar

StartChar: ring.cap
Encoding: 284 -1 178
Width: 0
VWidth: 0
Flags: HMW
AnchorPoint: "top" -160 648 mark 0
LayerCount: 2
Fore
SplineSet
-132 741 m 3
 -132 770 -147 781 -164 781 c 3
 -185 781 -199 766 -199 745 c 3
 -199 716 -183 703 -164 703 c 3
 -143 703 -132 718 -132 741 c 3
-161 820 m 3
 -105 820 -83 779 -83 741 c 3
 -83 702 -113 665 -169 665 c 3
 -212 665 -244 694 -244 741 c 3
 -244 790 -213 820 -161 820 c 3
EndSplineSet
Validated: 1
Colour: c48cff
EndChar

StartChar: dieresis.cap
Encoding: 285 -1 179
Width: 0
VWidth: 0
Flags: MW
AnchorPoint: "top" -157 648 mark 0
LayerCount: 2
Fore
SplineSet
-57 761 m 3
 -57 739 -76 714 -104 714 c 3
 -129 714 -140 729 -140 749 c 3
 -140 771 -130 797 -96 797 c 3
 -73 797 -57 779 -57 761 c 3
-191 761 m 3
 -191 739 -210 714 -238 714 c 3
 -263 714 -274 729 -274 749 c 3
 -274 771 -263 797 -229 797 c 3
 -206 797 -191 779 -191 761 c 3
EndSplineSet
Validated: 1
Colour: c48cff
EndChar

StartChar: caron.cap
Encoding: 286 -1 180
Width: 0
VWidth: 0
Flags: MW
AnchorPoint: "top" -157 648 mark 0
LayerCount: 2
Fore
SplineSet
-159 680 m 1
 -284 776 l 1
 -248 820 l 1
 -159 745 l 1
 -70 820 l 1
 -37 775 l 1
 -159 680 l 1
EndSplineSet
Validated: 1
Colour: c48cff
EndChar

StartChar: macron.cap
Encoding: 287 -1 181
Width: 0
VWidth: 0
Flags: MW
AnchorPoint: "top" -157 648 mark 0
LayerCount: 2
Fore
SplineSet
-258 786 m 25
 -69 789 l 1
 -69 735 l 25
 -258 735 l 1
 -258 786 l 25
EndSplineSet
Validated: 1
Colour: c48cff
EndChar

StartChar: dotaccent.cap
Encoding: 288 -1 182
Width: 0
VWidth: 0
Flags: HMW
AnchorPoint: "top" -157 648 mark 0
LayerCount: 2
Fore
SplineSet
-111 770 m 3
 -111 743 -133 714 -166 714 c 3
 -195 714 -208 730 -208 755 c 3
 -208 782 -192 812 -152 812 c 3
 -125 812 -111 793 -111 770 c 3
EndSplineSet
Validated: 1
Colour: c48cff
EndChar

StartChar: hungarumlaut.cap
Encoding: 289 -1 183
Width: 0
VWidth: 0
Flags: HMW
AnchorPoint: "top" -159 648 mark 0
LayerCount: 2
Fore
SplineSet
-29 777 m 1
 -64 742 -84 719 -116 685 c 1
 -151 717 l 1
 -121 753 -105 774 -81 818 c 1
 -29 777 l 1
-151 781 m 1
 -183 743 -201 722 -234 685 c 1
 -269 717 l 1
 -239 753 -227 773 -205 820 c 1
 -151 781 l 1
EndSplineSet
Validated: 1
Colour: c48cff
EndChar

StartChar: uni0327
Encoding: 290 807 212
Width: 0
VWidth: 0
Flags: MW
AnchorPoint: "bottom" -95 0 mark 0
LayerCount: 2
Fore
SplineSet
-83 17 m 25
 -101 -39 l 17
 -63 -54 -45 -76 -45 -111 c 27
 -45 -144 -89 -175 -120 -180 c 9
 -137 -147 l 17
 -111 -135 -99 -123 -99 -107 c 3
 -99 -89 -121 -75 -154 -59 c 9
 -130 17 l 25
 -83 17 l 25
EndSplineSet
Validated: 1
EndChar

StartChar: Oslash
Encoding: 216 216 214
Width: 355
VWidth: 0
Flags: MW
LayerCount: 2
Fore
SplineSet
258 319 m 3
 258 567 242 600 192 600 c 3
 120 600 95 527 95 321 c 3
 95 83 114 49 168 49 c 3
 236 49 258 104 258 319 c 3
179 658 m 3
 301 658 320 518 320 289 c 3
 320 124 302 -10 173 -10 c 3
 74 -10 35 80 35 310 c 3
 35 550 65 658 179 658 c 3
89 -57 m 1
 120 95 188 509 206 701 c 1
 261 698 l 1
 230 505 167 113 143 -65 c 1
 89 -57 l 1
EndSplineSet
Validated: 5
EndChar

StartChar: oslash
Encoding: 248 248 215
Width: 308
VWidth: 0
Flags: MW
LayerCount: 2
Fore
SplineSet
0 0 m 1
 83 128 177 348 259 518 c 1
 308 494 l 1
 211 328 130 127 47 -28 c 1
 0 0 l 1
221 247 m 3
 221 399 206 445 158 445 c 3
 105 445 86 351 86 253 c 3
 86 119 104 51 159 51 c 3
 209 51 221 114 221 247 c 3
162 503 m 3
 274 503 281 347 281 240 c 3
 281 121 266 -8 147 -8 c 3
 65 -8 30 68 30 244 c 3
 30 379 63 503 162 503 c 3
EndSplineSet
Validated: 5
EndChar

StartChar: Eth
Encoding: 208 208 216
Width: 368
VWidth: 0
UnlinkRmOvrlpSave: 1
Flags: HMW
LayerCount: 2
Fore
SplineSet
195 359 m 1
 196 309 l 1
 17 303 l 1
 17 356 l 1
 195 359 l 1
EndSplineSet
Refer: 31 68 N 1 0 0 1 0 0 2
EndChar

StartChar: multiply
Encoding: 215 215 217
Width: 380
VWidth: 0
Flags: MW
LayerCount: 2
Fore
SplineSet
189 330 m 1
 279 435 l 1
 318 398 l 1
 226 295 l 1
 325 200 l 1
 283 159 l 1
 189 260 l 1
 100 155 l 1
 60 195 l 1
 153 294 l 1
 54 388 l 1
 96 431 l 1
 189 330 l 1
EndSplineSet
Validated: 1
EndChar

StartChar: ordfeminine
Encoding: 170 170 221
Width: 300
VWidth: 0
Flags: HMW
LayerCount: 2
Fore
SplineSet
238 634 m 1
 242 547 249 422 255 353 c 1
 199 341 l 1
 197 488 l 1
 186 378 164 344 124 344 c 3
 49 344 35 411 35 507 c 3
 35 560 50 655 154 655 c 3
 191 655 220 648 238 634 c 1
148 606 m 3
 96 606 89 549 89 499 c 3
 89 424 104 401 128 401 c 3
 155 401 180 453 183 596 c 1
 175 603 166 606 148 606 c 3
EndSplineSet
Validated: 1
EndChar

StartChar: ordmasculine
Encoding: 186 186 222
Width: 292
VWidth: 0
Flags: HMW
LayerCount: 2
Fore
SplineSet
197 498 m 3
 197 578 178 606 146 606 c 3
 106 606 90 570 90 503 c 3
 90 432 110 391 147 391 c 3
 185 391 197 418 197 498 c 3
149 655 m 3
 233 655 257 573 257 497 c 3
 257 408 223 344 138 344 c 3
 76 344 35 400 35 497 c 3
 35 598 75 655 149 655 c 3
EndSplineSet
Validated: 1
EndChar

StartChar: uni00B9
Encoding: 185 185 223
Width: 204
VWidth: 0
Flags: HMW
LayerCount: 2
Fore
SplineSet
144 645 m 1
 145 534 148 447 154 348 c 1
 96 339 l 1
 96 431 96 493 95 554 c 1
 50 501 l 1
 8 540 l 1
 50 578 70 604 102 651 c 1
 144 645 l 1
EndSplineSet
Validated: 1
EndChar

StartChar: uni00B2
Encoding: 178 178 224
Width: 200
VWidth: 0
Flags: HMW
LayerCount: 2
Fore
SplineSet
168 575 m 3
 168 487 114 420 92 404 c 1
 120 404 155 407 175 409 c 1
 174 350 l 1
 24 350 l 1
 21 386 l 1
 71 433 110 490 110 557 c 3
 110 586 100 605 76 605 c 3
 57 605 46 601 30 595 c 1
 17 639 l 1
 37 647 64 655 95 655 c 3
 142 655 168 621 168 575 c 3
EndSplineSet
Validated: 1
EndChar

StartChar: uni00B3
Encoding: 179 179 225
Width: 202
VWidth: 0
Flags: HMW
LayerCount: 2
Fore
SplineSet
106 567 m 3
 106 589 94 605 70 605 c 3
 51 605 42 601 26 595 c 1
 13 639 l 1
 33 647 60 655 91 655 c 3
 138 655 164 621 164 575 c 3
 164 543 145 520 128 513 c 1
 157 505 177 482 177 436 c 3
 177 360 123 344 73 344 c 3
 56 344 31 346 15 352 c 1
 24 401 l 1
 40 398 54 395 71 395 c 3
 109 395 121 417 121 445 c 3
 121 466 108 483 77 491 c 1
 75 519 l 1
 100 530 106 545 106 567 c 3
EndSplineSet
Validated: 1
EndChar

StartChar: Aogonek
Encoding: 294 260 228
Width: 323
VWidth: 0
Flags: HMW
LayerCount: 2
Fore
SplineSet
54 216 m 1
 271 222 l 1
 273 170 l 1
 55 162 l 1
 54 216 l 1
323 5 m 1
 284 -20 254 -45 254 -84 c 3
 254 -115 276 -130 323 -136 c 9
 319 -180 l 17
 236 -175 196 -147 196 -92 c 3
 196 -48 216 -19 255 17 c 1
 234 146 178 401 154 530 c 1
 132 402 90 141 68 -1 c 1
 0 0 l 1
 31 128 82 402 118 646 c 1
 195 652 l 1
 212 526 287 168 323 5 c 1
EndSplineSet
Validated: 5
EndChar

StartChar: aogonek
Encoding: 295 261 229
Width: 340
VWidth: 0
Flags: HMW
LayerCount: 2
Fore
SplineSet
305 5 m 1
 266 -20 236 -45 236 -84 c 3
 236 -115 256 -125 303 -132 c 9
 299 -180 l 17
 216 -178 178 -147 178 -92 c 3
 178 -48 204 -23 244 15 c 1
 245 169 l 1
 227 66 207 -2 146 -2 c 3
 63 -2 30 53 30 244 c 3
 30 398 79 502 183 502 c 3
 229 502 254 494 288 469 c 1
 291 280 295 167 305 5 c 1
177 448 m 3
 125 448 94 376 94 227 c 3
 94 86 109 59 147 59 c 3
 196 59 215 165 222 435 c 1
 210 446 195 448 177 448 c 3
EndSplineSet
Validated: 1
EndChar

StartChar: dcroat
Encoding: 303 273 237
Width: 340
VWidth: 0
UnlinkRmOvrlpSave: 1
Flags: HMW
LayerCount: 2
Fore
SplineSet
342 618 m 1
 343 568 l 1
 159 562 l 1
 159 615 l 1
 342 618 l 1
EndSplineSet
Refer: 13 100 N 1 0 0 1 0 0 2
EndChar

StartChar: Eogonek
Encoding: 308 280 242
Width: 285
VWidth: 0
Flags: HMW
LayerCount: 2
Fore
SplineSet
274 0 m 1
 235 -23 205 -45 205 -84 c 3
 205 -115 227 -130 274 -136 c 9
 270 -180 l 17
 187 -175 147 -147 147 -96 c 3
 147 -52 161 -36 195 -3 c 1
 54 -7 l 1
 70 48 l 1
 272 60 l 1
 274 0 l 1
78 357 m 1
 230 366 l 1
 232 309 l 1
 80 304 l 1
 78 357 l 1
40 644 m 1
 248 654 l 1
 250 596 l 1
 61 590 l 1
 40 644 l 1
108 635 m 1
 111 368 114 253 123 9 c 1
 54 -7 l 1
 53 238 54 370 40 644 c 1
 108 635 l 1
EndSplineSet
Validated: 5
EndChar

StartChar: eogonek
Encoding: 309 281 243
Width: 295
VWidth: 0
Flags: HMW
LayerCount: 2
Fore
SplineSet
275 18 m 1
 226 -7 192 -48 192 -87 c 3
 192 -118 214 -130 261 -136 c 9
 257 -180 l 17
 174 -175 134 -150 134 -95 c 3
 134 -51 152 -32 174 -6 c 1
 87 -6 30 60 30 251 c 3
 30 354 57 502 176 502 c 3
 243 502 272 458 272 374 c 3
 272 362 271 323 262 300 c 1
 99 298 l 1
 97 270 96 239 96 222 c 3
 96 92 130 45 182 45 c 3
 198 45 240 54 263 62 c 1
 275 18 l 1
167 445 m 3
 134 445 107 402 102 344 c 1
 215 343 l 1
 214 423 191 445 167 445 c 3
EndSplineSet
Validated: 1
EndChar

StartChar: Iogonek
Encoding: 318 302 252
Width: 164
VWidth: 0
Flags: HMW
LayerCount: 2
Fore
SplineSet
124 5 m 1
 85 -20 60 -45 60 -84 c 3
 60 -115 82 -130 129 -136 c 9
 125 -180 l 17
 42 -175 2 -147 2 -92 c 3
 2 -48 15 -26 54 10 c 1
 53 255 54 371 40 645 c 1
 107 652 l 1
 111 343 115 249 124 5 c 1
EndSplineSet
Validated: 1
EndChar

StartChar: iogonek
Encoding: 319 303 253
Width: 177
VWidth: 0
Flags: HMW
LayerCount: 2
Fore
SplineSet
137 4 m 1
 98 -21 77 -42 77 -81 c 3
 77 -112 99 -130 146 -136 c 9
 142 -180 l 17
 59 -175 19 -147 19 -92 c 3
 19 -48 29 -31 68 5 c 1
 70 172 65 327 58 494 c 1
 124 501 l 1
 127 308 129 194 137 4 c 1
137 649 m 3
 137 622 115 593 82 593 c 3
 53 593 40 609 40 634 c 3
 40 661 56 691 96 691 c 3
 123 691 137 672 137 649 c 3
EndSplineSet
Validated: 33
EndChar

StartChar: lacute
Encoding: 324 314 258
Width: 177
VWidth: 0
Flags: HMW
LayerCount: 2
Fore
SplineSet
118 652 m 1
 122 343 128 248 137 4 c 1
 68 -7 l 1
 67 238 65 371 51 645 c 1
 118 652 l 1
EndSplineSet
Refer: 174 -1 N 1 0 0 1 280 0 2
Validated: 1
EndChar

StartChar: Lslash
Encoding: 329 321 263
Width: 288
VWidth: 0
Flags: HMW
LayerCount: 2
Fore
SplineSet
-14 341 m 1
 92 372 l 1
 195 410 l 1
 209 359 l 1
 96 324 l 1
 1 289 l 1
 -14 341 l 1
EndSplineSet
Refer: 39 76 N 1 0 0 1 0 0 2
Validated: 5
EndChar

StartChar: lslash
Encoding: 330 322 264
Width: 166
VWidth: 0
Flags: HMW
LayerCount: 2
Fore
SplineSet
-25 341 m 1
 81 372 l 1
 184 410 l 1
 198 359 l 1
 85 324 l 1
 -10 289 l 1
 -25 341 l 1
EndSplineSet
Refer: 16 108 N 1 0 0 1 0 0 2
Validated: 5
EndChar

StartChar: uogonek
Encoding: 362 371 296
Width: 340
VWidth: 0
Flags: HMW
LayerCount: 2
Fore
SplineSet
305 5 m 1
 266 -20 236 -45 236 -84 c 3
 236 -115 256 -125 303 -132 c 9
 299 -180 l 17
 216 -178 178 -147 178 -92 c 3
 178 -48 203 -23 243 15 c 1
 245 187 l 1
 226 81 211 -3 141 -3 c 3
 32 -3 37 91 34 494 c 1
 103 500 l 1
 102 137 92 60 143 60 c 3
 197 60 221 165 226 495 c 1
 292 502 l 1
 295 309 297 195 305 5 c 1
EndSplineSet
Validated: 33
EndChar

StartChar: florin
Encoding: 367 402 301
Width: 364
VWidth: 0
Flags: HMW
LayerCount: 2
Fore
SplineSet
147 -41 m 0
 135 -108 109 -180 39 -180 c 3
 -8 -180 -42 -167 -50 -161 c 1
 -38 -103 l 1
 -6 -112 4 -117 36 -117 c 3
 66 -117 76 -88 85 -48 c 0
 97 8 144 378 164 517 c 0
 174 584 200 656 270 656 c 3
 317 656 351 643 359 637 c 1
 347 582 l 1
 315 591 305 595 273 595 c 3
 243 595 228 542 223 501 c 0
 205 366 166 64 147 -41 c 0
58 320 m 1
 275 328 l 1
 277 274 l 1
 59 263 l 1
 58 320 l 1
EndSplineSet
Validated: 5
EndChar

StartChar: pi
Encoding: 372 960 306
Width: 370
VWidth: 0
Flags: HMW
LayerCount: 2
Fore
SplineSet
278 476 m 1
 283 296 291 165 316 6 c 1
 245 -6 l 1
 230 155 224 315 218 469 c 1
 278 476 l 1
20 494 m 1
 130 494 239 495 349 501 c 1
 350 442 l 1
 21 434 l 1
 20 494 l 1
142 475 m 1
 142 295 139 165 138 3 c 1
 67 -5 l 1
 79 164 82 314 82 468 c 1
 142 475 l 1
EndSplineSet
Validated: 5
EndChar

StartChar: dagger
Encoding: 375 8224 309
Width: 380
VWidth: 0
Flags: HMW
LayerCount: 2
Fore
SplineSet
213 494 m 1
 352 500 l 1
 353 446 l 1
 214 444 l 1
 221 0 l 1
 162 0 l 1
 163 443 l 1
 23 437 l 1
 23 494 l 1
 161 492 l 1
 155 648 l 1
 215 649 l 1
 213 494 l 1
EndSplineSet
Validated: 1
EndChar

StartChar: daggerdbl
Encoding: 376 8225 310
Width: 380
VWidth: 0
Flags: HMW
LayerCount: 2
Fore
SplineSet
215 207 m 1
 355 213 l 1
 355 156 l 1
 217 158 l 1
 223 2 l 1
 163 1 l 1
 165 156 l 1
 26 150 l 1
 25 204 l 1
 164 206 l 1
 163 443 l 1
 23 437 l 1
 23 494 l 1
 161 492 l 1
 155 648 l 1
 215 649 l 1
 213 494 l 1
 352 500 l 1
 353 446 l 1
 214 444 l 1
 215 207 l 1
EndSplineSet
Validated: 1
EndChar

StartChar: bullet
Encoding: 377 8226 311
Width: 292
VWidth: 0
Flags: HMW
LayerCount: 2
Fore
SplineSet
222 293 m 3
 222 228 187 207 146 207 c 3
 105 207 70 240 70 291 c 3
 70 349 102 376 148 376 c 3
 186 376 222 348 222 293 c 3
EndSplineSet
Validated: 1
EndChar

StartChar: perthousand
Encoding: 379 8240 313
Width: 874
VWidth: 0
Flags: HMW
LayerCount: 2
Fore
SplineSet
787 162 m 3
 787 247 769 278 737 278 c 3
 697 278 688 234 688 167 c 3
 688 103 701 47 738 47 c 3
 776 47 787 85 787 162 c 3
740 327 m 3
 824 327 844 237 844 157 c 3
 844 68 817 0 732 0 c 3
 671 0 631 58 631 160 c 3
 631 261 666 327 740 327 c 3
EndSplineSet
Refer: 87 37 N 1 0 0 1 0 0 2
Validated: 1
EndChar

StartChar: guilsinglleft
Encoding: 380 8249 314
Width: 238
VWidth: 0
Flags: HMW
LayerCount: 2
Fore
SplineSet
36 294 m 1
 139 470 l 1
 188 443 l 1
 97 294 l 1
 194 159 l 1
 146 127 l 1
 36 294 l 1
EndSplineSet
Validated: 1
EndChar

StartChar: guilsinglright
Encoding: 381 8250 315
Width: 242
VWidth: 0
Flags: HMW
LayerCount: 2
Fore
SplineSet
206 292 m 1
 103 118 l 1
 54 145 l 1
 145 292 l 1
 44 417 l 1
 92 455 l 1
 206 292 l 1
EndSplineSet
Validated: 1
EndChar

StartChar: fraction
Encoding: 382 8260 316
Width: 110
VWidth: 0
Flags: HMW
LayerCount: 2
Fore
SplineSet
-104 11 m 1
 -38 151 95 478 158 660 c 1
 214 639 l 1
 138 459 15 152 -51 -15 c 1
 -104 11 l 1
EndSplineSet
Validated: 1
EndChar

StartChar: uni20BA
Encoding: 383 8378 317
Width: 360
VWidth: 0
Flags: HMW
LayerCount: 2
Fore
SplineSet
-10 242 m 1
 96 273 l 1
 199 311 l 1
 213 260 l 1
 100 225 l 1
 5 190 l 1
 -10 242 l 1
-10 361 m 1
 96 392 l 1
 199 430 l 1
 213 379 l 1
 100 344 l 1
 5 309 l 1
 -10 361 l 1
130 54 m 1
 142 45 155 43 169 43 c 3
 227 43 276 63 276 228 c 1
 337 230 l 1
 337 73 281 -6 177 -6 c 3
 131 -6 105 0 70 19 c 1
 70 212 67 388 59 575 c 1
 125 586 l 1
 126 370 126 287 130 54 c 1
EndSplineSet
Validated: 5
EndChar

StartChar: uni20BD
Encoding: 384 8381 318
Width: 337
VWidth: 0
Flags: HMW
LayerCount: 2
Fore
SplineSet
228 140 m 1
 229 86 l 1
 147 85 81 86 8 81 c 1
 8 137 l 1
 80 137 149 137 228 140 c 1
91 263 m 25
 91 211 l 25
 8 209 l 25
 8 265 l 25
 91 263 l 25
59 570 m 1
 91 579 105 586 175 586 c 3
 273 586 315 528 315 414 c 3
 315 272 239 211 91 211 c 1
 91 263 l 1
 198 263 247 301 247 407 c 3
 247 489 225 545 122 525 c 1
 127 331 126 197 126 3 c 1
 64 -3 l 1
 71 190 68 377 59 570 c 1
EndSplineSet
Validated: 37
EndChar

StartChar: uni2113
Encoding: 385 8467 319
Width: 250
VWidth: 0
Flags: HMW
LayerCount: 2
Fore
SplineSet
85 632 m 1
 58 630 27 628 2 626 c 9
 0 688 l 17
 46 688 96 690 147 694 c 1
 147 524 148 177 153 120 c 0
 158 67 171 54 206 54 c 3
 217 54 233 56 243 60 c 9
 250 6 l 17
 229 -1 209 -5 193 -5 c 3
 129 -5 100 18 94 87 c 0
 89 152 89 510 85 632 c 1
EndSplineSet
Validated: 1
EndChar

StartChar: trademark
Encoding: 386 8482 320
Width: 609
VWidth: 0
Flags: HMW
LayerCount: 2
Fore
SplineSet
478 586 m 1
 464 500 451 422 440 351 c 1
 383 349 l 1
 371 413 342 515 328 579 c 1
 330 523 331 422 335 351 c 1
 283 348 l 1
 283 412 282 571 279 645 c 1
 291 647 353 649 365 651 c 1
 373 605 396 505 411 443 c 1
 424 508 435 602 439 647 c 1
 526 649 l 1
 530 586 531 435 539 353 c 1
 482 347 l 1
 482 411 480 522 478 586 c 1
40 645 m 1
 249 651 l 1
 250 602 l 1
 41 594 l 1
 40 645 l 1
168 623 m 1
 168 532 172 429 177 353 c 1
 122 345 l 1
 121 415 120 521 115 616 c 1
 168 623 l 1
EndSplineSet
Validated: 5
EndChar

StartChar: Omega
Encoding: 387 8486 321
Width: 380
VWidth: 0
Flags: HMW
LayerCount: 2
Fore
SplineSet
190 658 m 3
 312 658 331 536 331 367 c 3
 331 224 294 122 273 55 c 1
 295 56 315 57 349 61 c 1
 350 1 l 1
 218 0 l 1
 211 42 l 1
 243 111 264 195 264 365 c 3
 264 554 236 600 186 600 c 3
 126 600 111 539 111 367 c 3
 111 243 138 128 173 48 c 9
 164 0 l 25
 30 0 l 25
 32 57 l 25
 105 54 l 17
 86 108 46 229 46 374 c 3
 46 543 76 658 190 658 c 3
EndSplineSet
Validated: 1
EndChar

StartChar: estimated
Encoding: 388 8494 322
Width: 513
Flags: HMW
LayerCount: 2
Fore
SplineSet
113 233 m 1
 397 233 l 1
 397 336 l 2
 397 354 336 411 256 411 c 3
 174 411 113 352 113 333 c 2
 113 233 l 1
255 440 m 3
 363 440 480 354 480 205 c 1
 113 205 l 1
 113 103 l 2
 113 80 174 19 256 19 c 3
 314 19 365 43 400 88 c 1
 434 77 l 1
 393 25 328 -10 255 -10 c 3
 131 -10 30 90 30 215 c 3
 30 339 131 440 255 440 c 3
EndSplineSet
Validated: 1
EndChar

StartChar: partialdiff
Encoding: 389 8706 323
Width: 340
VWidth: 0
Flags: HMW
LayerCount: 2
Fore
SplineSet
231 434 m 1
 219 442 204 447 177 447 c 3
 125 447 92 380 92 208 c 3
 92 96 128 56 164 56 c 3
 204 56 239 88 239 253 c 3
 239 409 231 527 150 673 c 1
 198 700 l 1
 273 580 298 445 298 252 c 3
 298 58 232 -2 157 -2 c 3
 82 -2 30 46 30 242 c 3
 30 396 79 496 183 496 c 3
 202 496 218 493 232 487 c 1
 231 434 l 1
EndSplineSet
Validated: 5
EndChar

StartChar: Delta
Encoding: 390 8710 324
Width: 323
VWidth: 0
Flags: HMW
LayerCount: 2
Fore
SplineSet
75 54 m 1
 245 56 l 1
 220 195 174 417 153 531 c 1
 133 412 98 198 75 54 c 1
10 40 m 1
 41 168 82 402 118 646 c 1
 195 652 l 1
 212 526 275 208 311 45 c 1
 305 3 l 1
 16 -1 l 1
 10 40 l 1
EndSplineSet
Validated: 1
EndChar

StartChar: product
Encoding: 391 8719 325
Width: 489
VWidth: 0
Flags: HMW
LayerCount: 2
Fore
SplineSet
409 820 m 1
 409 553 416 70 426 -174 c 1
 351 -180 l 1
 349 65 347 515 337 789 c 1
 409 820 l 1
63 814 m 1
 409 820 l 1
 380 758 l 1
 84 757 l 1
 63 814 l 1
136 805 m 1
 139 538 145 69 154 -175 c 1
 79 -177 l 1
 78 68 77 540 63 814 c 1
 136 805 l 1
EndSplineSet
Validated: 5
EndChar

StartChar: summation
Encoding: 392 8721 326
Width: 389
VWidth: 0
Flags: HMW
LayerCount: 2
Fore
SplineSet
110 -116 m 1
 157 -116 308 -114 342 -108 c 1
 340 -179 l 1
 37 -180 l 1
 31 -130 l 1
 67 -43 166 254 184 335 c 1
 167 383 65 713 45 776 c 1
 54 816 l 1
 338 820 l 1
 336 758 l 1
 292 758 178 758 127 759 c 1
 141 698 236 400 258 344 c 1
 234 252 130 -53 110 -116 c 1
EndSplineSet
Validated: 1
EndChar

StartChar: radical
Encoding: 395 8730 329
Width: 420
VWidth: 0
Flags: HMW
LayerCount: 2
Fore
SplineSet
68 291 m 1
 22 284 l 1
 13 336 l 1
 117 355 l 1
 182 78 l 1
 240 319 295 538 360 820 c 1
 420 820 l 1
 348 562 278 264 219 4 c 1
 141 -2 l 1
 68 291 l 1
EndSplineSet
Validated: 1
EndChar

StartChar: infinity
Encoding: 396 8734 330
Width: 511
VWidth: 0
Flags: HMW
LayerCount: 2
Fore
SplineSet
219 295 m 0
 193 357 173 395 141 395 c 3
 101 395 85 364 85 297 c 3
 85 226 110 190 147 190 c 3
 179 190 207 212 219 295 c 1
 263 283 l 1
 245 190 221 138 138 138 c 3
 71 138 30 194 30 291 c 3
 30 392 70 449 149 449 c 3
 233 449 272 350 293 294 c 0
 313 241 338 192 370 192 c 3
 410 192 426 223 426 290 c 3
 426 361 401 397 364 397 c 3
 330 397 308 371 293 294 c 1
 246 306 l 1
 270 404 304 449 373 449 c 3
 440 449 481 393 481 296 c 3
 481 195 441 138 362 138 c 3
 278 138 242 240 219 295 c 0
EndSplineSet
Validated: 5
EndChar

StartChar: integral
Encoding: 397 8747 331
Width: 325
VWidth: 0
Flags: HMW
LayerCount: 2
Fore
SplineSet
215 -33 m 3
 215 -153 151 -180 85 -180 c 3
 58 -180 27 -176 0 -171 c 1
 10 -107 l 1
 40 -114 59 -116 79 -116 c 3
 132 -116 148 -108 148 -24 c 3
 148 128 127 506 127 673 c 3
 127 793 184 820 247 820 c 3
 274 820 298 817 325 811 c 1
 315 749 l 1
 285 755 273 758 253 758 c 3
 206 758 194 748 194 664 c 3
 194 512 215 134 215 -33 c 3
EndSplineSet
Validated: 1
EndChar

StartChar: approxequal
Encoding: 398 8776 332
Width: 380
VWidth: 0
Flags: HMW
LayerCount: 2
Fore
SplineSet
324 421 m 1
 363 383 l 1
 340 351 301 312 253 312 c 3
 186 312 162 367 119 367 c 3
 94 367 76 346 50 315 c 1
 13 354 l 1
 38 385 78 425 121 425 c 3
 187 425 201 370 252 370 c 3
 283 370 301 391 324 421 c 1
327 278 m 1
 366 240 l 1
 343 208 304 169 256 169 c 3
 189 169 165 224 122 224 c 3
 97 224 79 203 53 172 c 1
 16 211 l 1
 41 242 81 282 124 282 c 3
 190 282 204 227 255 227 c 3
 286 227 304 248 327 278 c 1
EndSplineSet
Validated: 1
EndChar

StartChar: notequal
Encoding: 399 8800 333
Width: 380
VWidth: 0
Flags: HMW
LayerCount: 2
Fore
SplineSet
131 93 m 1
 152 192 180 370 192 499 c 1
 243 496 l 1
 223 373 200 204 183 85 c 1
 131 93 l 1
EndSplineSet
Refer: 93 61 N 1 0 0 1 0 0 2
Validated: 5
EndChar

StartChar: lessequal
Encoding: 400 8804 334
Width: 380
VWidth: 0
Flags: HMW
LayerCount: 2
Fore
SplineSet
100 294 m 1
 243 465 l 1
 287 423 l 1
 166 294 l 1
 291 177 l 1
 250 133 l 1
 100 294 l 1
301 53 m 1
 302 3 l 1
 250 2 166 2 104 -3 c 1
 104 50 l 1
 157 50 244 50 301 53 c 1
EndSplineSet
Validated: 1
EndChar

StartChar: greaterequal
Encoding: 401 8805 335
Width: 380
VWidth: 0
Flags: HMW
LayerCount: 2
Fore
SplineSet
282 53 m 1
 283 3 l 1
 231 2 147 2 85 -3 c 1
 85 50 l 1
 138 50 225 50 282 53 c 1
280 298 m 1
 139 127 l 1
 95 168 l 1
 213 295 l 1
 86 413 l 1
 128 459 l 1
 280 298 l 1
EndSplineSet
Validated: 1
EndChar

StartChar: lozenge
Encoding: 402 9674 336
Width: 330
VWidth: 0
Flags: HMW
LayerCount: 2
Fore
SplineSet
237 313 m 1
 210 393 187 470 158 560 c 1
 141 490 116 412 90 329 c 1
 117 249 144 178 171 92 c 1
 193 164 215 226 237 313 c 1
25 314 m 1
 66 428 94 499 130 646 c 1
 192 652 l 1
 227 526 262 429 305 323 c 1
 266 209 229 117 199 2 c 1
 137 -4 l 1
 109 107 72 199 25 314 c 1
EndSplineSet
Validated: 1
EndChar

StartChar: fi
Encoding: 403 64257 337
Width: 418
VWidth: 0
Flags: HMW
LayerCount: 2
Fore
SplineSet
70 553 m 3
 70 651 119 692 205 692 c 3
 252 692 297 682 315 673 c 1
 303 614 l 1
 271 625 240 631 208 631 c 3
 159 631 131 604 131 537 c 3
 131 436 138 179 148 2 c 1
 84 -4 l 1
 77 187 70 461 70 553 c 3
10 489 m 1
 227 497 l 1
 229 443 l 1
 11 432 l 1
 10 489 l 1
365 501 m 1
 368 308 370 194 378 4 c 1
 309 -7 l 1
 311 160 306 330 299 497 c 1
 365 501 l 1
EndSplineSet
Validated: 37
LCarets2: 1 0
Ligature2: "'dlig' Discretionary Ligatures lookup 0-1" f i
EndChar

StartChar: fl
Encoding: 404 64258 338
Width: 407
VWidth: 0
Flags: HMW
LayerCount: 2
Fore
SplineSet
348 667 m 1
 348 413 358 248 367 4 c 1
 298 -7 l 1
 297 238 295 433 284 621 c 1
 255 629 234 633 202 633 c 3
 146 633 131 604 131 537 c 3
 131 436 138 179 148 2 c 1
 84 -4 l 1
 77 187 70 461 70 553 c 3
 70 651 116 692 206 692 c 3
 253 692 302 686 348 667 c 1
10 489 m 1
 227 497 l 1
 229 443 l 1
 11 432 l 1
 10 489 l 1
EndSplineSet
Validated: 5
LCarets2: 1 0
Ligature2: "'dlig' Discretionary Ligatures lookup 0-1" f l
EndChar

StartChar: ff
Encoding: 405 64256 339
Width: 482
VWidth: 0
Flags: HMW
LayerCount: 2
Fore
SplineSet
70 553 m 3
 70 651 106 692 176 692 c 3
 223 692 263 679 271 673 c 1
 259 618 l 1
 227 627 211 631 179 631 c 3
 149 631 131 604 131 537 c 3
 131 436 138 179 148 2 c 1
 84 -4 l 1
 77 187 70 461 70 553 c 3
311 553 m 3
 311 651 347 692 417 692 c 3
 464 692 504 679 512 673 c 1
 500 618 l 1
 468 627 452 631 420 631 c 3
 390 631 372 604 372 537 c 3
 372 436 379 179 389 2 c 1
 325 -4 l 1
 318 187 311 461 311 553 c 3
468 497 m 1
 470 443 l 1
 11 432 l 1
 10 489 l 1
 468 497 l 1
EndSplineSet
Validated: 5
Ligature2: "'dlig' Discretionary Ligatures lookup 0-1" f f
EndChar

StartChar: ffi
Encoding: 406 64259 340
Width: 659
VWidth: 0
Flags: HMW
LayerCount: 2
Fore
SplineSet
311 553 m 3
 311 651 360 692 446 692 c 3
 493 692 538 682 556 673 c 1
 544 614 l 1
 512 625 481 631 449 631 c 3
 400 631 372 604 372 537 c 3
 372 436 379 179 389 2 c 1
 325 -4 l 1
 318 187 311 461 311 553 c 3
606 501 m 1
 609 308 611 194 619 4 c 1
 550 -7 l 1
 552 160 547 330 540 497 c 1
 606 501 l 1
70 553 m 3
 70 651 106 692 176 692 c 3
 223 692 263 679 271 673 c 1
 259 618 l 1
 227 627 211 631 179 631 c 3
 149 631 131 604 131 537 c 3
 131 436 138 179 148 2 c 1
 84 -4 l 1
 77 187 70 461 70 553 c 3
468 497 m 1
 470 443 l 1
 11 432 l 1
 10 489 l 1
 468 497 l 1
EndSplineSet
Validated: 37
LCarets2: 2 0 0
Ligature2: "'dlig' Discretionary Ligatures lookup 0-1" f f i
EndChar

StartChar: ffl
Encoding: 407 64260 341
Width: 648
VWidth: 0
Flags: HMW
LayerCount: 2
Fore
SplineSet
589 667 m 1
 589 413 599 248 608 4 c 1
 539 -7 l 1
 538 238 536 433 525 621 c 1
 496 629 475 633 443 633 c 3
 387 633 372 604 372 537 c 3
 372 436 379 179 389 2 c 1
 325 -4 l 1
 318 187 311 461 311 553 c 3
 311 651 357 692 447 692 c 3
 494 692 543 686 589 667 c 1
70 553 m 3
 70 651 106 692 176 692 c 3
 223 692 263 679 271 673 c 1
 259 618 l 1
 227 627 211 631 179 631 c 3
 149 631 131 604 131 537 c 3
 131 436 138 179 148 2 c 1
 84 -4 l 1
 77 187 70 461 70 553 c 3
468 497 m 1
 470 443 l 1
 11 432 l 1
 10 489 l 1
 468 497 l 1
EndSplineSet
Validated: 5
LCarets2: 2 0 0
Ligature2: "'dlig' Discretionary Ligatures lookup 0-1" f f l
EndChar

StartChar: brokenbar
Encoding: 414 166 348
Width: 200
VWidth: 0
Flags: HMW
LayerCount: 2
Fore
SplineSet
128 252 m 1
 129 113 132 -22 136 -137 c 1
 76 -139 l 1
 76 -23 76 110 75 248 c 1
 128 252 l 1
74 352 m 1
 73 473 70 594 64 706 c 1
 123 707 l 1
 124 597 125 476 126 354 c 1
 74 352 l 1
EndSplineSet
Validated: 1
EndChar

StartChar: currency
Encoding: 415 164 350
Width: 423
VWidth: 0
Flags: HMW
LayerCount: 2
Fore
SplineSet
20 43 m 1
 60 79 91 109 122 146 c 1
 157 114 l 1
 130 78 109 45 76 0 c 1
 20 43 l 1
398 46 m 1
 344 0 l 1
 314 45 294 78 264 114 c 1
 299 146 l 1
 332 109 362 80 398 46 c 1
403 453 m 1
 367 415 334 387 301 350 c 1
 266 382 l 1
 296 418 314 447 347 496 c 1
 403 453 l 1
23 453 m 1
 79 496 l 1
 109 446 128 418 158 382 c 1
 123 350 l 1
 90 387 59 415 23 453 c 1
277 246 m 3
 277 341 243 363 211 363 c 3
 171 363 140 336 140 251 c 3
 140 161 175 131 212 131 c 3
 254 131 277 169 277 246 c 3
214 412 m 3
 300 412 337 350 337 245 c 3
 337 135 292 84 203 84 c 3
 137 84 85 125 85 245 c 3
 85 361 134 412 214 412 c 3
EndSplineSet
Validated: 5
EndChar

StartChar: uni0328
Encoding: 416 808 351
Width: 349
VWidth: 0
Flags: HMW
AnchorPoint: "bottom" 189 0 mark 0
LayerCount: 2
Fore
SplineSet
230 0 m 1
 184 -24 168 -45 168 -84 c 3
 168 -115 190 -130 237 -136 c 9
 233 -180 l 17
 150 -177 110 -147 110 -92 c 3
 110 -48 132 -5 206 31 c 1
 230 0 l 1
EndSplineSet
Validated: 1
EndChar

StartChar: uni0326
Encoding: 417 806 352
Width: 0
VWidth: 0
Flags: HMW
AnchorPoint: "bottom" -95 0 mark 0
LayerCount: 2
Fore
SplineSet
-65 -39 m 1
 -68 -92 -80 -131 -99 -180 c 1
 -142 -166 l 1
 -132 -125 -127 -89 -125 -35 c 1
 -65 -39 l 1
EndSplineSet
Validated: 1
EndChar

StartChar: Pi
Encoding: 418 928 353
Width: 351
VWidth: 0
Flags: HMW
LayerCount: 2
Fore
SplineSet
291 651 m 1
 291 384 296 245 306 1 c 1
 236 -5 l 1
 234 240 234 346 224 620 c 1
 291 651 l 1
45 645 m 1
 291 651 l 1
 262 592 l 1
 66 591 l 1
 45 645 l 1
113 636 m 1
 116 369 120 244 129 0 c 1
 59 -2 l 1
 58 243 59 371 45 645 c 1
 113 636 l 1
EndSplineSet
Validated: 5
EndChar

StartChar: Sigma
Encoding: 419 931 354
Width: 290
VWidth: 0
Flags: HMW
LayerCount: 2
Fore
SplineSet
97 58 m 1
 144 58 228 61 262 64 c 1
 260 0 l 1
 28 -1 l 1
 25 39 l 1
 61 126 96 254 114 335 c 1
 97 383 44 550 24 613 c 1
 30 647 l 1
 243 650 l 1
 241 593 l 1
 197 593 120 594 98 595 c 1
 112 534 158 400 180 344 c 1
 156 252 117 121 97 58 c 1
EndSplineSet
Validated: 1
EndChar

StartChar: uni2074
Encoding: 420 8308 355
Width: 232
VWidth: 0
Flags: HMW
LayerCount: 2
Fore
SplineSet
115 584 m 1
 95 512 85 491 67 441 c 1
 131 441 193 443 210 445 c 1
 210 395 l 1
 23 394 l 1
 13 414 l 1
 44 485 76 573 93 649 c 1
 162 646 l 17
 163 535 166 447 172 348 c 1
 114 339 l 1
 115 431 115 523 115 584 c 1
EndSplineSet
Validated: 5
EndChar

StartChar: ft
Encoding: 432 -1 367
Width: 480
VWidth: 0
Flags: MW
LayerCount: 2
Fore
SplineSet
477 499 m 1
 480 445 l 1
 11 432 l 1
 10 489 l 1
 477 499 l 1
368 617 m 1
 372 308 374 248 383 4 c 1
 314 -7 l 1
 313 238 315 342 301 607 c 1
 368 617 l 1
70 553 m 3
 70 651 106 692 176 692 c 3
 223 692 263 681 271 675 c 1
 259 620 l 1
 227 628 211 631 179 631 c 3
 149 631 131 604 131 537 c 3
 131 436 138 179 148 2 c 1
 84 -4 l 1
 77 187 70 461 70 553 c 3
EndSplineSet
Validated: 5
LCarets2: 1 0
Ligature2: "'dlig' Discretionary Ligatures lookup 0-1" f t
EndChar

StartChar: tt
Encoding: 433 -1 368
Width: 520
VWidth: 0
Flags: MW
LayerCount: 2
Fore
SplineSet
517 495 m 1
 520 441 l 1
 1 430 l 1
 0 487 l 1
 517 495 l 1
408 618 m 1
 411 309 414 244 422 0 c 1
 353 -11 l 1
 352 234 355 340 341 614 c 1
 408 618 l 1
164 623 m 1
 168 314 170 248 179 4 c 1
 110 -7 l 1
 109 238 111 342 97 616 c 1
 164 623 l 1
EndSplineSet
Validated: 5
Ligature2: "'dlig' Discretionary Ligatures lookup 0-1" t t
EndChar

StartChar: .notdef
Encoding: 434 -1 369
Width: 500
VWidth: 0
Flags: HMW
LayerCount: 2
Fore
SplineSet
117 634 m 1
 120 399 120 275 127 56 c 1
 385 57 l 1
 383 279 385 391 377 635 c 1
 117 634 l 1
443 694 m 1
 443 428 445 245 455 3 c 1
 59 -3 l 1
 58 242 61 414 48 688 c 1
 443 694 l 1
EndSplineSet
Validated: 1
EndChar

StartChar: knA
Encoding: 435 3205 370
Width: 446
VWidth: 0
Flags: HMW
LayerCount: 2
Back
SplineSet
116 546 m 4
 105 546 84 539 84 463 c 4
 84 312 107 288 130 288 c 4
 146 288 153 320 150 417 c 4
 147 517 144 549 116 546 c 4
226 0 m 4
 133 0 40 67 37 204 c 4
 36 264 35 327 35 379 c 6
 35 446 l 5
 35 487 l 6
 35 538 60 594 112 594 c 4
 187 594 207 528 207 417 c 4
 207 310 193 238 132 238 c 4
 111 238 93 248 84 259 c 5
 85 240 83 227 84 199 c 4
 87 106 149 55 223 55 c 4
 304 55 349 125 354 226 c 4
 359 349 357 380 355 475 c 4
 354 495 353 543 326 543 c 4
 306 543 294 514 294 394 c 4
 294 316 298 301 303 250 c 4
 306 215 305 170 268 170 c 4
 247 170 161 166 131 166 c 5
 131 186 131 191 136 211 c 5
 223 212 l 6
 256 212 260 217 255 251 c 4
 250 288 239 348 239 397 c 4
 239 506 247 594 326 594 c 4
 365 594 385 571 396 544 c 4
 405 521 406 496 407 472 c 4
 409 410 411 361 411 298 c 6
 411 227 l 6
 411 95 332 0 226 0 c 4
EndSplineSet
Fore
SplineSet
197 0 m 256
NamedP: "J+ARoA+QAA"
 103 0 11 68 8 204 c 256
 5 324 6 456 6 487 c 256
 6 537 31 594 83 594 c 256
 158 594 178 528 178 417 c 256
 178 311 164 237 103 238 c 256
 82 238 64 249 55 259 c 257
 56 240 54 227 55 199 c 256
 58 106 120 55 194 55 c 256
 275 55 320 125 325 226 c 256
 331 348 328 381 326 475 c 256
 325 497 325 542 297 543 c 256
 277 543 265 514 265 394 c 256
 265 318 268 300 274 250 c 256
 278 215 275 170 239 170 c 256
 219 170 131 166 102 166 c 257
 103 188 103 189 107 211 c 257
 194 212 l 258
 227 213 231 216 226 251 c 256
 221 288 210 348 210 397 c 256
 210 506 218 594 297 594 c 256
 336 594 356 571 367 544 c 256
 376 521 377 496 378 472 c 256
 381 389 382 332 382 227 c 256
 382 94 303 0 197 0 c 256
NamedP: "J+ARoA+QAA"
87 546 m 256
 76 545 55 540 55 463 c 256
 55 312 78 288 101 288 c 256
 117 288 123 320 121 417 c 256
 119 517 114 548 87 546 c 256
EndSplineSet
Validated: 33
EndChar

StartChar: knAA
Encoding: 436 3206 371
Width: 433
VWidth: 0
Flags: HMW
LayerCount: 2
Back
SplineSet
114 545 m 4
 105 545 87 544 87 450 c 4
 87 315 109 294 122 294 c 4
 136 294 151 305 151 401 c 4
 151 522 138 545 114 545 c 4
323 543 m 4
 294 543 287 489 287 450 c 6
 287 419 l 6
 287 383 303 334 316 316 c 5
 332 334 348 402 348 441 c 6
 348 441 348 449 348 464 c 4
 348 496 342 543 323 543 c 4
353 283 m 5
 378 235 380 208 380 175 c 4
 380 80 310 0 206 0 c 4
 115 0 37 77 33 205 c 4
 29 322 31 350 31 486 c 4
 31 554 69 594 110 594 c 4
 191 594 208 528 208 419 c 4
 208 306 187 244 126 244 c 4
 115 244 98 249 87 260 c 5
 88 243 87 228 87 205 c 4
 87 113 140 57 207 57 c 4
 264 57 326 109 326 172 c 4
 326 187 324 202 320 225 c 5
 305 201 278 168 231 168 c 6
 116 168 l 5
 116 218 l 5
 233 218 l 6
 260 218 285 252 293 269 c 5
 264 295 234 362 234 418 c 4
 234 566 267 594 322 594 c 4
 394 594 402 517 402 460 c 4
 402 376 373 311 353 283 c 5
EndSplineSet
Fore
SplineSet
326 283 m 257
NamedP: "vP+ARoA+QAA"
 351 235 353 208 353 175 c 256
 353 80 282 0 179 0 c 256
 87 0 10 78 6 205 c 256
 2 322 4 349 4 486 c 256
 4 553 42 594 83 594 c 256
 164 594 181 528 181 419 c 256
 181 306 160 244 99 244 c 256
 88 244 71 249 60 260 c 257
 61 243 60 227 60 205 c 256
 60 113 113 57 180 57 c 256
 237 57 299 109 299 172 c 256
 299 187 297 202 293 225 c 257
 279 201 250 168 204 168 c 258
 89 168 l 257
 89 218 l 257
 206 218 l 258
 233 218 257 252 266 269 c 257
 237 295 207 363 207 418 c 256
 207 566 240 594 295 594 c 256
 367 594 375 517 375 460 c 256
 375 376 346 311 326 283 c 257
NamedP: "vP+ARoA+QAA"
296 543 m 256
 255 543 260 447 260 419 c 256
 260 383 277 334 289 316 c 257
 305 336 321 401 321 441 c 256
 321 459 323 543 296 543 c 256
87 545 m 256
 78 545 60 544 60 450 c 256
 60 315 82 294 95 294 c 256
 109 294 124 305 124 401 c 256
 124 522 111 545 87 545 c 256
EndSplineSet
Validated: 33
EndChar

StartChar: knI
Encoding: 437 3207 372
Width: 476
VWidth: 0
Flags: HMW
LayerCount: 2
Fore
SplineSet
412 7 m 257
NamedP: "+BM0BGgD5"
 348 147 260 229 157 229 c 256
 73 229 20 175 20 112 c 256
 20 58 88 2 163 1 c 256
 266 0 390 83 390 376 c 256
 390 541 362 595 295 595 c 256
 238 595 189 523 182 415 c 257
 177 502 154 595 93 595 c 256
 -3 595 -4 421 9 338 c 257
 66 346 l 257
 52 422 51 543 96 543 c 256
 140 543 147 403 150 350 c 257
 214 357 l 257
 214 429 254 543 295 543 c 256
 323 543 336 531 336 368 c 256
 336 77 217 52 161 52 c 256
 129 52 68 77 66 117 c 256
 65 141 103 178 159 178 c 256
 213 178 299 141 355 -2 c 257
 412 7 l 257
NamedP: "+BM0BGgD5"
EndSplineSet
Validated: 37
EndChar

StartChar: knII
Encoding: 438 3208 373
Width: 592
VWidth: 0
Flags: HMW
LayerCount: 2
Fore
SplineSet
469 12 m 257
NamedP: "+BU0BGgD5"
 462 40 428 354 423 379 c 256
 413 430 427 492 455 492 c 256
 490 492 480 438 475 415 c 256
 464 362 421 328 352 328 c 256
 323 328 161 327 58 327 c 256
 23 327 5 327 5 327 c 257
 7 274 l 257
 20 274 331 286 356 286 c 256
 439 287 503 326 521 423 c 256
 531 478 510 531 454 531 c 256
 383 531 367 436 375 378 c 256
 393 249 410 25 415 4 c 257
 469 12 l 257
NamedP: "+BU0BGgD5"
433 672 m 257
 412 667 389 667 380 666 c 257
 383 626 353 598 297 595 c 256
 254 592 94 590 20 590 c 257
 21 536 l 257
 65 540 267 545 300 546 c 256
 406 548 433 622 433 672 c 257
277 290 m 256
 277 110 259 42 203 42 c 256
 131 42 103 113 103 301 c 256
 103 472 116 543 184 543 c 256
 241 543 277 499 277 290 c 256
329 263 m 256
 329 468 312 588 192 588 c 256
 81 588 51 507 51 291 c 256
 51 85 89 0 186 0 c 256
 312 0 329 116 329 263 c 256
EndSplineSet
Validated: 37
EndChar

StartChar: knU
Encoding: 439 3209 374
Width: 586
VWidth: 0
Flags: HMW
LayerCount: 2
Fore
SplineSet
447 586 m 257
NamedP: "+BFQBGgD5"
 448 442 451 372 452 225 c 256
 452 121 448 43 407 43 c 256
 372 43 369 111 369 203 c 256
 369 263 373 232 369 352 c 256
 365 479 359 561 292 562 c 256
 226 563 201 469 201 349 c 258
 201 224 l 258
 201 120 200 43 135 43 c 256
 83 43 60 110 56 202 c 256
 55 234 55 257 52 284 c 257
 59 260 77 240 98 240 c 256
 147 240 169 279 171 418 c 256
 173 530 157 593 83 593 c 256
 48 593 6 564 8 480 c 257
 5 339 4 322 8 203 c 256
 12 76 54 0 133 0 c 256
 236 0 254 93 254 226 c 258
 254 349 l 258
 254 453 270 517 290 517 c 256
 311 517 316 450 316 353 c 256
 316 321 314 279 315 204 c 256
 318 77 344 0 404 0 c 256
 477 0 507 93 507 226 c 256
 507 352 510 477 511 602 c 257
 496 598 466 591 447 586 c 257
NamedP: "+BFQBGgD5"
126 405 m 256
 125 310 122 289 101 289 c 256
 73 289 54 312 54 491 c 257
 55 530 72 554 87 555 c 256
 119 558 127 499 126 405 c 256
EndSplineSet
Validated: 41
EndChar

StartChar: knUU
Encoding: 440 3210 375
Width: 760
VWidth: 0
Flags: HMW
LayerCount: 2
Fore
SplineSet
133 0 m 256
NamedP: "+BpYBGgD5"
 236 0 251 90 251 223 c 258
 251 346 l 258
 251 450 270 517 290 517 c 256
 311 517 316 450 316 353 c 256
 316 321 314 279 315 204 c 256
 318 77 344 0 404 0 c 256
 476 0 498 93 498 226 c 258
 498 377 l 258
 498 469 526 529 560 529 c 256
 625 529 628 389 628 192 c 256
 628 91 623 47 596 47 c 256
 561 47 568 101 568 139 c 256
 568 226 608 254 643 232 c 257
 641 238 641 266 641 272 c 257
 602 303 522 258 522 130 c 256
 522 62 548 0 594 0 c 256
 665 0 674 85 674 203 c 256
 674 397 673 575 560 575 c 256
 503 575 445 514 445 363 c 256
 445 327 445 261 445 225 c 256
 445 121 450 43 407 43 c 256
 372 43 366 111 366 203 c 256
 366 250 366 319 366 352 c 256
 366 479 349 562 292 562 c 256
 226 562 201 469 201 349 c 258
 201 224 l 258
 201 120 200 43 135 43 c 256
 83 43 60 110 56 202 c 256
 55 234 55 257 52 284 c 257
 59 260 77 240 98 240 c 256
 147 240 169 279 171 418 c 256
 173 530 157 593 83 593 c 256
 48 593 6 564 8 480 c 257
 5 339 4 322 8 203 c 256
 12 76 54 0 133 0 c 256
NamedP: "+BpYBGgD5"
126 405 m 256
 125 310 122 289 101 289 c 256
 73 289 54 312 54 491 c 257
 55 530 72 554 87 555 c 256
 119 558 127 499 126 405 c 256
EndSplineSet
Validated: 37
EndChar

StartChar: knvR
Encoding: 441 3211 376
Width: 649
VWidth: 0
Flags: HMW
LayerCount: 2
Fore
SplineSet
144 118 m 256
NamedP: "+BxYBGgD5"
 146 160 130 215 95 215 c 256
 58 215 49 169 49 133 c 256
 49 111 55 48 104 48 c 256
 134 48 143 89 144 118 c 256
NamedP: "+BxYBGgD5"
143 532 m 257
 134 537 130 544 116 544 c 256
 72 544 63 487 63 458 c 256
 63 391 77 370 101 370 c 256
 127 370 152 423 143 532 c 257
297 0 m 256
 242 0 213 77 203 119 c 257
 192 81 163 0 106 0 c 256
 33 0 5 79 5 127 c 256
 5 204 31 259 93 259 c 256
 174 259 176 171 175 161 c 257
 186 202 199 285 199 320 c 256
 199 360 196 428 181 495 c 257
 188 376 140 321 100 321 c 256
 69 321 12 338 12 459 c 256
 12 508 40 595 121 595 c 256
 201 595 247 477 245 317 c 256
 244 273 233 216 228 193 c 257
 229 172 252 48 293 48 c 256
 357 48 351 146 351 261 c 256
 351 343 340 507 333 546 c 257
 320 545 307 544 293 544 c 257
 292 595 l 257
 308 595 349 595 392 598 c 256
 448 601 461 627 461 665 c 257
 470 666 493 666 514 671 c 257
 514 621 500 564 395 552 c 258
 386 551 l 257
 390 503 401 371 401 263 c 256
 401 182 405 0 297 0 c 256
559 227 m 256
 555 88 513 0 446 0 c 256
 401 0 379 27 362 59 c 257
 390 110 l 257
 394 81 415 47 444 47 c 256
 498 47 504 196 504 226 c 256
 504 261 506 533 504 559 c 257
 523 564 553 571 568 575 c 257
 570 542 560 271 559 227 c 256
EndSplineSet
Validated: 37
EndChar

StartChar: knvRR
Encoding: 442 3296 377
Width: 585
VWidth: 0
Flags: HMW
LayerCount: 2
Fore
SplineSet
267 58 m 256
NamedP: "qW+ARoA+QAA"
 234 58 192 72 192 111 c 256
 192 209 329 206 382 377 c 256
 422 508 357 595 288 595 c 256
 218 595 189 520 192 410 c 257
 187 490 172 595 104 595 c 256
 -2 595 -4 421 12 338 c 257
 74 346 l 257
 48 433 57 543 108 543 c 256
 158 543 156 403 159 350 c 257
 230 357 l 257
 225 437 230 543 288 543 c 256
 318 543 362 490 325 382 c 256
 275 235 136 234 136 110 c 256
 136 30 205 0 260 0 c 256
 329 0 486 65 501 337 c 256
 506 428 506 449 511 582 c 257
 496 578 466 571 447 566 c 257
 447 423 447 382 446 335 c 256
 441 95 308 58 267 58 c 256
NamedP: "qW+ARoA+QAA"
EndSplineSet
Validated: 41
EndChar

StartChar: knvL
Encoding: 443 3212 378
Width: 544
VWidth: 0
Flags: HMW
LayerCount: 2
Fore
SplineSet
377 341 m 256
NamedP: "+B5IBGgD5"
 377 146 344 60 287 59 c 256
 238 58 213 175 218 227 c 257
 153 227 l 257
 154 107 130 59 98 59 c 256
 64 59 49 175 86 235 c 257
 24 244 l 257
 -3 199 -6 1 102 1 c 256
 156 1 183 55 188 131 c 257
 193 26 258 0 286 0 c 256
 369 1 442 63 442 324 c 256
 442 579 355 662 235 662 c 256
 206 662 182 648 166 640 c 257
 184 591 l 257
 199 596 222 607 243 607 c 256
 318 607 377 533 377 341 c 256
NamedP: "+B5IBGgD5"
EndSplineSet
Validated: 41
EndChar

StartChar: knvLL
Encoding: 444 3297 379
Width: 544
VWidth: 0
Flags: HMW
LayerCount: 2
Fore
SplineSet
166 639 m 257
NamedP: "+ARoA+QAA"
 166 588 139 540 112 540 c 256
 78 540 67 594 75 647 c 257
 22 643 l 257
 14 540 65 501 111 500 c 256
 162 499 216 560 216 628 c 257
 166 639 l 257
NamedP: "+ARoA+QAA"
377 341 m 256
 377 146 344 60 287 59 c 256
 238 58 213 175 218 227 c 257
 153 227 l 257
 154 107 130 59 98 59 c 256
 64 59 49 175 86 235 c 257
 24 244 l 257
 -3 199 -6 1 102 1 c 256
 156 1 183 55 188 131 c 257
 193 26 258 0 286 0 c 256
 369 1 442 63 442 324 c 256
 442 579 355 662 235 662 c 256
 206 662 182 648 166 640 c 257
 184 591 l 257
 199 596 222 607 243 607 c 256
 318 607 377 533 377 341 c 256
EndSplineSet
Validated: 37
EndChar

StartChar: knE
Encoding: 445 3214 380
Width: 544
VWidth: 0
Flags: HMW
LayerCount: 2
Fore
SplineSet
397 342 m 256
NamedP: "+B1sBGgD5"
 399 134 370 58 306 58 c 256
 258 58 233 170 238 227 c 257
 174 228 l 257
 171 174 169 59 119 59 c 256
 77 59 63 180 114 239 c 257
 52 247 l 257
 9 184 14 1 120 1 c 256
 173 1 203 57 208 131 c 257
 213 31 272 0 306 -1 c 256
 414 -3 463 93 462 325 c 256
 462 433 448 591 337 594 c 256
 247 597 209 503 209 410 c 257
 204 490 189 595 102 595 c 256
 -4 595 -6 419 10 338 c 257
 72 346 l 257
 46 432 55 543 106 543 c 256
 150 543 174 403 177 350 c 257
 248 357 l 257
 251 434 282 544 331 544 c 256
 394 544 396 430 397 342 c 256
NamedP: "+B1sBGgD5"
EndSplineSet
Validated: 41
EndChar

StartChar: knEE
Encoding: 446 3215 381
Width: 486
VWidth: 0
Flags: HMW
LayerCount: 2
Fore
SplineSet
342 231 m 257
NamedP: "+AJ4BGgD5"
 373 142 363 57 320 57 c 256
 269 57 257 173 254 227 c 257
 190 227 l 257
 193 167 171 57 135 58 c 256
 94 59 78 130 81 182 c 256
 89 317 243 332 243 472 c 256
 243 553 190 596 138 596 c 256
 52 596 27 528 30 477 c 257
 32 477 85 482 86 483 c 257
 86 515 102 543 135 543 c 256
 171 543 187 516 187 471 c 256
 187 369 37 340 29 179 c 256
 26 109 66 0 139 0 c 256
 166 0 212 15 225 132 c 257
 230 57 270 0 323 0 c 256
 430 0 426 148 404 239 c 257
 342 231 l 257
NamedP: "+AJ4BGgD5"
EndSplineSet
Validated: 41
EndChar

StartChar: knAI
Encoding: 447 3216 382
Width: 487
VWidth: 0
Flags: HMW
LayerCount: 2
Fore
SplineSet
297 633 m 257
NamedP: "+4RoA+QAA"
 297 646 282 728 202 724 c 256
 105 720 96 604 120 545 c 257
 175 546 l 257
 140 614 166 672 206 672 c 256
 233 672 244 653 246 638 c 257
 248 630 249 626 249 626 c 257
 297 633 l 257
NamedP: "+4RoA+QAA"
342 231 m 257
 373 142 363 57 320 57 c 256
 269 57 257 173 254 227 c 257
 190 227 l 257
 193 167 171 57 135 58 c 256
 94 59 78 130 81 182 c 256
 89 317 243 332 243 472 c 256
 243 553 190 596 138 596 c 256
 52 596 27 528 30 477 c 257
 32 477 85 482 86 483 c 257
 86 515 102 543 135 543 c 256
 171 543 187 516 187 471 c 256
 187 369 37 340 29 179 c 256
 26 109 66 0 139 0 c 256
 166 0 212 15 225 132 c 257
 230 57 270 0 323 0 c 256
 430 0 426 148 404 239 c 257
 342 231 l 257
EndSplineSet
Validated: 37
EndChar

StartChar: knO
Encoding: 448 3218 383
Width: 544
VWidth: 0
Flags: HMW
LayerCount: 2
Fore
SplineSet
33 660 m 261
NamedP: "+B+ABGgD5"
 92 660 252 664 298 664 c 256
 395 664 428 626 428 519 c 256
 428 443 404 428 388 428 c 256
 365 428 346 460 346 499 c 256
 346 569 396 578 431 557 c 257
 429 564 429 573 430 584 c 258
 432 599 l 257
 392 631 293 610 293 484 c 256
 293 415 355 370 388 370 c 256
 444 370 474 417 474 530 c 256
 474 638 431 714 295 714 c 256
 258 714 194 713 138 713 c 258
 36 713 l 257
 35 695 33 659 33 660 c 261
NamedP: "+B+ABGgD5"
254 632 m 256
 254 672 198 713 36 713 c 257
 33 660 l 257
 112 660 l 258
 177 660 213 655 214 630 c 256
 214 607 189 599 138 596 c 257
 137 552 l 257
 196 549 254 574 254 632 c 256
342 231 m 257
 373 142 363 57 320 57 c 256
 269 57 257 173 254 227 c 257
 190 227 l 257
 193 167 171 57 135 58 c 256
 94 59 78 130 81 182 c 256
 89 317 243 332 243 472 c 256
 243 553 190 596 138 596 c 256
 52 596 27 528 30 477 c 257
 32 477 85 482 86 483 c 257
 86 515 102 543 135 543 c 256
 171 543 187 516 187 471 c 256
 187 369 37 340 29 179 c 256
 26 109 66 0 139 0 c 256
 166 0 212 15 225 132 c 257
 230 57 270 0 323 0 c 256
 430 0 426 148 404 239 c 257
 342 231 l 257
EndSplineSet
EndChar

StartChar: knOO
Encoding: 449 3219 384
Width: 446
VWidth: 0
Flags: HMW
LayerCount: 2
Fore
SplineSet
197 0 m 256
NamedP: "`+ARoA+QAA"
 103 0 11 68 8 204 c 256
 5 324 6 456 6 487 c 256
 6 537 31 594 83 594 c 256
 158 594 178 528 178 417 c 256
 178 311 164 237 103 238 c 256
 82 238 64 249 55 259 c 257
 56 240 54 227 55 199 c 256
 58 106 120 55 194 55 c 256
 275 55 320 125 325 226 c 256
 331 348 328 381 326 475 c 256
 325 497 325 542 297 543 c 256
 277 543 265 514 265 394 c 256
 265 318 268 300 274 250 c 256
 278 215 275 170 239 170 c 256
 219 170 131 166 102 166 c 257
 103 188 103 189 107 211 c 257
 194 212 l 258
 227 213 231 216 226 251 c 256
 221 288 210 348 210 397 c 256
 210 506 218 594 297 594 c 256
 336 594 356 571 367 544 c 256
 376 521 377 496 378 472 c 256
 381 389 382 332 382 227 c 256
 382 94 303 0 197 0 c 256
NamedP: "`+ARoA+QAA"
87 546 m 256
 76 545 55 540 55 463 c 256
 55 312 78 288 101 288 c 256
 117 288 123 320 121 417 c 256
 119 517 114 548 87 546 c 256
EndSplineSet
Validated: 33
EndChar

StartChar: knAU
Encoding: 450 3220 385
Width: 433
VWidth: 0
Flags: HMW
LayerCount: 2
Fore
SplineSet
326 283 m 257
NamedP: "|d+ARoA+QAA"
 351 235 353 208 353 175 c 256
 353 80 282 0 179 0 c 256
 87 0 10 78 6 205 c 256
 2 322 4 349 4 486 c 256
 4 553 42 594 83 594 c 256
 164 594 181 528 181 419 c 256
 181 306 160 244 99 244 c 256
 88 244 71 249 60 260 c 257
 61 243 60 227 60 205 c 256
 60 113 113 57 180 57 c 256
 237 57 299 109 299 172 c 256
 299 187 297 202 293 225 c 257
 279 201 250 168 204 168 c 258
 89 168 l 257
 89 218 l 257
 206 218 l 258
 233 218 257 252 266 269 c 257
 237 295 207 363 207 418 c 256
 207 566 240 594 295 594 c 256
 367 594 375 517 375 460 c 256
 375 376 346 311 326 283 c 257
NamedP: "|d+ARoA+QAA"
296 543 m 256
 255 543 260 447 260 419 c 256
 260 383 277 334 289 316 c 257
 305 336 321 401 321 441 c 256
 321 459 323 543 296 543 c 256
87 545 m 256
 78 545 60 544 60 450 c 256
 60 315 82 294 95 294 c 256
 109 294 124 305 124 401 c 256
 124 522 111 545 87 545 c 256
EndSplineSet
Validated: 33
EndChar

StartChar: knsignAA
Encoding: 451 3262 386
Width: 343
VWidth: 0
Flags: HMW
LayerCount: 2
Fore
SplineSet
278 196 m 256
NamedP: "c+ARoA+QAA"
 278 303 264 464 65 464 c 256
 28 464 -38 463 -97 463 c 258
 -205 463 l 257
 -207 436 l 258
 -208 423 -208 409 -208 410 c 257
 70 410 l 258
 221 410 232 291 232 185 c 256
 232 113 202 74 169 74 c 256
 128 74 112 125 115 162 c 256
 120 229 189 275 230 253 c 257
 228 261 227 269 227 277 c 256
 227 281 227 285 228 290 c 257
 177 317 69 270 67 146 c 256
 65 70 107 17 168 17 c 256
 225 17 278 83 278 196 c 256
NamedP: "c+ARoA+QAA"
EndSplineSet
Validated: 37
EndChar

StartChar: knsignI
Encoding: 452 3263 387
Width: 0
VWidth: 0
Flags: HMW
LayerCount: 2
Fore
SplineSet
-12 404 m 257
NamedP: "c+ARoA+QAA"
 57 439 111 501 111 584 c 256
 111 658 73 715 -1 715 c 256
 -76 715 -105 651 -102 603 c 256
 -99 543 -50 513 -15 511 c 257
 -15 512 -3 547 -3 547 c 257
 -22 552 -55 564 -58 603 c 256
 -61 636 -51 672 -1 672 c 256
 46 672 64 635 65 585 c 256
 66 521 24 470 -39 443 c 257
 -28 430 -21 417 -12 404 c 257
NamedP: "c+ARoA+QAA"
EndSplineSet
Validated: 41
EndChar

StartChar: knsignII
Encoding: 453 3264 388
Width: 440
VWidth: 0
Flags: HMW
LayerCount: 2
Fore
SplineSet
-12 404 m 257
NamedP: "g+ARoA+QAA"
 57 439 111 501 111 584 c 256
 111 658 73 715 -1 715 c 256
 -76 715 -105 651 -102 603 c 256
 -99 543 -50 513 -15 511 c 257
 -15 512 -3 547 -3 547 c 257
 -22 552 -55 564 -58 603 c 256
 -61 636 -51 672 -1 672 c 256
 46 672 64 635 65 585 c 256
 66 521 24 470 -39 443 c 257
 -28 430 -21 417 -12 404 c 257
NamedP: "g+ARoA+QAA"
345 54 m 257
 346 42 349 13 350 0 c 257
 171 0 179 167 179 274 c 256
 179 315 174 423 173 568 c 257
 189 584 223 594 259 594 c 256
 343 594 372 523 372 428 c 256
 372 313 356 260 288 260 c 256
 257 260 228 286 223 304 c 257
 224 276 223 284 223 270 c 256
 223 163 239 54 345 54 c 257
320 413 m 256
 320 529 287 556 255 553 c 256
 240 552 230 547 223 545 c 257
 217 310 258 303 286 303 c 256
 307 303 320 318 320 413 c 256
EndSplineSet
Validated: 41
EndChar

StartChar: knsignU
Encoding: 454 3265 389
Width: 205
VWidth: 0
Flags: HMW
LayerCount: 2
Fore
SplineSet
137 595 m 257
NamedP: "+AH4A-h+ARoA+QAA"
 139 562 129 271 128 227 c 256
 124 88 82 0 15 0 c 256
 -30 0 -52 27 -69 59 c 257
 -41 110 l 257
 -37 81 -16 47 13 47 c 256
 67 47 73 196 73 226 c 256
 73 261 75 553 73 579 c 257
 92 584 122 591 137 595 c 257
NamedP: "+AH4A-h+ARoA+QAA"
EndSplineSet
Validated: 33
EndChar

StartChar: knsignUU
Encoding: 455 3266 390
Width: 442
VWidth: 0
Flags: HMW
LayerCount: 2
Fore
SplineSet
371 203 m 256
NamedP: "ai+ARoA+QAA"
 371 85 358 -9 287 -9 c 256
 241 -9 188 60 188 128 c 256
 188 267 290 303 329 272 c 257
 327 257 l 258
 326 246 326 237 328 230 c 257
 293 251 234 223 234 136 c 256
 234 98 247 44 282 44 c 256
 309 44 325 91 325 192 c 256
 325 389 326 523 230 523 c 256
 186 523 152 454 152 362 c 256
 152 334 155 253 155 226 c 256
 155 135 130 0 34 0 c 256
 -13 0 -40 29 -55 54 c 257
 -28 96 l 257
 -15 65 12 44 37 44 c 256
 85 44 105 114 105 225 c 256
 105 264 103 311 103 348 c 256
 103 500 156 575 229 575 c 256
 366 575 371 397 371 203 c 256
NamedP: "ai+ARoA+QAA"
EndSplineSet
Validated: 37
EndChar

StartChar: knsignvR
Encoding: 456 3267 391
Width: 107
VWidth: 0
GlyphClass: 4
Flags: HMW
LayerCount: 2
Fore
SplineSet
58 -183 m 256
NamedP: "Yj+ARoA+QAA"
 58 -317 15 -421 -82 -421 c 256
 -160 -421 -232 -371 -232 -277 c 256
 -232 -222 -232 -240 -232 -185 c 256
 -232 -109 -175 -89 -154 -89 c 256
 -72 -89 -63 -157 -63 -200 c 256
 -63 -272 -95 -304 -133 -305 c 256
 -158 -306 -188 -291 -188 -269 c 256
 -188 -323 -161 -373 -84 -373 c 256
 -11 -373 7 -284 7 -188 c 256
 7 -76 -5 167 -5 167 c 257
 47 174 l 257
 47 174 58 -78 58 -183 c 256
NamedP: "Yj+ARoA+QAA"
-103 -200 m 256
 -103 -155 -122 -133 -157 -133 c 256
 -173 -133 -184 -153 -184 -182 c 256
 -184 -217 -166 -268 -136 -268 c 256
 -112 -268 -103 -243 -103 -200 c 256
EndSplineSet
Validated: 33
Substitution2: "Ambarisha-Regular-Single Substitution lookup 9 subtable" knsignvR.following
EndChar

StartChar: knsignvRR
Encoding: 457 3268 392
Width: 334
VWidth: 0
GlyphClass: 4
Flags: HMW
LayerCount: 2
Fore
SplineSet
276 -88 m 258
NamedP: "l+ARoA+QAA"
 276 -201 251 -299 183 -299 c 256
 122 -299 97 -248 99 -172 c 256
 101 -47 177 -25 233 -25 c 257
 232 -30 232 -35 232 -40 c 258
 232 -40 232 -45 232 -54 c 256
 232 -59 233 -63 234 -67 c 257
 194 -64 152 -88 147 -156 c 256
 144 -194 143 -255 184 -255 c 256
 217 -255 226 -173 226 -101 c 256
 226 -33 250 133 146 133 c 256
 100 133 41 132 -18 132 c 257
 -18 175 l 257
 145 174 l 258
 272 173 276 28 276 -51 c 258
 276 -88 l 258
NamedP: "l+ARoA+QAA"
58 -183 m 256
 58 -317 15 -421 -82 -421 c 256
 -160 -421 -232 -371 -232 -277 c 256
 -232 -222 -232 -240 -232 -185 c 256
 -232 -109 -175 -89 -154 -89 c 256
 -72 -89 -63 -157 -63 -200 c 256
 -63 -272 -95 -304 -133 -305 c 256
 -158 -306 -188 -291 -188 -269 c 256
 -188 -323 -161 -373 -84 -373 c 256
 -11 -373 7 -284 7 -188 c 256
 7 -76 -5 167 -5 167 c 257
 47 170 l 257
 47 170 58 -78 58 -183 c 256
-103 -200 m 256
 -103 -155 -122 -133 -157 -133 c 256
 -173 -133 -184 -153 -184 -182 c 256
 -184 -217 -166 -268 -136 -268 c 256
 -112 -268 -103 -243 -103 -200 c 256
EndSplineSet
Validated: 37
Substitution2: "Ambarisha-Regular-Single Substitution lookup 9 subtable" knsignvRR.following
EndChar

StartChar: knsignvL
Encoding: 458 3298 393
Width: 0
VWidth: 0
Flags: HMW
LayerCount: 2
Fore
SplineSet
113 -196 m 256
NamedP: "	l+ARoA+QAA"
 115 -173 118 -110 113 -80 c 257
 112 -80 104 -81 96 -82 c 256
 91 -83 86 -83 80 -83 c 257
 85 -118 82 -178 80 -197 c 256
 68 -334 -15 -378 -67 -378 c 256
 -86 -378 -122 -370 -122 -334 c 256
 -122 -257 8 -285 33 -181 c 256
 51 -104 15 -67 -26 -67 c 256
 -67 -67 -94 -111 -91 -175 c 257
 -96 -128 -115 -67 -156 -67 c 256
 -218 -67 -217 -168 -209 -216 c 257
 -173 -212 l 257
 -189 -161 -181 -97 -153 -97 c 256
 -125 -97 -113 -177 -113 -209 c 257
 -71 -205 l 257
 -79 -157 -60 -97 -26 -97 c 256
 -8 -97 19 -115 0 -178 c 256
 -27 -269 -156 -249 -154 -335 c 256
 -152 -396 -97 -412 -65 -412 c 256
 0 -412 99 -346 113 -196 c 256
NamedP: "	l+ARoA+QAA"
EndSplineSet
Validated: 41
EndChar

StartChar: knsignvLL
Encoding: 459 3299 394
Width: 0
VWidth: 0
Flags: HMW
LayerCount: 2
Fore
SplineSet
64 -226 m 256
NamedP: "l+ARoA+QAA"
 64 -262 49 -380 -65 -380 c 256
 -84 -380 -119 -371 -119 -336 c 256
 -119 -261 10 -284 35 -183 c 256
 54 -107 17 -70 -24 -70 c 256
 -65 -70 -92 -113 -89 -177 c 257
 -94 -132 -113 -70 -153 -70 c 256
 -215 -70 -215 -171 -207 -218 c 257
 -171 -213 l 257
 -187 -162 -179 -100 -151 -100 c 256
 -122 -100 -113 -180 -110 -211 c 257
 -69 -207 l 257
 -77 -159 -58 -100 -24 -100 c 256
 -6 -100 21 -116 2 -180 c 256
 -26 -273 -152 -249 -152 -336 c 256
 -152 -397 -95 -413 -64 -413 c 256
 65 -413 93 -281 95 -218 c 256
 96 -165 117 -116 155 -116 c 256
 211 -116 230 -187 230 -302 c 256
 230 -361 221 -380 205 -380 c 256
 185 -380 181 -353 181 -330 c 256
 181 -281 211 -268 232 -280 c 257
 229 -276 231 -270 231 -265 c 256
 231 -262 231 -259 232 -256 c 257
 210 -237 151 -259 151 -339 c 256
 151 -378 177 -413 204 -413 c 256
 245 -413 256 -364 256 -296 c 256
 256 -185 235 -86 155 -86 c 256
 105 -86 64 -138 64 -226 c 256
NamedP: "l+ARoA+QAA"
EndSplineSet
Validated: 37
EndChar

StartChar: knsignE
Encoding: 460 3270 395
Width: 0
VWidth: 0
Flags: HMW
LayerCount: 2
Fore
SplineSet
-14 678 m 256
NamedP: "po+ARoA+QAA"
 -13 624 -49 552 -134 545 c 256
 -146 544 -206 539 -216 537 c 257
 -217 592 l 257
 -199 590 -164 590 -147 593 c 257
 -73 602 -61 652 -60 679 c 256
 -59 715 -75 749 -114 749 c 256
 -143 749 -156 722 -156 697 c 256
 -156 686 -152 678 -146 673 c 257
 -154 664 -168 654 -177 646 c 257
 -187 655 -201 673 -201 701 c 256
 -201 736 -179 792 -114 792 c 256
 -50 792 -15 741 -14 678 c 256
NamedP: "po+ARoA+QAA"
EndSplineSet
Validated: 33
EndChar

StartChar: knsignEE
Encoding: 461 3271 396
Width: 294
VWidth: 0
Flags: HMW
LayerCount: 2
Fore
SplineSet
-14 678 m 256
NamedP: "ro+ARoA+QAA"
 -13 624 -49 552 -134 545 c 256
 -146 544 -206 539 -216 537 c 257
 -217 592 l 257
 -199 590 -164 590 -147 593 c 257
 -73 602 -61 652 -60 679 c 256
 -59 715 -75 749 -114 749 c 256
 -143 749 -156 722 -156 697 c 256
 -156 686 -152 678 -146 673 c 257
 -154 664 -168 654 -177 646 c 257
 -187 655 -201 673 -201 701 c 256
 -201 736 -179 792 -114 792 c 256
 -50 792 -15 741 -14 678 c 256
NamedP: "ro+ARoA+QAA"
205 54 m 257
 206 42 209 13 210 0 c 257
 31 0 39 167 39 274 c 256
 39 315 34 423 33 568 c 257
 49 584 83 594 119 594 c 256
 203 594 232 523 232 428 c 256
 232 313 216 260 148 260 c 256
 117 260 88 286 83 304 c 257
 84 276 83 284 83 270 c 256
 83 163 99 54 205 54 c 257
180 413 m 256
 180 529 147 556 115 553 c 256
 100 552 90 547 83 545 c 257
 77 310 118 303 146 303 c 256
 167 303 180 318 180 413 c 256
EndSplineSet
Validated: 33
EndChar

StartChar: knsignAI
Encoding: 462 3272 397
Width: 125
VWidth: 0
Flags: HMW
LayerCount: 2
Fore
SplineSet
-14 678 m 256
NamedP: "+BrEBGgD5"
 -13 624 -49 552 -134 545 c 256
 -146 544 -206 539 -216 537 c 257
 -217 592 l 257
 -199 590 -164 590 -147 593 c 257
 -73 602 -61 652 -60 679 c 256
 -59 715 -75 749 -114 749 c 256
 -143 749 -156 722 -156 697 c 256
 -156 686 -152 678 -146 673 c 257
 -154 664 -168 654 -177 646 c 257
 -187 655 -201 673 -201 701 c 256
 -201 736 -179 792 -114 792 c 256
 -50 792 -15 741 -14 678 c 256
NamedP: "+BrEBGgD5"
-14 -87 m 257
 -16 -75 -14 -52 -14 -38 c 257
 18 -38 37 -5 37 27 c 256
 37 51 26 77 1 104 c 257
 12 114 20 127 30 137 c 257
 63 101 80 66 80 27 c 256
 80 -30 48 -87 -14 -87 c 257
76 -238 m 256
 76 -327 15 -421 -86 -421 c 256
 -164 -421 -246 -371 -246 -277 c 256
 -246 -222 -247 -176 -244 -121 c 257
 -214 -102 -181 -97 -160 -97 c 256
 -78 -97 -65 -168 -65 -211 c 256
 -65 -262 -99 -304 -137 -305 c 256
 -162 -306 -190 -286 -202 -256 c 257
 -202 -328 -165 -373 -88 -373 c 256
 -2 -373 26 -286 26 -242 c 256
 26 -201 26 -207 26 -187 c 256
 26 -139 21 -97 -14 -86 c 257
 -14 -37 l 257
 67 -62 76 -120 76 -202 c 256
 76 -216 76 -194 76 -238 c 256
-163 -141 m 256
 -179 -143 -191 -146 -198 -150 c 257
 -198 -230 -170 -268 -140 -268 c 256
 -116 -268 -105 -247 -105 -211 c 256
 -105 -166 -128 -136 -163 -141 c 256
EndSplineSet
Validated: 37
EndChar

StartChar: knsignO
Encoding: 463 3274 398
Width: 438
VWidth: 0
Flags: HMW
LayerCount: 2
Fore
SplineSet
-14 678 m 256
NamedP: "+AfMBGgD5"
 -13 624 -49 552 -134 545 c 256
 -146 544 -206 539 -216 537 c 257
 -217 592 l 257
 -199 590 -164 590 -147 593 c 257
 -73 602 -61 652 -60 679 c 256
 -59 715 -75 749 -114 749 c 256
 -143 749 -156 722 -156 697 c 256
 -156 686 -152 678 -146 673 c 257
 -154 664 -168 654 -177 646 c 257
 -187 655 -201 673 -201 701 c 256
 -201 736 -179 792 -114 792 c 256
 -50 792 -15 741 -14 678 c 256
NamedP: "+AfMBGgD5"
371 203 m 256
 371 85 358 -9 287 -9 c 256
 241 -9 188 60 188 128 c 256
 188 267 290 303 329 272 c 257
 327 257 l 258
 326 246 326 237 328 230 c 257
 293 251 234 223 234 136 c 256
 234 98 247 44 282 44 c 256
 309 44 325 91 325 192 c 256
 325 389 326 523 230 523 c 256
 186 523 152 454 152 362 c 256
 152 334 155 253 155 226 c 256
 155 135 130 0 34 0 c 256
 -13 0 -40 29 -55 54 c 257
 -28 96 l 257
 -15 65 12 44 37 44 c 256
 85 44 105 114 105 225 c 256
 105 264 103 311 103 348 c 256
 103 500 156 575 229 575 c 256
 366 575 371 397 371 203 c 256
EndSplineSet
Validated: 37
EndChar

StartChar: knsignOO
Encoding: 464 3275 399
Width: 706
VWidth: 0
Flags: HMW
LayerCount: 2
Fore
SplineSet
-14 678 m 256
NamedP: "+AnMBGgD5"
 -13 624 -49 552 -134 545 c 256
 -146 544 -206 539 -216 537 c 257
 -217 592 l 257
 -199 590 -164 590 -147 593 c 257
 -73 602 -61 652 -60 679 c 256
 -59 715 -75 749 -114 749 c 256
 -143 749 -156 722 -156 697 c 256
 -156 686 -152 678 -146 673 c 257
 -154 664 -168 654 -177 646 c 257
 -187 655 -201 673 -201 701 c 256
 -201 736 -179 792 -114 792 c 256
 -50 792 -15 741 -14 678 c 256
NamedP: "+AnMBGgD5"
371 203 m 256
 371 85 358 -9 287 -9 c 256
 241 -9 188 60 188 128 c 256
 188 267 290 303 329 272 c 257
 327 257 l 258
 326 246 326 237 328 230 c 257
 293 251 234 223 234 136 c 256
 234 98 247 44 282 44 c 256
 309 44 325 91 325 192 c 256
 325 389 326 523 230 523 c 256
 186 523 152 454 152 362 c 256
 152 334 155 253 155 226 c 256
 155 135 130 0 34 0 c 256
 -13 0 -40 29 -55 54 c 257
 -28 96 l 257
 -15 65 12 44 37 44 c 256
 85 44 105 114 105 225 c 256
 105 264 103 311 103 348 c 256
 103 500 156 575 229 575 c 256
 366 575 371 397 371 203 c 256
605 54 m 257
 606 42 609 13 610 0 c 257
 431 0 439 167 439 274 c 256
 439 315 434 423 433 568 c 257
 449 584 483 594 519 594 c 256
 603 594 632 523 632 428 c 256
 632 313 616 260 548 260 c 256
 517 260 488 286 483 304 c 257
 484 276 483 284 483 270 c 256
 483 163 499 54 605 54 c 257
580 413 m 256
 580 529 547 556 515 553 c 256
 500 552 490 547 483 545 c 257
 477 310 518 303 546 303 c 256
 567 303 580 318 580 413 c 256
EndSplineSet
Validated: 37
EndChar

StartChar: knsignAU
Encoding: 465 3276 400
Width: 246
VWidth: 0
Flags: HMW
LayerCount: 2
Fore
SplineSet
178 530 m 256
NamedP: "+BzcBGgD5"
 178 417 139 370 92 370 c 256
 50 370 0 409 0 488 c 256
 0 604 91 624 127 605 c 257
 118 648 94 664 33 664 c 256
 17 664 -1 665 -17 663 c 257
 -10 650 -6 637 -6 624 c 256
 -6 560 -65 541 -110 541 c 256
 -189 541 -142 538 -224 538 c 257
 -225 592 l 257
 -121 592 l 258
 -71 592 -47 604 -48 627 c 256
 -49 658 -79 661 -126 661 c 256
 -155 661 -171 660 -190 660 c 257
 -188 684 -187 713 -187 713 c 257
 -111 713 l 258
 -63 713 -7 714 30 714 c 256
 155 714 178 638 178 530 c 256
NamedP: "+BzcBGgD5"
135 520 m 257
 135 520 135 527 135 541 c 256
 135 548 132 560 131 566 c 257
 97 584 45 566 45 498 c 256
 45 459 61 416 92 416 c 256
 117 416 135 444 135 520 c 257
EndSplineSet
Validated: 33
EndChar

StartChar: knLengthmark
Encoding: 466 3285 401
Width: 249
VWidth: 0
Flags: HMW
LayerCount: 2
Fore
SplineSet
181 -1 m 257
NamedP: "+BngBGgD5"
 34 -2 12 136 10 243 c 256
 8 362 8 349 8 480 c 257
 6 564 48 593 83 593 c 256
 157 593 171 550 171 438 c 256
 171 321 145 283 102 284 c 256
 81 284 59 308 54 321 c 257
 54 290 54 225 54 212 c 256
 54 105 117 49 180 49 c 257
 181 37 180 12 181 -1 c 257
NamedP: "+BngBGgD5"
126 425 m 256
 126 519 119 558 87 555 c 256
 72 554 55 530 54 491 c 257
 54 345 73 329 101 329 c 256
 122 329 126 356 126 425 c 256
EndSplineSet
Validated: 33
EndChar

StartChar: knAIlengthmark
Encoding: 467 3286 402
Width: 136
VWidth: 0
GlyphClass: 4
Flags: HMW
LayerCount: 2
Fore
SplineSet
6 -87 m 257
NamedP: "2u+ARoA+QAA"
 4 -75 6 -52 6 -38 c 257
 38 -38 57 -5 57 27 c 256
 57 51 46 77 21 104 c 257
 32 114 40 127 50 137 c 257
 83 101 100 66 100 27 c 256
 100 -30 68 -87 6 -87 c 257
NamedP: "2u+ARoA+QAA"
96 -238 m 256
 96 -327 52 -421 -49 -421 c 256
 -127 -421 -194 -371 -194 -277 c 256
 -194 -222 -194 -235 -194 -180 c 256
 -194 -107 -129 -97 -108 -97 c 256
 -26 -97 -28 -166 -28 -209 c 256
 -28 -260 -62 -302 -100 -303 c 256
 -125 -304 -141 -296 -150 -272 c 257
 -150 -319 -128 -373 -51 -373 c 256
 35 -373 46 -286 46 -242 c 256
 46 -201 46 -207 46 -187 c 256
 46 -139 41 -97 6 -86 c 257
 6 -37 l 257
 87 -62 96 -120 96 -202 c 256
 96 -216 96 -194 96 -238 c 256
-111 -141 m 256
 -127 -143 -150 -148 -150 -178 c 256
 -150 -228 -133 -266 -103 -266 c 256
 -79 -266 -68 -245 -68 -209 c 256
 -68 -164 -76 -136 -111 -141 c 256
EndSplineSet
Validated: 37
Substitution2: "Ambarisha-Regular-Single Substitution lookup 9 subtable" knAIlengthmark.following
EndChar

StartChar: knKA
Encoding: 468 3221 403
Width: 438
VWidth: 0
Flags: HMW
LayerCount: 2
Fore
SplineSet
367 462 m 257
NamedP: "+AnoBGgD5"
 305 454 73 454 31 458 c 257
 33 406 l 257
 109 414 317 414 366 406 c 257
 367 462 l 257
NamedP: "+AnoBGgD5"
287 218 m 256
 287 101 268 44 209 44 c 256
 134 44 113 93 113 229 c 256
 113 328 125 401 194 401 c 256
 251 401 287 367 287 218 c 256
339 193 m 256
 339 329 322 444 202 444 c 256
 91 444 61 362 61 220 c 256
 61 75 102 0 199 0 c 256
 325 0 339 107 339 193 c 256
413 672 m 257
 392 667 369 667 360 666 c 257
 363 626 333 598 277 595 c 256
 234 592 94 590 20 590 c 257
 21 536 l 257
 64 540 248 545 280 546 c 256
 386 548 413 622 413 672 c 257
221 551 m 257
 164 549 l 257
 173 409 l 257
 226 411 l 257
 221 551 l 257
EndSplineSet
Validated: 37
EndChar

StartChar: knKHA
Encoding: 469 3222 404
Width: 516
VWidth: 0
Flags: HMW
LayerCount: 2
Fore
SplineSet
120 0 m 256
NamedP: "+AvoBGgD5"
 37 0 2 68 2 115 c 256
 2 187 51 240 109 240 c 256
 170 240 214 189 220 162 c 257
 230 196 235 258 235 312 c 256
 235 378 231 433 220 476 c 257
 219 393 175 314 105 314 c 256
 65 314 2 347 2 455 c 256
 2 504 29 595 128 595 c 256
 244 595 288 483 286 316 c 256
 284 155 242 0 120 0 c 256
NamedP: "+AvoBGgD5"
185 523 m 257
 179 532 167 545 125 545 c 256
 65 545 52 474 53 453 c 256
 55 402 71 364 105 364 c 256
 142 364 183 391 185 523 c 257
193 115 m 256
 193 148 147 197 107 192 c 256
 82 189 54 159 54 123 c 256
 54 92 71 52 120 52 c 257
 154 51 193 86 193 115 c 256
420 227 m 256
 416 88 374 0 307 0 c 256
 262 0 238 31 221 63 c 257
 251 110 l 257
 255 81 276 47 305 47 c 256
 359 47 365 196 365 226 c 256
 365 261 367 553 365 579 c 257
 384 584 414 591 429 595 c 257
 431 562 421 271 420 227 c 256
EndSplineSet
Validated: 37
EndChar

StartChar: knGA
Encoding: 470 3223 405
Width: 415
VWidth: 0
Flags: HMW
LayerCount: 2
Fore
SplineSet
393 672 m 257
NamedP: "b}+ARoA+QAA"
 372 667 349 667 340 666 c 257
 343 626 313 598 257 595 c 256
 213 592 75 590 0 590 c 257
 1 536 l 257
 45 540 228 545 260 546 c 256
 366 548 393 622 393 672 c 257
NamedP: "b}+ARoA+QAA"
318 0 m 257
 307 225 314 334 307 430 c 256
 298 553 225 592 159 592 c 256
 97 592 19 548 19 413 c 258
 19 -8 l 257
 84 -2 l 257
 76 166 74 325 74 410 c 256
 74 506 95 537 161 537 c 256
 217 537 241 501 248 421 c 256
 259 280 251 137 253 -5 c 257
 318 0 l 257
EndSplineSet
Validated: 37
EndChar

StartChar: knGHA
Encoding: 471 3224 406
Width: 574
VWidth: 0
Flags: HMW
LayerCount: 2
Fore
SplineSet
409 673 m 257
NamedP: "W+AH4BGgD5"
 409 623 382 549 276 547 c 256
 243 546 26 537 2 537 c 257
 1 591 l 257
 37 591 230 595 273 596 c 256
 329 598 359 627 356 667 c 257
 365 668 388 668 409 673 c 257
NamedP: "W+AH4BGgD5"
255 569 m 257
 255 486 222 421 156 421 c 256
 98 421 57 471 57 569 c 257
 103 569 l 257
 103 518 114 457 155 457 c 256
 191 457 210 502 210 569 c 257
 255 569 l 257
418 226 m 256
 424 110 380 0 294 0 c 256
 264 0 207 31 196 131 c 257
 192 67 172 0 111 0 c 256
 66 0 9 31 9 139 c 258
 9 156 l 258
 9 198 25 303 123 303 c 257
 123 247 l 257
 112 247 62 247 62 137 c 256
 62 92 74 60 105 60 c 256
 140 60 162 107 162 227 c 257
 162 228 l 257
 225 227 l 257
 225 137 262 59 295 59 c 256
 340 59 372 125 363 225 c 256
 349 375 349 381 336 465 c 257
 355 470 385 477 400 481 c 257
 408 382 411 352 418 226 c 256
223 -131 m 257
 174 -138 l 257
 174 -119 173 -52 170 -31 c 257
 173 -32 178 -32 184 -32 c 258
 200 -32 l 258
 206 -32 212 -32 218 -31 c 257
 218 -47 219 -120 223 -131 c 257
512 509 m 257
 533 405 516 353 465 340 c 256
 430 331 382 355 359 398 c 257
 405 420 l 257
 410 398 429 378 454 385 c 256
 482 393 480 451 459 496 c 256
 458 497 512 508 512 509 c 257
EndSplineSet
Validated: 37
EndChar

StartChar: knNGA
Encoding: 472 3225 407
Width: 513
VWidth: 0
Flags: HMW
LayerCount: 2
Fore
SplineSet
441 425 m 257
NamedP: "Y+AH4BGgD5"
 388 414 l 257
 382 473 362 536 317 536 c 256
 262 536 238 479 238 463 c 257
 193 447 l 257
 193 490 216 593 313 593 c 256
 415 593 438 478 441 425 c 257
NamedP: "Y+AH4BGgD5"
341 424 m 256
 341 397 328 368 312 368 c 256
 296 368 284 397 284 424 c 256
 284 449 296 479 312 479 c 256
 328 479 341 449 341 424 c 256
397 239 m 257
 419 148 423 0 316 0 c 256
 263 0 223 57 218 132 c 257
 205 15 159 0 132 0 c 256
 59 0 0 100 0 170 c 256
 0 413 182 375 182 477 c 256
 182 520 164 543 128 543 c 256
 95 543 79 515 79 483 c 257
 78 482 25 477 23 477 c 257
 20 528 45 596 131 596 c 256
 183 596 235 563 238 478 c 256
 242 338 55 385 52 173 c 256
 51 121 87 59 128 58 c 256
 164 57 186 167 183 227 c 257
 247 227 l 257
 250 173 262 57 313 57 c 256
 356 57 366 142 335 231 c 257
 397 239 l 257
EndSplineSet
Validated: 37
EndChar

StartChar: knCA
Encoding: 473 3226 408
Width: 504
VWidth: 0
Flags: HMW
LayerCount: 2
Fore
SplineSet
477 670 m 257
NamedP: "+AIQGuQAA"
 477 619 472 555 366 544 c 256
 356 543 283 538 272 538 c 257
 271 590 l 257
 282 590 347 592 363 593 c 256
 421 598 427 622 428 662 c 257
 437 663 456 665 477 670 c 257
NamedP: "+AIQGuQAA"
372 407 m 257
 318 404 l 257
 313 545 l 257
 365 548 l 257
 372 407 l 257
430 388 m 257
 278 385 l 257
 275 434 l 257
 275 434 331 434 368 434 c 256
 390 434 426 435 426 435 c 257
 430 388 l 257
416 206 m 256
 417 94 392 0 318 0 c 256
 265 0 221 57 216 132 c 257
 203 15 137 0 110 0 c 256
 37 0 -15 99 10 184 c 256
 54 335 159 383 159 469 c 256
 159 512 147 542 111 542 c 256
 78 542 67 515 67 483 c 257
 62 482 18 477 11 477 c 257
 8 528 28 595 114 595 c 256
 166 595 212 561 212 476 c 256
 212 370 98 301 64 185 c 256
 44 117 70 55 111 55 c 256
 160 55 179 132 177 228 c 257
 240 228 l 257
 243 175 262 55 312 55 c 256
 346 55 361 126 360 210 c 256
 359 272 346 343 318 404 c 257
 370 406 l 257
 400 344 416 272 416 206 c 256
EndSplineSet
Validated: 37
EndChar

StartChar: knCHA
Encoding: 474 3227 409
Width: 528
VWidth: 0
Flags: HMW
LayerCount: 2
Fore
SplineSet
494 671 m 257
NamedP: "+BkMBGgD5"
 494 620 469 553 361 545 c 256
 328 542 334 538 282 535 c 257
 281 589 l 257
 313 589 326 590 358 594 c 256
 419 602 444 625 441 665 c 257
 450 666 473 666 494 671 c 257
NamedP: "+BkMBGgD5"
432 239 m 258
 432 124 400 -1 310 -1 c 256
 289 -1 223 32 220 132 c 257
 217 67 182 -2 120 -2 c 256
 18 -2 0 158 1 255 c 256
 3 419 12 595 111 595 c 256
 192 595 210 519 209 474 c 256
 205 350 142 348 116 348 c 256
 101 348 57 372 57 434 c 257
 54 412 56 326 56 258 c 256
 56 196 58 56 120 56 c 256
 175 56 186 164 183 227 c 257
 245 227 l 257
 246 180 265 59 316 59 c 256
 359 59 376 147 376 236 c 258
 376 425 l 258
 376 527 335 537 300 537 c 257
 300 582 l 257
 432 582 432 454 432 410 c 258
 432 239 l 258
243 -131 m 257
 194 -138 l 257
 194 -119 193 -52 190 -31 c 257
 193 -32 198 -32 204 -32 c 258
 220 -32 l 258
 226 -32 232 -32 238 -31 c 257
 238 -47 239 -120 243 -131 c 257
155 470 m 256
 155 488 160 542 117 541 c 256
 97 541 86 503 86 490 c 256
 86 406 110 401 126 401 c 256
 145 401 156 419 155 470 c 256
EndSplineSet
Validated: 37
EndChar

StartChar: knJA
Encoding: 475 3228 410
Width: 522
VWidth: 0
Flags: HMW
LayerCount: 2
Fore
SplineSet
366 597 m 257
NamedP: "+BsMBGgD5"
 390 501 379 386 289 382 c 256
 201 378 188 493 188 504 c 257
 233 504 l 257
 236 491 247 434 285 434 c 256
 337 434 318 532 304 591 c 257
 366 597 l 257
NamedP: "+BsMBGgD5"
397 239 m 257
 419 148 423 0 316 0 c 256
 263 0 223 57 218 132 c 257
 205 15 159 0 132 0 c 256
 59 0 0 100 0 170 c 256
 0 413 182 375 182 477 c 256
 182 520 164 543 128 543 c 256
 95 543 79 515 79 483 c 257
 78 482 25 477 23 477 c 257
 20 528 45 596 131 596 c 256
 183 596 235 563 238 478 c 256
 242 338 55 385 52 173 c 256
 51 121 87 59 128 58 c 256
 164 57 186 167 183 227 c 257
 247 227 l 257
 250 173 262 57 313 57 c 256
 356 57 366 142 335 231 c 257
 397 239 l 257
EndSplineSet
Validated: 37
EndChar

StartChar: knJHA
Encoding: 476 3229 411
Width: 729
VWidth: 0
Flags: HMW
LayerCount: 2
Fore
SplineSet
355 671 m 257
NamedP: "+AcQGuQAA"
 355 621 336 548 230 546 c 256
 197 545 44 539 1 536 c 257
 0 590 l 257
 75 590 184 592 227 595 c 256
 283 598 305 625 302 665 c 257
 311 666 334 666 355 671 c 257
NamedP: "+AcQGuQAA"
289 263 m 256
 289 116 278 0 152 0 c 256
 55 0 11 85 11 291 c 256
 11 507 41 588 152 588 c 256
 272 588 289 468 289 263 c 256
237 290 m 256
 237 499 201 542 145 542 c 256
 76 542 63 472 63 301 c 256
 63 112 89 47 161 47 c 256
 217 47 237 110 237 290 c 256
446 227 m 256
 442 88 400 0 333 0 c 256
 288 0 266 27 249 59 c 257
 277 110 l 257
 281 81 302 47 331 47 c 256
 385 47 391 196 391 226 c 256
 391 261 393 553 391 579 c 257
 410 584 440 591 455 595 c 257
 457 562 447 271 446 227 c 256
434 -115 m 257
 385 -122 l 257
 385 -103 384 -36 381 -15 c 257
 384 -16 389 -16 395 -16 c 258
 411 -16 l 258
 417 -16 423 -16 429 -15 c 257
 429 -31 430 -104 434 -115 c 257
600 227 m 256
 596 88 554 0 487 0 c 256
 442 0 420 27 403 59 c 257
 431 110 l 257
 435 81 456 47 485 47 c 256
 539 47 545 196 545 226 c 256
 545 261 547 553 545 579 c 257
 564 584 594 591 609 595 c 257
 611 562 601 271 600 227 c 256
EndSplineSet
Validated: 37
EndChar

StartChar: knNYA
Encoding: 477 3230 412
Width: 600
VWidth: 0
Flags: HMW
LayerCount: 2
Fore
SplineSet
535 393 m 257
NamedP: "+gRoA+QAA"
 536 394 482 393 482 392 c 256
 487 449 491 536 445 536 c 256
 406 536 387 491 387 456 c 257
 339 472 l 257
 347 513 362 589 444 593 c 256
 522 597 546 478 535 393 c 257
NamedP: "+gRoA+QAA"
412 7 m 257
 355 -2 l 257
 299 141 213 178 159 178 c 256
 103 178 65 141 66 117 c 256
 68 77 129 52 161 52 c 256
 217 52 336 77 336 368 c 256
 336 531 323 543 295 543 c 256
 254 543 214 429 214 357 c 257
 150 350 l 257
 147 403 140 543 96 543 c 256
 51 543 52 422 66 346 c 257
 9 338 l 257
 -4 421 -3 595 93 595 c 256
 154 595 177 502 182 415 c 257
 189 523 238 595 295 595 c 256
 362 595 390 541 390 376 c 256
 390 83 266 0 163 1 c 256
 88 2 20 58 20 112 c 256
 20 175 73 229 157 229 c 256
 260 229 348 147 412 7 c 257
EndSplineSet
Validated: 37
EndChar

StartChar: knTTA
Encoding: 478 3231 413
Width: 484
VWidth: 0
Flags: HMW
LayerCount: 2
Fore
SplineSet
137 623 m 257
NamedP: "+gRoA+QAA"
 92 620 71 586 68 533 c 256
 65 464 100 415 110 417 c 257
 138 438 l 257
 119 443 112 497 112 524 c 256
 112 547 116 574 141 585 c 257
 137 623 l 257
NamedP: "+gRoA+QAA"
411 494 m 256
 412 568 350 604 309 604 c 257
 309 561 l 257
 340 554 364 533 363 490 c 256
 362 449 344 420 301 412 c 257
 301 370 l 257
 323 364 409 380 411 494 c 256
192 360 m 256
 190 309 170 296 151 296 c 256
 135 296 90 288 101 405 c 257
 112 416 121 425 142 425 c 256
 186 425 193 379 192 360 c 256
310 -1 m 256
 400 -1 422 92 422 206 c 258
 422 250 l 257
 419 282 433 412 301 412 c 257
 301 369 l 257
 317 366 362 363 362 261 c 258
 362 198 l 258
 362 109 353 59 307 59 c 256
 266 59 239 152 237 227 c 257
 174 226 l 257
 177 163 164 56 109 56 c 256
 57 56 55 140 55 203 c 256
 56 272 58 321 63 348 c 257
 60 263 126 239 141 239 c 256
 166 239 231 240 241 363 c 256
 245 408 216 477 136 480 c 256
 27 483 6 362 2 199 c 256
 0 103 26 0 105 0 c 256
 167 0 209 67 212 132 c 257
 215 32 289 -1 310 -1 c 256
EndSplineSet
Validated: 37
EndChar

StartChar: knTTHA
Encoding: 479 3232 414
Width: 387
VWidth: 0
Flags: HMW
LayerCount: 2
Fore
SplineSet
121 289 m 256
NamedP: "(+AwQGuQAA"
 121 262 125 223 149 223 c 256
 172 223 178 262 178 289 c 256
 178 314 174 354 149 354 c 256
 122 354 121 314 121 289 c 256
NamedP: "(+AwQGuQAA"
363 672 m 257
 342 667 319 667 310 666 c 257
 313 626 283 598 227 595 c 256
 184 592 75 590 0 590 c 257
 1 536 l 257
 44 539 197 545 230 546 c 256
 336 548 363 622 363 672 c 257
237 290 m 256
 237 110 217 47 161 47 c 256
 89 47 63 112 63 301 c 256
 63 472 76 542 145 542 c 256
 201 542 237 499 237 290 c 256
289 263 m 256
 289 468 272 588 152 588 c 256
 41 588 11 507 11 291 c 256
 11 85 49 0 146 0 c 256
 272 0 289 116 289 263 c 256
EndSplineSet
Validated: 37
EndChar

StartChar: knDDA
Encoding: 480 3233 415
Width: 572
VWidth: 0
Flags: HMW
LayerCount: 2
Fore
SplineSet
501 671 m 257
NamedP: "U+A0QGuQAA"
 480 666 457 666 448 665 c 257
 451 625 421 598 365 594 c 256
 322 591 82 589 8 589 c 257
 9 535 l 257
 52 539 335 544 368 545 c 256
 474 547 501 621 501 671 c 257
NamedP: "U+A0QGuQAA"
420 189 m 256
 408 108 379 59 340 59 c 256
 292 59 263 108 256 228 c 257
 192 228 l 257
 189 135 177 59 124 59 c 256
 94 59 54 126 54 271 c 256
 55 451 128 542 247 542 c 256
 345 542 395 458 416 365 c 256
 428 314 424 284 416 267 c 256
 391 215 301 240 301 292 c 256
 301 317 333 335 359 330 c 256
 403 321 435 297 420 189 c 256
468 174 m 256
 490 327 405 366 361 372 c 256
 292 381 259 328 259 286 c 256
 259 191 401 161 446 230 c 256
 463 257 477 303 461 384 c 256
 440 493 359 591 243 591 c 256
 89 591 0 461 0 276 c 256
 0 99 52 0 123 0 c 256
 178 0 219 48 230 132 c 257
 241 40 305 1 340 1 c 256
 397 1 453 74 468 174 c 256
EndSplineSet
Validated: 37
EndChar

StartChar: knDDHA
Encoding: 481 3234 416
Width: 572
VWidth: 0
Flags: HMW
LayerCount: 2
Fore
SplineSet
259 -131 m 257
NamedP: "W+A0QGuQAA"
 210 -138 l 257
 210 -119 209 -52 206 -31 c 257
 209 -32 214 -32 220 -32 c 258
 236 -32 l 258
 242 -32 248 -32 254 -31 c 257
 254 -47 255 -120 259 -131 c 257
NamedP: "W+A0QGuQAA"
501 671 m 257
 480 666 457 666 448 665 c 257
 451 625 421 598 365 594 c 256
 322 591 82 589 8 589 c 257
 9 535 l 257
 52 539 335 544 368 545 c 256
 474 547 501 621 501 671 c 257
410 189 m 256
 398 108 379 59 340 59 c 256
 292 59 263 108 256 228 c 257
 192 228 l 257
 189 135 177 59 124 59 c 256
 94 59 54 126 54 271 c 256
 55 451 128 542 247 542 c 256
 345 542 385 458 406 365 c 256
 418 314 414 284 406 267 c 256
 381 215 301 240 301 292 c 256
 301 317 333 333 359 328 c 256
 403 319 425 297 410 189 c 256
458 174 m 256
 480 327 405 364 361 370 c 256
 292 379 259 328 259 286 c 256
 259 191 391 161 436 230 c 256
 453 257 467 303 451 384 c 256
 430 493 359 591 243 591 c 256
 89 591 0 461 0 276 c 256
 0 99 52 0 123 0 c 256
 178 0 219 48 230 132 c 257
 241 40 305 1 340 1 c 256
 397 1 443 74 458 174 c 256
EndSplineSet
Validated: 37
EndChar

StartChar: knNNA
Encoding: 482 3235 417
Width: 460
VWidth: 0
Flags: HMW
LayerCount: 2
Fore
SplineSet
213 154 m 256
NamedP: "+AZABGgD5"
 213 201 227 231 263 231 c 256
 290 231 297 179 292 76 c 257
 292 75 285 53 261 53 c 256
 222 53 213 111 213 154 c 256
NamedP: "+AZABGgD5"
119 0 m 257
 117 14 118 38 118 53 c 257
 81 53 54 93 54 145 c 256
 54 192 87 231 130 231 c 257
 131 286 l 257
 77 286 54 351 54 421 c 256
 54 502 74 540 110 540 c 256
 152 540 159 464 159 393 c 257
 222 392 l 257
 225 447 231 540 273 540 c 256
 340 540 328 425 329 329 c 256
 329 234 329 211 329 181 c 256
 329 231 314 284 264 286 c 256
 229 287 161 269 161 150 c 256
 161 90 178 0 267 0 c 256
 358 0 384 163 389 328 c 256
 392 456 385 593 279 593 c 256
 212 593 194 530 193 464 c 257
 185 565 150 592 110 592 c 256
 36 592 -1 520 -1 422 c 256
 -1 346 41 266 88 260 c 257
 50 252 5 207 5 144 c 256
 5 32 74 0 119 0 c 257
EndSplineSet
Validated: 41
EndChar

StartChar: knTA
Encoding: 483 3236 418
Width: 459
VWidth: 0
Flags: HMW
LayerCount: 2
Fore
SplineSet
420 673 m 257
NamedP: "+BIQGuQAA"
 399 668 376 668 367 667 c 257
 370 627 340 599 284 596 c 256
 242 593 77 592 4 592 c 257
 5 538 l 257
 48 539 254 546 287 547 c 256
 393 549 420 623 420 673 c 257
NamedP: "+BIQGuQAA"
30 357 m 256
 30 302 73 268 152 268 c 256
 251 268 288 346 288 471 c 258
 288 558 l 257
 233 558 l 257
 233 468 l 258
 233 337 207 312 152 312 c 256
 101 312 84 330 84 357 c 256
 84 394 117 414 166 414 c 256
 273 414 288 328 288 248 c 256
 288 85 222 58 175 58 c 256
 132 58 64 85 64 196 c 257
 52 197 29 198 12 199 c 257
 12 37 117 0 173 0 c 256
 285 0 341 90 341 245 c 256
 341 354 302 457 166 457 c 256
 77 457 30 410 30 357 c 256
EndSplineSet
Validated: 37
EndChar

StartChar: knTHA
Encoding: 484 3237 419
Width: 491
VWidth: 0
Flags: HMW
LayerCount: 2
Fore
SplineSet
452 672 m 257
NamedP: "+AA0EhAa5"
 431 667 408 667 399 666 c 257
 402 626 372 598 316 595 c 256
 274 592 83 590 10 590 c 257
 10 541 l 257
 26 541 288 545 321 546 c 256
 427 548 452 622 452 672 c 257
NamedP: "+AA0EhAa5"
407 266 m 256
 407 406 391 592 216 592 c 256
 45 592 5 434 4 291 c 256
 2 71 32 0 120 0 c 256
 168 0 202 38 206 131 c 257
 214 39 258 0 294 0 c 256
 394 0 407 119 407 266 c 256
352 290 m 256
 352 110 348 62 295 59 c 256
 265 57 237 136 235 228 c 257
 228 228 183 228 172 228 c 257
 172 138 161 61 116 61 c 256
 53 61 57 154 59 303 c 256
 60 395 97 543 214 543 c 256
 345 543 352 394 352 290 c 256
239 -131 m 257
 190 -138 l 257
 190 -119 188 -52 186 -31 c 257
 191 -33 226 -32 234 -31 c 257
 234 -47 235 -120 239 -131 c 257
233 327 m 256
 233 300 227 261 204 261 c 256
 180 261 176 300 176 327 c 256
 176 352 177 392 204 392 c 256
 229 392 233 352 233 327 c 256
EndSplineSet
Validated: 37
EndChar

StartChar: knDA
Encoding: 485 3238 420
Width: 491
VWidth: 0
Flags: HMW
LayerCount: 2
Fore
SplineSet
452 672 m 257
NamedP: "+BBQBGgD5"
 431 667 408 667 399 666 c 257
 402 626 372 598 316 595 c 256
 274 592 83 590 10 590 c 257
 10 541 l 257
 26 541 288 545 321 546 c 256
 427 548 452 622 452 672 c 257
NamedP: "+BBQBGgD5"
407 266 m 256
 407 406 391 592 216 592 c 256
 45 592 5 434 4 291 c 256
 2 71 32 0 120 0 c 256
 168 0 202 38 206 131 c 257
 214 39 258 0 294 0 c 256
 394 0 407 119 407 266 c 256
352 290 m 256
 352 110 348 62 295 59 c 256
 265 57 237 136 235 228 c 257
 228 228 183 228 172 228 c 257
 172 138 161 61 116 61 c 256
 53 61 57 154 59 303 c 256
 60 395 97 543 214 543 c 256
 345 543 352 394 352 290 c 256
EndSplineSet
Validated: 37
EndChar

StartChar: knDHA
Encoding: 486 3239 421
Width: 491
VWidth: 0
Flags: HMW
LayerCount: 2
Fore
SplineSet
452 672 m 257
NamedP: "+1UQGuQAA"
 431 667 408 667 399 666 c 257
 402 626 372 598 316 595 c 256
 274 592 83 590 10 590 c 257
 10 541 l 257
 26 541 288 545 321 546 c 256
 427 548 452 622 452 672 c 257
NamedP: "+1UQGuQAA"
407 266 m 256
 407 406 391 592 216 592 c 256
 45 592 5 434 4 291 c 256
 2 71 32 0 120 0 c 256
 168 0 202 38 206 131 c 257
 214 39 258 0 294 0 c 256
 394 0 407 119 407 266 c 256
352 290 m 256
 352 110 348 62 295 59 c 256
 265 57 237 136 235 228 c 257
 228 228 183 228 172 228 c 257
 172 138 161 61 116 61 c 256
 53 61 57 154 59 303 c 256
 60 395 97 543 214 543 c 256
 345 543 352 394 352 290 c 256
239 -131 m 257
 190 -138 l 257
 190 -119 188 -52 186 -31 c 257
 191 -33 226 -32 234 -31 c 257
 234 -47 235 -120 239 -131 c 257
EndSplineSet
Validated: 37
EndChar

StartChar: knNA
Encoding: 487 3240 422
Width: 476
VWidth: 0
Flags: HMW
LayerCount: 2
Fore
SplineSet
432 672 m 257
NamedP: "+9UQGuQAA"
 432 622 405 548 299 546 c 256
 266 545 75 540 31 536 c 257
 30 590 l 257
 104 590 253 592 296 595 c 256
 352 598 386 624 383 664 c 257
 392 665 411 667 432 672 c 257
NamedP: "+9UQGuQAA"
392 291 m 256
 392 111 363 1 253 1 c 256
 118 1 196 221 108 221 c 256
 43 221 53 74 96 2 c 257
 33 -5 l 257
 2 58 -18 273 106 273 c 256
 250 273 169 58 254 58 c 256
 319 58 335 150 336 295 c 256
 336 372 319 546 164 543 c 256
 166 543 162 589 164 591 c 257
 356 595 392 405 392 291 c 256
EndSplineSet
Validated: 37
EndChar

StartChar: knPA
Encoding: 488 3242 423
Width: 509
VWidth: 0
Flags: HMW
LayerCount: 2
Fore
SplineSet
409 673 m 257
NamedP: "6+BgQGuQAA"
 409 623 382 549 276 547 c 256
 243 546 26 537 2 537 c 257
 1 591 l 257
 37 591 230 595 273 596 c 256
 329 598 359 627 356 667 c 257
 365 668 388 668 409 673 c 257
NamedP: "6+BgQGuQAA"
255 569 m 257
 255 486 222 421 156 421 c 256
 98 421 57 471 57 569 c 257
 103 569 l 257
 103 518 114 457 155 457 c 256
 191 457 210 502 210 569 c 257
 255 569 l 257
418 226 m 256
 424 110 380 0 294 0 c 256
 264 0 207 31 196 131 c 257
 192 67 172 0 111 0 c 256
 66 0 9 31 9 139 c 258
 9 156 l 258
 9 198 25 303 123 303 c 257
 123 247 l 257
 112 247 62 247 62 137 c 256
 62 92 74 60 105 60 c 256
 140 60 162 107 162 227 c 257
 162 228 l 257
 225 227 l 257
 225 137 262 59 295 59 c 256
 340 59 372 125 363 225 c 256
 349 375 349 381 336 465 c 257
 355 470 385 477 400 481 c 257
 408 382 411 352 418 226 c 256
EndSplineSet
Validated: 37
EndChar

StartChar: knPHA
Encoding: 489 3243 424
Width: 509
VWidth: 0
Flags: HMW
LayerCount: 2
Fore
SplineSet
409 673 m 257
NamedP: "+AtkBGgD5"
 409 623 382 549 276 547 c 256
 243 546 26 537 2 537 c 257
 1 591 l 257
 37 591 230 595 273 596 c 256
 329 598 359 627 356 667 c 257
 365 668 388 668 409 673 c 257
NamedP: "+AtkBGgD5"
255 569 m 257
 255 486 222 421 156 421 c 256
 98 421 57 471 57 569 c 257
 103 569 l 257
 103 518 114 457 155 457 c 256
 191 457 210 502 210 569 c 257
 255 569 l 257
418 226 m 256
 424 110 380 0 294 0 c 256
 264 0 207 31 196 131 c 257
 192 67 172 0 111 0 c 256
 66 0 9 31 9 139 c 258
 9 156 l 258
 9 198 25 303 123 303 c 257
 123 247 l 257
 112 247 62 247 62 137 c 256
 62 92 74 60 105 60 c 256
 140 60 162 107 162 227 c 257
 162 228 l 257
 225 227 l 257
 225 137 262 59 295 59 c 256
 340 59 372 125 363 225 c 256
 349 375 349 381 336 465 c 257
 355 470 385 477 400 481 c 257
 408 382 411 352 418 226 c 256
223 -131 m 257
 174 -138 l 257
 174 -119 173 -52 170 -31 c 257
 173 -32 178 -32 184 -32 c 258
 200 -32 l 258
 206 -32 212 -32 218 -31 c 257
 218 -47 219 -120 223 -131 c 257
EndSplineSet
Validated: 37
EndChar

StartChar: knBA
Encoding: 490 3244 425
Width: 470
VWidth: 0
Flags: HMW
LayerCount: 2
Fore
SplineSet
372 595 m 257
NamedP: "+A1kBGgD5"
 376 558 391 333 384 227 c 256
 373 60 344 0 271 0 c 256
 247 0 196 23 194 132 c 257
 188 23 154 0 106 0 c 256
 34 0 6 105 6 174 c 256
 6 341 123 370 143 460 c 256
 153 506 142 542 106 542 c 256
 75 542 53 507 59 487 c 257
 57 487 5 481 3 481 c 257
 -2 516 24 595 109 595 c 256
 161 595 213 554 201 461 c 256
 185 339 62 324 62 177 c 256
 62 125 72 61 112 61 c 256
 161 61 166 133 159 229 c 257
 223 229 l 257
 218 172 229 60 273 60 c 256
 319 60 326 139 329 225 c 256
 334 351 314 535 308 579 c 257
 327 584 357 591 372 595 c 257
NamedP: "+A1kBGgD5"
EndSplineSet
Validated: 33
EndChar

StartChar: knBHA
Encoding: 491 3245 426
Width: 477
VWidth: 0
Flags: HMW
LayerCount: 2
Fore
SplineSet
453 672 m 257
NamedP: "+AFwBGgD5"
 453 622 429 558 320 546 c 256
 302 544 273 537 261 536 c 257
 260 590 l 257
 275 590 304 594 317 595 c 256
 373 599 403 626 400 666 c 257
 409 667 432 667 453 672 c 257
NamedP: "+AFwBGgD5"
393 352 m 256
 393 79 344 0 271 0 c 256
 247 0 196 23 194 132 c 257
 188 23 154 0 106 0 c 256
 34 0 6 105 6 174 c 256
 6 341 123 370 143 460 c 256
 153 506 142 542 106 542 c 256
 75 542 53 507 59 487 c 257
 57 487 5 481 3 481 c 257
 -2 516 24 595 109 595 c 256
 161 595 213 554 201 461 c 256
 185 339 62 324 62 177 c 256
 62 125 72 61 112 61 c 256
 161 61 166 133 159 229 c 257
 223 229 l 257
 218 172 229 60 273 60 c 256
 319 60 329 135 329 348 c 256
 329 521 294 536 261 536 c 257
 260 590 l 257
 399 590 393 406 393 352 c 256
224 -130 m 257
 175 -137 l 257
 175 -118 174 -51 171 -30 c 257
 174 -31 179 -31 185 -31 c 258
 201 -31 l 258
 207 -31 213 -31 219 -30 c 257
 219 -46 220 -119 224 -130 c 257
EndSplineSet
Validated: 37
EndChar

StartChar: knMA
Encoding: 492 3246 427
Width: 640
VWidth: 0
Flags: HMW
LayerCount: 2
Fore
SplineSet
454 672 m 257
NamedP: "n+B4QGuQAA"
 454 622 427 548 321 546 c 256
 288 545 73 538 33 536 c 257
 32 590 l 257
 72 590 275 592 318 595 c 256
 374 598 408 624 405 664 c 257
 414 665 433 667 454 672 c 257
NamedP: "n+B4QGuQAA"
557 595 m 257
 559 562 549 271 548 227 c 256
 544 88 502 0 435 0 c 256
 390 0 368 27 351 59 c 257
 379 110 l 257
 383 81 404 47 433 47 c 256
 487 47 493 196 493 226 c 256
 493 261 495 553 493 579 c 257
 512 584 542 591 557 595 c 257
338 297 m 256
 338 374 368 543 213 543 c 256
 215 543 213 589 215 591 c 257
 407 591 394 407 394 293 c 256
 394 113 372 0 274 0 c 256
 244 0 207 31 196 131 c 257
 192 67 172 0 111 0 c 256
 66 0 9 31 9 139 c 258
 9 156 l 258
 9 198 25 303 123 303 c 257
 123 247 l 257
 112 247 62 247 62 137 c 256
 62 92 74 60 105 60 c 256
 140 60 162 107 162 227 c 257
 162 228 l 257
 225 227 l 257
 225 137 242 59 275 59 c 256
 338 59 338 152 338 297 c 256
EndSplineSet
Validated: 37
EndChar

StartChar: knYA
Encoding: 493 3247 428
Width: 711
VWidth: 0
Flags: HMW
LayerCount: 2
Fore
SplineSet
509 664 m 257
NamedP: "p+B4QGuQAA"
 509 614 482 542 376 538 c 256
 347 537 305 530 294 530 c 257
 289 582 l 257
 297 580 330 584 373 587 c 256
 429 590 459 618 456 658 c 257
 465 659 488 659 509 664 c 257
NamedP: "p+B4QGuQAA"
623 595 m 257
 625 562 615 271 614 227 c 256
 610 88 568 0 501 0 c 256
 456 0 434 27 417 59 c 257
 445 110 l 257
 449 81 470 47 499 47 c 256
 553 47 559 196 559 226 c 256
 559 261 561 553 559 579 c 257
 578 584 608 591 623 595 c 257
465 312 m 256
 465 96 436 0 337 0 c 256
 239 0 225 108 225 192 c 257
 279 211 l 257
 278 110 289 53 338 53 c 256
 396 53 405 118 405 316 c 256
 405 521 364 536 308 531 c 256
 310 531 308 573 307 582 c 257
 405 582 465 546 465 312 c 256
279 263 m 256
 279 116 262 0 136 0 c 256
 39 0 1 85 1 291 c 256
 1 507 31 588 142 588 c 256
 262 588 279 468 279 263 c 256
224 290 m 256
 224 497 189 540 134 540 c 256
 67 540 55 471 55 301 c 256
 55 114 83 46 151 46 c 256
 204 46 224 111 224 290 c 256
EndSplineSet
Validated: 37
EndChar

StartChar: knRA
Encoding: 494 3248 429
Width: 387
VWidth: 0
Flags: HMW
LayerCount: 2
Fore
SplineSet
363 672 m 257
NamedP: "+AeEBGgD5"
 342 667 319 667 310 666 c 257
 313 626 283 598 227 595 c 256
 184 592 75 590 0 590 c 257
 1 536 l 257
 44 539 197 545 230 546 c 256
 336 548 363 622 363 672 c 257
NamedP: "+AeEBGgD5"
237 290 m 256
 237 110 217 47 161 47 c 256
 89 47 63 112 63 301 c 256
 63 472 76 542 145 542 c 256
 201 542 237 499 237 290 c 256
289 263 m 256
 289 468 272 588 152 588 c 256
 41 588 11 507 11 291 c 256
 11 85 49 0 146 0 c 256
 272 0 289 116 289 263 c 256
EndSplineSet
Validated: 37
EndChar

StartChar: knLA
Encoding: 495 3250 430
Width: 413
VWidth: 0
Flags: HMW
LayerCount: 2
Fore
SplineSet
168 0 m 256
NamedP: "+IRoA+QAA"
 271 0 319 103 319 236 c 256
 319 280 327 563 327 595 c 257
 312 591 282 584 263 579 c 257
 265 553 264 268 264 233 c 256
 264 138 252 49 168 49 c 256
 108 49 53 105 52 202 c 256
 52 234 52 257 52 284 c 257
 59 260 77 240 98 240 c 256
 147 240 172 280 174 419 c 256
 176 531 157 593 83 593 c 256
 48 593 6 564 8 480 c 257
 5 339 4 322 8 203 c 256
 12 75 83 0 168 0 c 256
NamedP: "+IRoA+QAA"
126 405 m 256
 125 310 122 289 101 289 c 256
 73 289 52 312 52 491 c 257
 53 530 72 552 87 552 c 256
 119 552 127 499 126 405 c 256
EndSplineSet
Validated: 41
EndChar

StartChar: knVA
Encoding: 496 3253 431
Width: 487
VWidth: 0
Flags: HMW
LayerCount: 2
Fore
SplineSet
438 670 m 257
NamedP: "+IRoA+QAA"
 438 620 417 548 311 546 c 256
 278 545 57 540 13 536 c 257
 12 590 l 257
 86 590 265 592 308 595 c 256
 364 598 388 624 389 662 c 257
 400 664 422 666 438 670 c 257
NamedP: "+IRoA+QAA"
404 293 m 256
 404 113 382 0 284 0 c 256
 254 0 197 31 186 131 c 257
 182 67 162 0 101 0 c 256
 56 0 -1 31 -1 139 c 258
 -1 156 l 258
 -1 198 15 303 113 303 c 257
 113 247 l 257
 102 247 52 247 52 137 c 256
 52 92 64 60 95 60 c 256
 130 60 152 107 152 227 c 257
 152 228 l 257
 215 227 l 257
 215 137 252 59 285 59 c 256
 348 59 348 152 348 297 c 256
 348 374 333 543 178 543 c 256
 180 543 178 589 180 591 c 257
 372 591 404 407 404 293 c 256
EndSplineSet
Validated: 37
EndChar

StartChar: knSHA
Encoding: 497 3254 432
Width: 465
VWidth: 0
Flags: HMW
LayerCount: 2
Fore
SplineSet
415 672 m 257
NamedP: "+QRoA+QAA"
 394 667 375 665 366 664 c 257
 369 624 335 598 279 595 c 256
 236 592 77 590 3 590 c 257
 4 536 l 257
 48 540 249 545 282 546 c 256
 388 548 415 622 415 672 c 257
NamedP: "+QRoA+QAA"
389 299 m 256
 389 445 328 589 164 592 c 257
 162 590 167 546 165 546 c 256
 292 546 333 406 333 303 c 256
 333 131 277 58 193 58 c 256
 137 58 89 93 89 162 c 256
 89 250 146 303 186 330 c 256
 304 410 262 573 140 573 c 256
 14 573 33 443 72 409 c 257
 129 415 l 257
 84 452 86 525 141 525 c 256
 216 525 232 420 160 369 c 256
 96 323 34 269 34 163 c 256
 34 35 130 0 191 0 c 256
 308 0 389 92 389 299 c 256
EndSplineSet
Validated: 37
EndChar

StartChar: knSSA
Encoding: 498 3255 433
Width: 493
VWidth: 0
Flags: HMW
LayerCount: 2
Fore
SplineSet
409 673 m 257
NamedP: "+AYQGuQAA"
 409 623 382 549 276 547 c 256
 243 546 26 542 2 542 c 257
 1 591 l 257
 37 591 230 595 273 596 c 256
 329 598 359 627 356 667 c 257
 365 668 388 668 409 673 c 257
NamedP: "+AYQGuQAA"
255 569 m 257
 255 486 222 421 156 421 c 256
 98 421 57 471 57 569 c 257
 103 569 l 257
 103 518 114 457 155 457 c 256
 191 457 210 502 210 569 c 257
 255 569 l 257
417 -52 m 257
 374 -63 l 257
 276 246 l 257
 324 252 l 257
 417 -52 l 257
418 226 m 256
 424 110 380 0 294 0 c 256
 264 0 207 31 196 131 c 257
 192 67 172 0 111 0 c 256
 66 0 9 31 9 139 c 258
 9 156 l 258
 9 198 25 303 123 303 c 257
 123 247 l 257
 112 247 62 247 62 137 c 256
 62 92 74 60 105 60 c 256
 140 60 162 107 162 227 c 257
 162 228 l 257
 225 227 l 257
 225 137 262 59 295 59 c 256
 340 59 372 125 363 225 c 256
 349 375 349 381 336 465 c 257
 355 470 385 477 400 481 c 257
 408 382 411 352 418 226 c 256
EndSplineSet
Validated: 37
EndChar

StartChar: knSA
Encoding: 499 3256 434
Width: 453
VWidth: 0
Flags: HMW
LayerCount: 2
Fore
SplineSet
251 0 m 256
NamedP: "+AYQGuQAA"
 106 0 185 193 108 193 c 256
 55 193 47 109 87 1 c 257
 22 -4 l 257
 -7 129 10 243 104 243 c 256
 248 243 144 59 252 59 c 256
 319 59 326 121 326 251 c 256
 326 279 311 439 306 466 c 257
 325 471 355 478 370 482 c 257
 372 456 385 282 385 242 c 256
 385 87 350 0 251 0 c 256
NamedP: "+AYQGuQAA"
379 673 m 257
 379 623 352 549 246 547 c 256
 213 546 26 537 2 537 c 257
 1 591 l 257
 37 591 200 595 243 596 c 256
 299 598 329 627 326 667 c 257
 335 668 358 668 379 673 c 257
215 569 m 257
 215 486 192 421 126 421 c 256
 68 421 37 471 37 569 c 257
 83 569 l 257
 83 518 84 457 125 457 c 256
 161 457 170 502 170 569 c 257
 215 569 l 257
EndSplineSet
Validated: 37
EndChar

StartChar: knHA
Encoding: 500 3257 435
Width: 466
VWidth: 0
Flags: HMW
LayerCount: 2
Fore
SplineSet
393 672 m 257
NamedP: "'+AkQGuQAA"
 387 672 351 666 345 666 c 257
 348 626 313 599 257 595 c 256
 214 592 22 590 9 590 c 257
 10 539 l 257
 22 539 227 545 260 546 c 256
 366 548 393 622 393 672 c 257
NamedP: "'+AkQGuQAA"
351 218 m 256
 351 70 340 41 294 41 c 256
 250 41 228 92 228 229 c 256
 228 328 240 401 289 401 c 256
 327 401 351 384 351 218 c 256
401 231 m 256
 401 356 387 444 297 444 c 256
 215 444 176 362 176 220 c 256
 176 75 208 0 284 0 c 256
 385 0 401 80 401 231 c 256
223 320 m 257
 228 348 225 376 224 403 c 256
 221 450 216 504 179 549 c 257
 161 549 133 549 124 549 c 257
 157 522 176 468 181 416 c 256
 184 386 184 354 182 320 c 257
 223 320 l 257
176 218 m 256
 176 70 165 41 119 41 c 256
 75 41 53 92 53 229 c 256
 53 328 65 401 114 401 c 256
 152 401 176 384 176 218 c 256
226 231 m 256
 226 356 212 444 122 444 c 256
 40 444 1 362 1 220 c 256
 1 75 33 0 109 0 c 256
 210 0 226 80 226 231 c 256
EndSplineSet
Validated: 37
EndChar

StartChar: knRRA
Encoding: 501 3249 436
Width: 470
VWidth: 0
Flags: HMW
LayerCount: 2
Fore
SplineSet
307 274 m 258
NamedP: "+BSoBGgD5"
 308 266 304 260 297 260 c 258
 103 260 l 258
 96 260 95 265 94 272 c 257
 95 290 l 257
 94 297 108 302 115 302 c 258
 286 302 l 258
 293 302 304 301 305 293 c 258
 307 274 l 258
NamedP: "+BSoBGgD5"
398 232 m 256
 398 101 371 0 291 0 c 256
 251 0 220 36 201 130 c 257
 194 84 195 1 115 0 c 256
 49 -1 10 49 10 233 c 256
 10 267 10 458 10 490 c 256
 10 540 35 594 83 594 c 256
 154 594 174 532 174 419 c 256
 174 309 159 259 103 260 c 256
 77 260 67 278 58 289 c 257
 59 261 58 229 58 195 c 256
 59 147 57 60 118 60 c 256
 162 60 166 117 166 229 c 257
 230 229 l 257
 236 90 259 60 290 60 c 256
 358 60 350 170 350 194 c 256
 350 228 349 260 350 288 c 257
 343 277 331 260 305 260 c 256
 249 259 234 308 234 418 c 256
 234 531 254 593 325 593 c 256
 373 593 398 539 398 489 c 256
 398 457 398 266 398 232 c 256
350 462 m 256
 350 541 336 551 321 552 c 256
 289 555 285 516 283 418 c 256
 281 323 286 303 307 303 c 256
 335 303 350 311 350 462 c 256
125 419 m 256
 123 517 119 556 87 553 c 256
 72 552 58 542 58 463 c 256
 58 312 73 304 101 304 c 256
 122 304 127 324 125 419 c 256
EndSplineSet
Validated: 37
EndChar

StartChar: knLLA
Encoding: 502 3251 437
Width: 411
VWidth: 0
Flags: HMW
LayerCount: 2
Fore
SplineSet
391 671 m 257
NamedP: "+BaoBGgD5"
 393 624 386 550 315 542 c 256
 301 540 247 538 245 538 c 257
 244 590 l 257
 270 591 295 592 316 595 c 256
 347 599 345 635 344 666 c 257
 353 667 372 669 391 671 c 257
NamedP: "+BaoBGgD5"
324 583 m 257
 324 554 322 474 322 430 c 256
 322 340 265 255 171 255 c 256
 82 255 23 312 7 384 c 256
 1 412 0 450 0 485 c 256
 0 569 38 598 73 598 c 256
 147 598 161 552 161 479 c 256
 161 403 138 364 89 364 c 256
 71 364 60 373 56 383 c 257
 57 359 88 304 171 304 c 256
 242 304 267 383 267 427 c 256
 267 462 269 547 270 573 c 257
 289 578 309 579 324 583 c 257
289 153 m 256
 289 41 241 0 168 0 c 256
 112 0 47 27 47 149 c 256
 47 258 98 304 171 304 c 256
 227 304 289 267 289 153 c 256
116 466 m 256
 116 541 111 560 77 560 c 256
 62 560 49 535 48 496 c 257
 48 430 65 404 85 404 c 256
 106 404 116 437 116 466 c 256
239 155 m 256
 239 213 220 255 171 255 c 256
 115 255 98 214 98 151 c 256
 98 61 145 48 169 48 c 256
 203 48 239 62 239 155 c 256
EndSplineSet
Validated: 37
EndChar

StartChar: knLLLA
Encoding: 503 3294 438
Width: 470
VWidth: 0
Flags: HMW
LayerCount: 2
Fore
SplineSet
398 232 m 256
NamedP: "+A8QGuQAA"
 398 101 371 0 291 0 c 256
 251 0 220 36 201 130 c 257
 194 84 195 1 115 0 c 256
 49 -1 10 49 10 233 c 256
 10 267 10 458 10 490 c 256
 10 540 35 594 83 594 c 256
 154 594 174 532 174 419 c 256
 174 309 159 259 103 260 c 256
 77 260 67 278 58 289 c 257
 59 261 58 229 58 195 c 256
 59 147 57 60 118 60 c 256
 162 60 166 117 166 229 c 257
 230 229 l 257
 236 90 259 60 290 60 c 256
 358 60 350 170 350 194 c 256
 350 228 349 260 350 288 c 257
 343 277 331 260 305 260 c 256
 249 259 234 308 234 418 c 256
 234 531 254 593 325 593 c 256
 373 593 398 539 398 489 c 256
 398 457 398 266 398 232 c 256
NamedP: "+A8QGuQAA"
350 462 m 256
 350 541 336 551 321 552 c 256
 289 555 285 516 283 418 c 256
 281 323 286 303 307 303 c 256
 335 303 350 311 350 462 c 256
125 419 m 256
 123 517 119 556 87 553 c 256
 72 552 58 542 58 463 c 256
 58 312 73 304 101 304 c 256
 122 304 127 324 125 419 c 256
EndSplineSet
Validated: 33
EndChar

StartChar: knAnusvara
Encoding: 504 3202 439
Width: 362
VWidth: 0
Flags: HMW
LayerCount: 2
Fore
SplineSet
237 290 m 256
NamedP: "+B+8BGgD5"
 237 110 219 42 163 42 c 256
 91 42 63 113 63 301 c 256
 63 472 76 543 144 543 c 256
 201 543 237 499 237 290 c 256
NamedP: "+B+8BGgD5"
289 263 m 256
 289 468 272 588 152 588 c 256
 41 588 11 507 11 291 c 256
 11 85 49 0 146 0 c 256
 272 0 289 116 289 263 c 256
EndSplineSet
Validated: 9
EndChar

StartChar: knCandrabindu
Encoding: 505 3201 440
Width: 1
GlyphClass: 4
Flags: HMW
LayerCount: 2
Fore
SplineSet
0 488 m 0
 -54 488 -113 527 -131 603 c 1
 -81 628 l 1
 -62 569 -42 544 0 544 c 0
 42 544 67 575 80 629 c 1
 129 607 l 1
 111 530 59 488 0 488 c 0
13.171875 666.32421875 m 0
 13.171875 675.65625 8.083984375 684.989257812 -0.0556640625 684.989257812 c 0
 -8.1962890625 684.989257812 -12.2666015625 675.65625 -12.2666015625 666.32421875 c 0
 -12.2666015625 656.991210938 -8.1962890625 647.659179688 -0.0556640625 647.659179688 c 0
 8.083984375 647.659179688 13.171875 656.991210938 13.171875 666.32421875 c 0
54.8916015625 666.32421875 m 0
 54.8916015625 628.995117188 31.48828125 596.998046875 -0.0556640625 596.998046875 c 0
 -31.599609375 596.998046875 -53.9853515625 627.662109375 -53.9853515625 666.32421875 c 0
 -53.9853515625 702.3203125 -31.599609375 735.650390625 -0.0556640625 735.650390625 c 0
 31.48828125 735.650390625 54.8916015625 702.3203125 54.8916015625 666.32421875 c 0
EndSplineSet
Validated: 1
EndChar

StartChar: knVisarga
Encoding: 506 3203 441
Width: 249
VWidth: 0
Flags: HMW
LayerCount: 2
Fore
SplineSet
135 427 m 256
NamedP: "R+BEQGuQAA"
 135 361 128 336 104 336 c 256
 73 336 60 362 60 431 c 256
 60 494 66 520 95 520 c 256
 120 520 135 504 135 427 c 256
NamedP: "R+BEQGuQAA"
168 415 m 256
 168 504 160 556 99 556 c 256
 43 556 28 521 28 427 c 256
 28 338 47 301 96 301 c 256
 160 301 168 351 168 415 c 256
135 126 m 256
 135 60 128 35 104 35 c 256
 73 35 60 61 60 130 c 256
 60 193 66 219 95 219 c 256
 120 219 135 203 135 126 c 256
168 114 m 256
 168 203 160 255 99 255 c 256
 43 255 28 220 28 126 c 256
 28 37 47 0 96 0 c 256
 160 0 168 50 168 114 c 256
EndSplineSet
Validated: 9
EndChar

StartChar: knVirama
Encoding: 507 3277 442
Width: 223
VWidth: 0
Flags: HMW
LayerCount: 2
Fore
SplineSet
168 498 m 256
NamedP: "+BrkA"
 168 447 156 380 87 380 c 256
 26 380 0 437 0 492 c 256
 0 654 20 697 115 697 c 256
 115 697 116 653 115 655 c 257
 48 655 48 615 48 508 c 256
 48 479 47 424 88 424 c 256
 121 424 122 467 122 487 c 256
 122 523 112 543 81 543 c 258
 49 543 l 258
 30 543 11 542 -13 542 c 258
 -102 542 l 257
 -102 541 -103 554 -103 566 c 257
 -104 573 -104 582 -104 591 c 257
 79 591 l 258
 124 591 168 559 168 498 c 256
NamedP: "+BrkA"
EndSplineSet
Validated: 37
EndChar

StartChar: knNukta
Encoding: 508 3260 443
Width: 574
GlyphClass: 4
Flags: HMW
LayerCount: 2
Fore
SplineSet
369 -122 m 0
 369 -86 396 -60 423 -60 c 0
 454 -60 476 -85 476 -122 c 0
 476 -167 454 -184 423 -184 c 0
 396 -184 369 -166 369 -122 c 0
99 -122 m 0
 99 -86 126 -60 153 -60 c 0
 184 -60 206 -85 206 -122 c 0
 206 -167 184 -184 153 -184 c 0
 126 -184 99 -166 99 -122 c 0
410 -122 m 0
 410 -131 420 -126 423 -126 c 0
 426 -126 435 -130 435 -122 c 0
 435 -111 426 -118 423 -118 c 0
 420 -118 410 -111 410 -122 c 0
140 -122 m 0
 140 -131 150 -126 153 -126 c 0
 156 -126 165 -130 165 -122 c 0
 165 -111 156 -118 153 -118 c 0
 150 -118 140 -111 140 -122 c 0
EndSplineSet
Validated: 1
EndChar

StartChar: knZero
Encoding: 509 3302 444
Width: 362
Flags: HMW
LayerCount: 2
Fore
SplineSet
266 290 m 0
 266 496 230 539 180 539 c 0
 126 539 97 469 97 301 c 0
 97 116 124 46 194 46 c 0
 248 46 266 113 266 290 c 0
320 263 m 0
 320 116 303 0 177 0 c 0
 80 0 42 85 42 291 c 0
 42 507 74 588 185 588 c 0
 305 588 320 468 320 263 c 0
EndSplineSet
Validated: 1
EndChar

StartChar: knOne
Encoding: 510 3303 445
Width: 415
Flags: HMW
LayerCount: 2
Fore
SplineSet
352 0 m 1
 287 -3 l 1
 286 137 290 278 286 420 c 0
 284 500 256 537 202 537 c 0
 158 537 119 507 119 411 c 0
 119 326 116 168 124 -1 c 1
 58 -5 l 1
 58 413 l 2
 58 548 135 591 197 591 c 0
 276 591 339 553 344 430 c 0
 348 332 347 225 352 0 c 1
EndSplineSet
Validated: 33
EndChar

StartChar: knTwo
Encoding: 511 3304 446
Width: 391
Flags: HMW
LayerCount: 2
Fore
SplineSet
355 410 m 0
 355 286 363 0 22 0 c 1
 24 14 25 33 27 54 c 1
 296 54 300 273 300 409 c 0
 300 481 298 536 251 536 c 0
 210 536 196 490 196 430 c 0
 196 332 268 327 303 327 c 1
 300 314 299 292 299 279 c 1
 266 279 143 282 143 444 c 0
 143 544 192 592 251 592 c 0
 336 592 355 523 355 410 c 0
EndSplineSet
Validated: 37
EndChar

StartChar: knThree
Encoding: 512 3305 447
Width: 500
Flags: HMW
LayerCount: 2
Fore
SplineSet
464 161 m 1
 464 76 420 0 337 0 c 0
 292 0 268 31 251 63 c 1
 281 110 l 1
 285 81 306 47 335 47 c 0
 404 47 409 130 409 160 c 1
 425 160 447 161 464 161 c 1
223 115 m 0
 223 148 177 197 137 192 c 0
 112 189 84 159 84 123 c 0
 84 91 101 52 150 52 c 0
 185 52 223 85 223 115 c 0
215 523 m 1
 208 532 198 545 155 545 c 0
 94 545 96 474 97 453 c 0
 99 402 120 364 149 364 c 0
 179 364 212 391 215 523 c 1
150 0 m 0
 67 0 32 68 32 115 c 0
 32 187 80 240 139 240 c 0
 200 240 245 189 250 162 c 1
 261 197 265 257 265 312 c 0
 265 379 263 427 252 470 c 1
 253 387 217 314 149 314 c 0
 111 314 46 347 46 455 c 0
 46 504 59 595 158 595 c 0
 273 595 319 483 316 316 c 0
 313 155 272 0 150 0 c 0
EndSplineSet
Validated: 37
EndChar

StartChar: knFour
Encoding: 513 3306 448
Width: 461
Flags: HMW
LayerCount: 2
Fore
SplineSet
230 205 m 0
 174 205 156 176 156 129 c 0
 156 61 200 56 223 55 c 0
 249 54 297 63 298 134 c 0
 299 175 281 205 230 205 c 0
233 258 m 0
 289 258 349 228 348 132 c 0
 347 50 309 1 222 1 c 0
 166 1 105 33 105 127 c 0
 105 219 158 258 233 258 c 0
228 460 m 0
 231 483 233 544 173 544 c 0
 150 544 142 533 130 522 c 1
 114 406 155 392 181 392 c 0
 217 392 225 431 228 460 c 0
229 205 m 0
 85 205 32 309 32 392 c 0
 32 524 82 595 166 595 c 0
 270 595 282 510 282 461 c 0
 282 366 215 343 179 343 c 0
 148 343 77 380 89 464 c 1
 85 452 83 420 83 395 c 0
 83 318 131 259 231 259 c 0
 300 259 370 292 370 408 c 0
 370 451 347 547 338 586 c 1
 399 587 l 1
 411 531 426 463 426 407 c 0
 426 264 330 205 229 205 c 0
EndSplineSet
Validated: 37
EndChar

StartChar: knFive
Encoding: 514 3307 449
Width: 577
Flags: HMW
LayerCount: 2
Fore
SplineSet
350 354 m 1
 394 379 492 429 492 488 c 0
 492 533 464 546 440 546 c 0
 403 546 349 448 350 354 c 1
395 87 m 0
 397 82 402 47 438 46 c 0
 484 45 497 121 496 141 c 0
 494 192 485 225 460 225 c 0
 420 225 399 119 395 87 c 0
443 595 m 0
 502 595 539 558 539 498 c 0
 539 384 420 338 350 303 c 1
 350 249 353 190 364 136 c 1
 366 198 404 275 464 275 c 0
 494 275 547 258 543 145 c 0
 541 85 520 0 436 0 c 0
 344 0 303 120 299 287 c 0
 295 468 352 595 443 595 c 0
227 244 m 1
 226 293 l 1
 348 353 l 1
 350 304 l 1
 227 244 l 1
227 244 m 1
 183 221 85 166 85 108 c 0
 85 62 112 47 137 47 c 0
 175 47 224 128 227 244 c 1
186 518 m 0
 183 521 178 546 142 546 c 0
 90 546 86 476 87 456 c 0
 89 405 99 367 128 367 c 0
 159 367 183 397 186 518 c 0
138 0 m 0
 79 0 41 40 41 100 c 0
 42 203 159 257 226 293 c 1
 226 346 224 415 217 457 c 1
 217 373 185 319 125 319 c 0
 91 319 37 349 37 457 c 0
 37 505 57 596 141 596 c 0
 233 596 274 497 274 310 c 0
 274 150 229 0 138 0 c 0
EndSplineSet
Validated: 37
EndChar

StartChar: knSix
Encoding: 515 3308 450
Width: 389
Flags: HMW
LayerCount: 2
Fore
SplineSet
256 417 m 0
 215 434 158 424 128 397 c 1
 152 342 193 320 219 310 c 0
 246 300 293 298 304 330 c 0
 315 363 303 398 256 417 c 0
349 46 m 1
 349 31 350 15 349 0 c 1
 119 0 31 48 31 194 c 0
 31 298 31 380 73 419 c 1
 59 470 71 540 89 593 c 1
 112 592 124 593 147 593 c 1
 132 558 107 486 117 442 c 1
 159 471 222 479 274 459 c 0
 336 435 375 371 349 312 c 0
 327 261 255 243 201 264 c 0
 166 278 114 311 98 368 c 1
 78 342 80 270 80 186 c 0
 80 76 176 46 349 46 c 1
EndSplineSet
Validated: 33
EndChar

StartChar: knSeven
Encoding: 516 3309 451
Width: 467
Flags: HMW
LayerCount: 2
Fore
SplineSet
421 -1 m 1
 158 -1 l 2
 65 -1 42 52 42 96 c 0
 42 162 91 201 159 267 c 0
 194 302 228 364 228 419 c 0
 228 441 222 497 166 497 c 0
 108 497 97 418 97 376 c 1
 81 376 42 376 42 376 c 1
 42 463 73 551 167 551 c 0
 272 551 284 457 284 420 c 0
 284 354 255 286 180 211 c 0
 152 183 102 143 102 95 c 0
 102 70 125 56 158 56 c 2
 421 56 l 1
 421 -1 l 1
EndSplineSet
Validated: 1
EndChar

StartChar: knEight
Encoding: 517 3310 452
Width: 421
Flags: HMW
LayerCount: 2
Fore
SplineSet
177 403 m 0
 177 539 144 556 112 553 c 0
 97 552 80 533 80 497 c 0
 80 319 115 283 143 283 c 0
 163 283 177 308 177 403 c 0
201 0 m 0
 116 0 38 75 35 203 c 0
 31 324 30 418 30 459 c 0
 30 569 80 594 116 594 c 0
 200 594 229 531 229 418 c 0
 229 302 213 240 145 240 c 0
 114 240 82 265 77 290 c 1
 78 262 80 234 80 199 c 0
 80 103 141 49 201 49 c 0
 284 49 307 138 307 233 c 0
 307 280 290 401 275 482 c 0
 264 539 287 590 364 590 c 2
 404 590 l 1
 404 534 l 1
 364 534 l 2
 333 534 324 505 330 482 c 0
 346 422 362 302 362 237 c 0
 362 105 305 0 201 0 c 0
EndSplineSet
Validated: 33
EndChar

StartChar: knNine
Encoding: 518 3311 453
Width: 416
Flags: HMW
LayerCount: 2
Fore
SplineSet
214 344 m 0
 176 334 147 298 135 266 c 1
 162 250 183 241 210 241 c 0
 241 241 281 259 281 299 c 0
 281 339 238 350 214 344 c 0
377 536 m 1
 186 536 l 2
 122 536 83 489 83 414 c 0
 83 349 88 329 98 306 c 1
 125 357 174 393 214 396 c 0
 284 401 325 357 325 298 c 0
 325 251 291 197 212 197 c 0
 188 197 166 202 133 215 c 1
 116 142 179 60 235 47 c 1
 235 -3 l 1
 123 20 64 133 86 244 c 1
 63 262 31 304 31 410 c 0
 31 532 84 589 186 589 c 2
 377 589 l 1
 377 536 l 1
EndSplineSet
Validated: 33
EndChar

StartChar: indianrupee
Encoding: 519 8377 454
Width: 390
VWidth: 0
Flags: HMW
LayerCount: 2
Fore
SplineSet
314 658 m 257
NamedP: "^+AoQGuQAA"
 252 658 43 657 0 657 c 257
 2 604 l 257
 78 604 264 605 313 605 c 257
 314 658 l 257
NamedP: "^+AoQGuQAA"
307 533 m 257
 288 533 51 528 8 528 c 257
 10 476 l 257
 86 476 290 477 306 477 c 257
 307 533 l 257
80 605 m 256
 166 605 151 554 153 481 c 256
 155 422 118 378 27 362 c 257
 28 319 l 257
 80 332 120 289 131 265 c 256
 149 224 183 107 203 -8 c 257
 278 10 l 257
 238 156 212 233 196 278 c 256
 188 302 150 352 128 355 c 257
 169 371 221 417 221 489 c 256
 221 602 191 656 98 656 c 256
 53 656 42 654 27 654 c 257
 31 605 l 257
 65 605 45 605 80 605 c 256
EndSplineSet
Validated: 37
EndChar

StartChar: zerowidthnonjoiner
Encoding: 520 8204 455
Width: 0
Flags: HMW
LayerCount: 2
Fore
SplineSet
-12 -286 m 1
 -38 -286 l 1
 -38 742 l 1
 -12 742 l 1
 -12 -286 l 1
EndSplineSet
Validated: 1
EndChar

StartChar: zerowidthjoiner
Encoding: 521 8205 456
Width: 0
Flags: HMW
LayerCount: 2
Fore
SplineSet
-31 605 m 1
 -56 630 l 1
 -56 -252 l 1
 -83 -252 l 1
 -83 630 l 1
 -107 605 l 1
 -126 624 l 1
 -88 662 l 1
 -126 701 l 1
 -107 719 l 1
 -69 681 l 1
 -31 719 l 1
 -13 701 l 1
 -51 662 l 1
 -13 624 l 1
 -31 605 l 1
EndSplineSet
Validated: 1
EndChar

StartChar: dottedcircle
Encoding: 522 9676 457
Width: 660
Flags: HMW
LayerCount: 2
Fore
SplineSet
335 65 m 2
 335 83 l 2
 335 125 401 125 401 83 c 2
 401 65 l 2
 401 23 335 23 335 65 c 2
211 81 m 2
 211 99 l 2
 211 141 277 141 277 99 c 2
 277 81 l 2
 277 39 211 39 211 81 c 2
457 119 m 2
 457 137 l 2
 457 179 523 179 523 137 c 2
 523 119 l 2
 523 77 457 77 457 119 c 2
174 175 m 2
 174 157 l 2
 174 115 108 115 108 157 c 2
 108 175 l 2
 108 217 174 217 174 175 c 2
528 218 m 2
 528 236 l 2
 528 279 594 279 594 236 c 2
 594 218 l 2
 594 175 528 175 528 218 c 2
121 292 m 2
 121 274 l 2
 121 231 55 231 55 274 c 2
 55 292 l 2
 55 335 121 335 121 292 c 2
540 352 m 2
 540 370 l 2
 540 413 606 413 606 370 c 2
 606 352 l 2
 606 309 540 309 540 352 c 2
136 416 m 2
 136 398 l 2
 136 355 70 355 70 398 c 2
 70 416 l 2
 70 459 136 459 136 416 c 2
490 469 m 2
 490 487 l 2
 490 529 556 529 556 487 c 2
 556 469 l 2
 556 427 490 427 490 469 c 2
215 525 m 2
 215 507 l 2
 215 465 149 465 149 507 c 2
 149 525 l 2
 149 567 215 567 215 525 c 2
395 538 m 2
 395 556 l 2
 395 599 461 599 461 556 c 2
 461 538 l 2
 461 495 395 495 395 538 c 2
335 569 m 2
 335 551 l 2
 335 509 269 509 269 551 c 2
 269 569 l 2
 269 611 335 611 335 569 c 2
EndSplineSet
Validated: 33
EndChar

StartChar: knReph
Encoding: 523 -1 458
Width: 361
Flags: HMW
LayerCount: 2
Fore
SplineSet
326 536 m 1
 164 537 l 2
 109 537 85 488 85 435 c 0
 85 368 117 330 153 330 c 2
 154 330 l 1
 197 329 l 1
 199.307567983 317.462160086 198 293.665331657 198 279 c 1
 155 280 l 2
 107 281 90 218 90 165 c 0
 90 124 120 52 172 52 c 1
 172 1 l 1
 70 1 43 103 41 172 c 0
 40 211 56 280 109 304 c 1
 58 323 34 379 34 435 c 0
 34 520 68 593 164 592 c 2
 327 591 l 1
 327 576.014554214 326 546.583138124 326 536 c 1
EndSplineSet
Validated: 33
LCarets2: 1 0
Ligature2: "Ambarisha-Regular-'rphf' Reph Form lookup 0 subtable" knRA knVirama
EndChar

StartChar: knKAc2
Encoding: 524 -1 459
Width: 184
VWidth: 0
GlyphClass: 4
Flags: HMW
LayerCount: 2
Fore
SplineSet
1 -122 m 257
NamedP: "S+AUQGuQAA"
 -6 87 l 257
 43 88 l 257
 47 -120 l 257
 1 -122 l 257
NamedP: "S+AUQGuQAA"
-105 -129 m 257
 -106 -87 l 257
 -98 -89 -89 -89 -76 -89 c 258
 18 -89 l 258
 72 -89 128 -87 154 -84 c 257
 154 -129 l 257
 115 -123 -46 -120 -105 -129 c 257
31 -413 m 256
 -46 -413 -83 -341 -83 -245 c 256
 -83 -146 -60 -91 26 -91 c 256
 120 -91 133 -162 133 -265 c 256
 133 -313 131 -413 31 -413 c 256
22 -130 m 256
 -27 -130 -39 -178 -39 -238 c 256
 -39 -318 -18 -370 38 -370 c 256
 79 -370 88 -309 88 -246 c 256
 88 -153 62 -130 22 -130 c 256
EndSplineSet
Validated: 37
LCarets2: 1 0
Substitution2: "Ambarisha-Regular-Single Substitution lookup 9 subtable" knKAc2.following
Ligature2: "Ambarisha-Regular-'blwf' Below Base Forms in Kannada lookup 2 subtable" knKA knVirama
Ligature2: "Ambarisha-Regular-'blwf' Below Base Forms in Kannada2 lookup 1 subtable" knVirama knKA
EndChar

StartChar: knKHAc2
Encoding: 525 -1 460
Width: 97
VWidth: 0
GlyphClass: 4
Flags: HMW
LayerCount: 2
Fore
SplineSet
-165 -420 m 256
NamedP: "+BYYBGgD5"
 -222 -420 -244 -377 -246 -347 c 257
 -247 -306 -218 -272 -182 -268 c 256
 -140 -263 -113 -290 -105 -314 c 257
 -86 -264 -93 -197 -116 -162 c 257
 -113 -222 -155 -246 -179 -246 c 256
 -199 -246 -256 -235 -253 -157 c 256
 -252 -127 -233 -83 -168 -83 c 256
 -42 -83 -32 -312 -98 -385 c 256
 -121 -411 -148 -420 -165 -420 c 256
NamedP: "+BYYBGgD5"
-171 -120 m 256
 -204 -120 -210 -150 -211 -162 c 256
 -214 -188 -195 -204 -183 -204 c 256
 -170 -204 -139 -203 -146 -131 c 257
 -152 -125 -158 -120 -171 -120 c 256
-177 -303 m 256
 -191 -305 -210 -321 -210 -341 c 256
 -210 -359 -197 -379 -169 -379 c 257
 -149 -380 -124 -363 -124 -343 c 256
 -124 -316 -152 -300 -177 -303 c 256
49 60 m 257
 51 34 42 -234 41 -269 c 256
 38 -382 16 -422 -38 -422 c 256
 -74 -422 -92 -398 -106 -372 c 257
 -81 -334 l 257
 -78 -358 -61 -385 -38 -385 c 256
 6 -385 -3 -294 -3 -270 c 256
 -3 -242 -1 33 -2 54 c 257
 13 56 42 59 49 60 c 257
EndSplineSet
Validated: 37
LCarets2: 1 0
Substitution2: "Ambarisha-Regular-Single Substitution lookup 9 subtable" knKHAc2.following
Ligature2: "Ambarisha-Regular-'blwf' Below Base Forms in Kannada lookup 2 subtable" knKHA knVirama
Ligature2: "Ambarisha-Regular-'blwf' Below Base Forms in Kannada2 lookup 1 subtable" knVirama knKHA
EndChar

StartChar: knGAc2
Encoding: 526 -1 461
Width: 0
VWidth: 0
GlyphClass: 4
Flags: HMW
LayerCount: 2
Fore
SplineSet
-198 -422 m 257
NamedP: "G+ARoA+QAA"
 -198 -335 -194 -268 -200 -186 c 256
 -203 -142 -217 -124 -244 -124 c 256
 -278 -124 -289 -138 -289 -193 c 256
 -289 -242 -286 -317 -282 -420 c 257
 -329 -424 l 257
 -329 -191 l 258
 -329 -111 -283 -83 -246 -83 c 256
 -206 -83 -161 -107 -157 -181 c 256
 -154 -235 -156 -283 -151 -418 c 257
 -198 -422 l 257
NamedP: "G+ARoA+QAA"
EndSplineSet
Validated: 33
LCarets2: 1 0
Substitution2: "Ambarisha-Regular-Single Substitution lookup 9 subtable" knGAc2.following
Ligature2: "Ambarisha-Regular-'blwf' Below Base Forms in Kannada lookup 2 subtable" knGA knVirama
Ligature2: "Ambarisha-Regular-'blwf' Below Base Forms in Kannada2 lookup 1 subtable" knVirama knGA
EndChar

StartChar: knGHAc2
Encoding: 527 -1 462
Width: 172
VWidth: 0
GlyphClass: 4
Flags: HMW
LayerCount: 2
Fore
SplineSet
132 -65 m 257
NamedP: "X+AkQGuQAA"
 149 -149 136 -191 94 -201 c 257
 66 -209 27 -189 9 -155 c 257
 46 -137 l 257
 50 -155 65 -171 86 -165 c 256
 108 -159 107 -112 90 -76 c 256
 89 -75 132 -66 132 -65 c 257
NamedP: "X+AkQGuQAA"
57 -273 m 256
 62 -367 28 -423 -41 -423 c 256
 -65 -423 -111 -398 -120 -317 c 257
 -123 -369 -139 -423 -189 -423 c 256
 -225 -423 -271 -399 -271 -320 c 256
 -271 -275 -255 -211 -181 -211 c 257
 -181 -256 l 257
 -190 -256 -228 -249 -228 -322 c 256
 -228 -353 -218 -379 -193 -379 c 256
 -165 -379 -150 -369 -150 -272 c 257
 -150 -272 l 257
 -99 -272 l 257
 -99 -345 -67 -380 -40 -380 c 256
 -4 -380 20 -354 12 -274 c 256
 1 -153 1 -168 -10 -101 c 257
 6 -97 30 -91 42 -88 c 257
 48 -167 51 -172 57 -273 c 256
-98 -549 m 257
 -138 -554 l 257
 -138 -539 -139 -465 -141 -448 c 257
 -139 -449 -135 -449 -130 -449 c 258
 -117 -449 l 258
 -112 -449 -107 -449 -102 -448 c 257
 -102 -461 -101 -540 -98 -549 c 257
EndSplineSet
Validated: 37
LCarets2: 1 0
Substitution2: "Ambarisha-Regular-Single Substitution lookup 9 subtable" knGHAc2.following
Ligature2: "Ambarisha-Regular-'blwf' Below Base Forms in Kannada lookup 2 subtable" knGHA knVirama
Ligature2: "Ambarisha-Regular-'blwf' Below Base Forms in Kannada2 lookup 1 subtable" knVirama knGHA
EndChar

StartChar: knNGAc2
Encoding: 528 -1 463
Width: 0
VWidth: 0
GlyphClass: 4
Flags: HMW
LayerCount: 2
Fore
SplineSet
-82 -200 m 257
NamedP: "+oRoA+QAA"
 -77 -160 -97 -125 -122 -125 c 256
 -154 -125 -168 -157 -168 -169 c 257
 -200 -181 l 257
 -200 -151 -186 -88 -124 -88 c 256
 -60 -88 -44 -153 -47 -195 c 257
 -82 -200 l 257
NamedP: "+oRoA+QAA"
-125 -203 m 256
 -138 -203 -145 -188 -145 -173 c 256
 -145 -157 -138 -143 -125 -143 c 256
 -112 -143 -105 -157 -105 -173 c 256
 -105 -188 -112 -203 -125 -203 c 256
-121 -422 m 256
 -151 -422 -174 -394 -181 -356 c 257
 -193 -414 -228 -422 -245 -422 c 256
 -291 -422 -316 -370 -316 -328 c 256
 -316 -220 -206 -209 -206 -158 c 256
 -206 -133 -216 -120 -237 -120 c 256
 -255 -120 -264 -136 -264 -158 c 257
 -278 -158 -289 -161 -303 -161 c 257
 -306 -126 -288 -83 -235 -83 c 256
 -201 -83 -169 -105 -167 -158 c 256
 -166 -181 -173 -195 -184 -207 c 256
 -216 -242 -280 -275 -280 -326 c 256
 -280 -358 -267 -382 -245 -382 c 256
 -216 -382 -202 -332 -205 -294 c 257
 -157 -290 l 257
 -155 -309 -154 -330 -149 -350 c 256
 -145 -369 -137 -382 -123 -382 c 256
 -100 -382 -87 -358 -105 -300 c 257
 -61 -294 l 257
 -53 -347 -52 -422 -121 -422 c 256
EndSplineSet
Validated: 37
LCarets2: 1 0
Substitution2: "Ambarisha-Regular-Single Substitution lookup 9 subtable" knNGAc2.following
Ligature2: "Ambarisha-Regular-'blwf' Below Base Forms in Kannada lookup 2 subtable" knNGA knVirama
Ligature2: "Ambarisha-Regular-'blwf' Below Base Forms in Kannada2 lookup 1 subtable" knVirama knNGA
EndChar

StartChar: knCAc2
Encoding: 529 -1 464
Width: 0
VWidth: 0
GlyphClass: 4
Flags: HMW
LayerCount: 2
Fore
SplineSet
-65 -118 m 257
NamedP: "+QwQGuQAA"
 -84 -119 -125 -122 -154 -123 c 257
 -155 -86 l 257
 -130 -86 -89 -85 -68 -84 c 256
 -36 -83 -23 -70 -23 -48 c 257
 -14 -47 -3 -48 10 -46 c 257
 10 -79 -4 -111 -65 -118 c 257
NamedP: "+QwQGuQAA"
-119 -202 m 257
 -117 -171 -119 -144 -119 -114 c 257
 -84 -105 l 257
 -84 -137 -82 -167 -80 -197 c 257
 -119 -202 l 257
-82 -211 m 258
 -105 -212 -132 -213 -143 -213 c 257
 -147 -177 l 257
 -130 -178 -107 -177 -84 -177 c 258
 -43 -177 l 257
 -36 -209 l 257
 -82 -211 l 258
-120 -422 m 256
 -148 -422 -169 -395 -176 -359 c 257
 -188 -414 -223 -422 -238 -422 c 256
 -283 -422 -305 -360 -305 -321 c 256
 -306 -201 -202 -213 -202 -155 c 256
 -202 -130 -212 -119 -231 -119 c 256
 -248 -119 -256 -132 -256 -153 c 257
 -260 -153 -268 -154 -276 -155 c 256
 -283 -156 -290 -156 -294 -161 c 257
 -294 -125 -282 -83 -229 -83 c 256
 -197 -83 -165 -102 -165 -154 c 256
 -164 -239 -270 -212 -270 -319 c 256
 -270 -350 -259 -383 -238 -383 c 256
 -212 -383 -197 -336 -200 -301 c 257
 -153 -296 l 257
 -153 -329 -149 -383 -122 -383 c 256
 -92 -383 -79 -285 -121 -195 c 257
 -81 -194 l 257
 -33 -292 -49 -422 -120 -422 c 256
EndSplineSet
Validated: 37
LCarets2: 1 0
Substitution2: "Ambarisha-Regular-Single Substitution lookup 9 subtable" knCAc2.following
Ligature2: "Ambarisha-Regular-'blwf' Below Base Forms in Kannada lookup 2 subtable" knCA knVirama
Ligature2: "Ambarisha-Regular-'blwf' Below Base Forms in Kannada2 lookup 1 subtable" knVirama knCA
EndChar

StartChar: knCHAc2
Encoding: 530 -1 465
Width: 93
VWidth: 0
GlyphClass: 4
Flags: HMW
LayerCount: 2
Fore
SplineSet
-92 -504 m 257
NamedP: "+Ao4BGgD5"
 -121 -507 l 257
 -120 -496 -122 -449 -123 -437 c 257
 -95 -437 l 257
 -95 -448 -94 -495 -92 -504 c 257
NamedP: "+Ao4BGgD5"
-28 -114 m 256
 -38 -115 -41 -116 -46 -117 c 256
 -52 -118 -58 -119 -76 -120 c 257
 -77 -85 l 257
 -56 -85 -49 -84 -30 -82 c 256
 2 -78 15 -52 15 11 c 257
 26 13 38 10 50 12 c 257
 50 -61 36 -109 -28 -114 c 256
-58 -422 m 256
 -69 -422 -100 -407 -109 -365 c 257
 -116 -395 -135 -423 -166 -423 c 256
 -227 -423 -237 -329 -236 -275 c 256
 -235 -184 -226 -81 -158 -81 c 256
 -110 -81 -94 -127 -95 -153 c 256
 -97 -225 -140 -227 -155 -227 c 256
 -163 -227 -190 -218 -199 -188 c 257
 -200 -213 -200 -247 -200 -274 c 256
 -200 -308 -200 -385 -166 -385 c 256
 -138 -385 -131 -328 -133 -289 c 257
 -92 -289 l 257
 -92 -317 -82 -384 -54 -384 c 256
 -33 -384 -22 -338 -22 -286 c 258
 -22 -180 l 258
 -22 -123 -45 -119 -66 -119 c 257
 -66 -89 l 257
 14 -89 15 -163 15 -188 c 258
 15 -284 l 258
 15 -348 -3 -422 -58 -422 c 256
-155 -117 m 256
 -165 -117 -170 -121 -177 -131 c 257
 -180 -156 -182 -191 -149 -191 c 256
 -140 -191 -128 -183 -128 -155 c 256
 -128 -146 -132 -116 -155 -117 c 256
EndSplineSet
Validated: 37
LCarets2: 1 0
Substitution2: "Ambarisha-Regular-Single Substitution lookup 9 subtable" knCHAc2.following
Ligature2: "Ambarisha-Regular-'blwf' Below Base Forms in Kannada lookup 2 subtable" knCHA knVirama
Ligature2: "Ambarisha-Regular-'blwf' Below Base Forms in Kannada2 lookup 1 subtable" knVirama knCHA
EndChar

StartChar: knJAc2
Encoding: 531 -1 466
Width: 0
VWidth: 0
GlyphClass: 4
Flags: HMW
LayerCount: 2
Fore
SplineSet
-113 -208 m 256
NamedP: "<+BAQGuQAA"
 -165 -210 -173 -143 -173 -134 c 257
 -143 -134 l 257
 -142 -155 -133 -173 -115 -173 c 256
 -87 -173 -99 -120 -107 -86 c 257
 -67 -82 l 257
 -53 -137 -58 -205 -113 -208 c 256
NamedP: "<+BAQGuQAA"
-99 -423 m 256
 -126 -423 -147 -398 -155 -364 c 257
 -164 -415 -188 -423 -203 -423 c 256
 -247 -423 -281 -365 -281 -325 c 256
 -281 -256 -255 -226 -228 -207 c 256
 -209 -193 -177 -181 -177 -152 c 256
 -177 -129 -187 -118 -206 -118 c 256
 -222 -118 -231 -132 -231 -150 c 257
 -232 -151 -264 -155 -268 -155 c 257
 -270 -123 -255 -83 -204 -83 c 256
 -173 -83 -142 -103 -141 -152 c 257
 -139 -192 -165 -205 -193 -224 c 256
 -219 -242 -246 -265 -247 -323 c 256
 -247 -352 -227 -385 -206 -385 c 257
 -188 -386 -175 -328 -177 -290 c 257
 -136 -290 l 257
 -134 -322 -128 -386 -100 -386 c 256
 -79 -386 -67 -363 -84 -310 c 257
 -43 -305 l 257
 -34 -353 -34 -423 -99 -423 c 256
EndSplineSet
Validated: 37
LCarets2: 1 0
Substitution2: "Ambarisha-Regular-Single Substitution lookup 9 subtable" knJAc2.following
Ligature2: "Ambarisha-Regular-'blwf' Below Base Forms in Kannada lookup 2 subtable" knJA knVirama
Ligature2: "Ambarisha-Regular-'blwf' Below Base Forms in Kannada2 lookup 1 subtable" knVirama knJA
EndChar

StartChar: knJHAc2
Encoding: 532 -1 467
Width: 0
VWidth: 0
GlyphClass: 4
Flags: HMW
LayerCount: 2
Fore
SplineSet
-15 -291 m 256
NamedP: "+ERoA+QAA"
 -17 -368 -41 -423 -85 -423 c 256
 -114 -423 -128 -406 -139 -385 c 257
 -114 -341 l 257
 -110 -372 -98 -387 -86 -387 c 256
 -57 -387 -56 -307 -56 -291 c 256
 -56 -272 -55 -108 -57 -89 c 257
 -42 -85 -24 -81 -10 -78 c 257
 -8 -102 -14 -266 -15 -291 c 256
NamedP: "+ERoA+QAA"
-103 -291 m 257
 -106 -368 -130 -423 -174 -423 c 256
 -202 -423 -216 -406 -228 -385 c 257
 -203 -341 l 257
 -199 -372 -187 -387 -175 -387 c 256
 -145 -387 -145 -307 -145 -291 c 256
 -145 -272 -144 -108 -146 -89 c 257
 -130 -85 -113 -81 -99 -78 c 257
 -97 -102 -103 -266 -103 -291 c 257
-278 -423 m 256
 -339 -423 -364 -370 -364 -255 c 256
 -364 -135 -347 -83 -278 -83 c 256
 -203 -83 -194 -158 -194 -270 c 256
 -194 -351 -200 -423 -278 -423 c 256
-146 -513 m 257
 -146 -499 -147 -442 -149 -426 c 257
 -144 -427 -141 -427 -138 -427 c 258
 -129 -427 l 258
 -125 -427 -122 -427 -116 -426 c 257
 -116 -439 -115 -499 -112 -508 c 257
 -146 -513 l 257
-282 -119 m 256
 -316 -119 -324 -150 -324 -249 c 256
 -324 -357 -309 -387 -273 -387 c 256
 -247 -387 -234 -359 -234 -255 c 256
 -234 -137 -255 -119 -282 -119 c 256
EndSplineSet
Validated: 37
LCarets2: 1 0
Substitution2: "Ambarisha-Regular-Single Substitution lookup 9 subtable" knJHAc2.following
Ligature2: "Ambarisha-Regular-'blwf' Below Base Forms in Kannada lookup 2 subtable" knJHA knVirama
Ligature2: "Ambarisha-Regular-'blwf' Below Base Forms in Kannada2 lookup 1 subtable" knVirama knJHA
EndChar

StartChar: knNYAc2
Encoding: 533 -1 468
Width: 0
VWidth: 0
GlyphClass: 4
Flags: HMW
LayerCount: 2
Fore
SplineSet
-67 -219 m 257
NamedP: "+AxMBGgD5"
 -63 -180 -58 -127 -88 -127 c 256
 -110 -127 -119 -153 -122 -178 c 257
 -157 -166 l 257
 -154 -138 -141 -91 -88 -88 c 256
 -35 -85 -19 -164 -27 -217 c 257
 -41 -217 -53 -217 -67 -219 c 257
NamedP: "+AxMBGgD5"
-144 -426 m 257
 -158 -392 -176 -367 -195 -349 c 256
 -226 -319 -259 -310 -281 -310 c 256
 -315 -310 -338 -334 -338 -347 c 256
 -337 -372 -304 -382 -283 -382 c 256
 -253 -382 -219 -379 -195 -349 c 256
 -172 -322 -156 -299 -158 -231 c 256
 -161 -127 -179 -122 -195 -122 c 256
 -220 -122 -237 -190 -237 -241 c 257
 -283 -245 l 257
 -286 -209 -293 -122 -321 -122 c 256
 -348 -122 -347 -193 -338 -248 c 257
 -380 -253 l 257
 -388 -200 -388 -83 -324 -83 c 256
 -288 -83 -267 -129 -260 -176 c 257
 -252 -120 -228 -83 -195 -83 c 256
 -149 -83 -118 -119 -119 -226 c 256
 -119 -305 -141 -424 -278 -424 c 256
 -327 -424 -372 -387 -372 -350 c 256
 -372 -308 -337 -273 -282 -273 c 256
 -234 -273 -187 -299 -148 -346 c 256
 -131 -367 -116 -391 -103 -419 c 257
 -144 -426 l 257
EndSplineSet
Validated: 37
LCarets2: 1 0
Substitution2: "Ambarisha-Regular-Single Substitution lookup 9 subtable" knNYAc2.following
Ligature2: "Ambarisha-Regular-'blwf' Below Base Forms in Kannada lookup 2 subtable" knNYA knVirama
Ligature2: "Ambarisha-Regular-'blwf' Below Base Forms in Kannada2 lookup 1 subtable" knVirama knNYA
EndChar

StartChar: knTTAc2
Encoding: 534 -1 469
Width: 130
VWidth: 0
GlyphClass: 4
Flags: HMW
LayerCount: 2
Fore
SplineSet
-8 -166 m 257
NamedP: "n+BUQGuQAA"
 -8 -134 l 257
 22 -127 34 -84 34 -56 c 256
 34 -29 19 1 -3 5 c 257
 -3 38 l 257
 28 38 73 0 72 -54 c 256
 70 -132 11 -173 -8 -166 c 257
NamedP: "n+BUQGuQAA"
1 -421 m 256
 -14 -421 -58 -404 -69 -350 c 257
 -75 -387 -92 -422 -129 -422 c 256
 -202 -422 -213 -348 -212 -282 c 256
 -212 -261 -214 -226 -211 -201 c 256
 -202 -130 -185 -84 -122 -84 c 256
 -65 -84 -45 -135 -48 -166 c 256
 -55 -251 -99 -253 -118 -253 c 256
 -127 -253 -164 -241 -172 -199 c 257
 -174 -221 -171 -260 -171 -280 c 256
 -171 -323 -168 -378 -129 -378 c 256
 -94 -378 -92 -323 -91 -287 c 257
 -47 -288 l 257
 -53 -320 -24 -377 1 -377 c 256
 34 -377 42 -338 42 -275 c 258
 42 -232 l 258
 42 -196 32 -182 22 -175 c 256
 15 -170 7 -169 -1 -168 c 256
 -3 -168 -5 -168 -8 -167 c 257
 -8 -133 l 257
 64 -133 84 -180 84 -242 c 258
 84 -272 l 258
 84 -350 66 -421 1 -421 c 256
-117 -125 m 256
 -129 -125 -136 -131 -143 -138 c 257
 -147 -177 -140 -195 -133 -203 c 256
 -128 -208 -122 -209 -115 -209 c 256
 -113 -209 -112 -209 -111 -209 c 256
 -99 -209 -87 -204 -85 -168 c 257
 -85 -155 -90 -125 -117 -125 c 256
EndSplineSet
Validated: 37
LCarets2: 1 0
Substitution2: "Ambarisha-Regular-Single Substitution lookup 9 subtable" knTTAc2.following
Ligature2: "Ambarisha-Regular-'blwf' Below Base Forms in Kannada lookup 2 subtable" knTTA knVirama
Ligature2: "Ambarisha-Regular-'blwf' Below Base Forms in Kannada2 lookup 1 subtable" knVirama knTTA
EndChar

StartChar: knTTHAc2
Encoding: 535 -1 470
Width: 0
VWidth: 0
GlyphClass: 4
Flags: HMW
LayerCount: 2
Fore
SplineSet
-146 -423 m 256
NamedP: "H+BYQGuQAA"
 -209 -423 -232 -364 -233 -255 c 256
 -234 -139 -215 -82 -143 -82 c 256
 -67 -82 -56 -154 -57 -264 c 256
 -58 -342 -66 -423 -146 -423 c 256
NamedP: "H+BYQGuQAA"
-148 -120 m 256
 -183 -120 -192 -152 -192 -249 c 256
 -192 -350 -174 -384 -137 -384 c 256
 -110 -384 -99 -346 -98 -248 c 256
 -96 -136 -119 -120 -148 -120 c 256
-143 -297 m 256
 -158 -297 -167 -276 -167 -260 c 256
 -167 -244 -161 -229 -146 -229 c 256
 -131 -229 -123 -244 -123 -260 c 256
 -123 -276 -128 -297 -143 -297 c 256
EndSplineSet
Validated: 33
LCarets2: 1 0
Substitution2: "Ambarisha-Regular-Single Substitution lookup 9 subtable" knTTHAc2.following
Ligature2: "Ambarisha-Regular-'blwf' Below Base Forms in Kannada lookup 2 subtable" knTTHA knVirama
Ligature2: "Ambarisha-Regular-'blwf' Below Base Forms in Kannada2 lookup 1 subtable" knVirama knTTHA
EndChar

StartChar: knDDAc2
Encoding: 536 -1 471
Width: 0
VWidth: 0
GlyphClass: 4
Flags: HMW
LayerCount: 2
Fore
SplineSet
-215 -426 m 256
NamedP: "+BJcBGgD5"
 -234 -426 -267 -407 -278 -363 c 257
 -287 -403 -310 -427 -340 -427 c 256
 -384 -427 -414 -367 -414 -267 c 256
 -414 -160 -362 -84 -271 -84 c 256
 -202 -84 -155 -141 -142 -204 c 256
 -137 -230 -137 -250 -140 -265 c 257
 -136 -281 -134 -301 -138 -325 c 256
 -147 -383 -179 -426 -215 -426 c 256
NamedP: "+BJcBGgD5"
-204 -238 m 256
 -218 -235 -235 -245 -235 -257 c 256
 -235 -285 -186 -298 -173 -271 c 256
 -172 -269 -172 -268 -171 -266 c 257
 -176 -247 -189 -241 -204 -238 c 256
-264 -261 m 256
 -264 -236 -244 -204 -202 -209 c 256
 -194 -210 -183 -213 -172 -220 c 257
 -173 -216 l 258
 -185 -163 -214 -117 -268 -117 c 256
 -335 -117 -377 -167 -377 -269 c 257
 -378 -353 -354 -388 -339 -388 c 256
 -312 -388 -304 -348 -302 -291 c 257
 -261 -291 l 257
 -256 -363 -240 -388 -215 -388 c 256
 -194 -388 -177 -362 -171 -316 c 258
 -170 -311 l 257
 -205 -328 -264 -308 -264 -261 c 256
EndSplineSet
Validated: 33
LCarets2: 1 0
Substitution2: "Ambarisha-Regular-Single Substitution lookup 9 subtable" knDDAc2.following
Ligature2: "Ambarisha-Regular-'blwf' Below Base Forms in Kannada lookup 2 subtable" knDDA knVirama
Ligature2: "Ambarisha-Regular-'blwf' Below Base Forms in Kannada2 lookup 1 subtable" knVirama knDDA
EndChar

StartChar: knDDHAc2
Encoding: 537 -1 472
Width: 0
VWidth: 0
GlyphClass: 4
Flags: HMW
LayerCount: 2
Fore
SplineSet
-215 -426 m 256
NamedP: "d+BkQGuQAA"
 -234 -426 -267 -407 -278 -363 c 257
 -287 -403 -310 -427 -340 -427 c 256
 -384 -427 -414 -367 -414 -267 c 256
 -414 -160 -362 -84 -271 -84 c 256
 -202 -84 -155 -141 -142 -204 c 256
 -137 -230 -137 -250 -140 -265 c 257
 -136 -281 -134 -301 -138 -325 c 256
 -147 -383 -179 -426 -215 -426 c 256
NamedP: "d+BkQGuQAA"
-292 -526 m 257
 -292 -512 -293 -454 -295 -438 c 257
 -290 -440 -287 -440 -284 -440 c 258
 -275 -440 l 258
 -271 -440 -268 -440 -262 -439 c 257
 -262 -451 -261 -512 -258 -521 c 257
 -292 -526 l 257
-204 -238 m 256
 -218 -235 -235 -245 -235 -257 c 256
 -235 -285 -186 -298 -173 -271 c 256
 -172 -269 -172 -268 -171 -266 c 257
 -176 -247 -189 -241 -204 -238 c 256
-264 -261 m 256
 -264 -236 -244 -204 -202 -209 c 256
 -194 -210 -183 -213 -172 -220 c 257
 -173 -216 l 258
 -185 -163 -214 -117 -268 -117 c 256
 -335 -117 -377 -167 -377 -269 c 257
 -378 -353 -354 -388 -339 -388 c 256
 -312 -388 -304 -348 -302 -291 c 257
 -261 -291 l 257
 -256 -363 -240 -388 -215 -388 c 256
 -194 -388 -177 -362 -171 -316 c 258
 -170 -311 l 257
 -205 -328 -264 -308 -264 -261 c 256
EndSplineSet
Validated: 33
Substitution2: "Ambarisha-Regular-Single Substitution lookup 9 subtable" knDDHAc2.following
Ligature2: "Ambarisha-Regular-'blwf' Below Base Forms in Kannada lookup 2 subtable" knDDHA knVirama
Ligature2: "Ambarisha-Regular-'blwf' Below Base Forms in Kannada2 lookup 1 subtable" knVirama knDDHA
EndChar

StartChar: knNNAc2
Encoding: 538 -1 473
Width: 0
VWidth: 0
GlyphClass: 4
Flags: HMW
LayerCount: 2
Fore
SplineSet
-207 -423 m 256
NamedP: "+BZoBGgD5"
 -262 -423 -279 -364 -279 -336 c 256
 -277 -230 -167 -234 -159 -325 c 257
 -154 -304 -149 -273 -149 -235 c 256
 -150 -180 -161 -119 -196 -119 c 256
 -228 -119 -238 -168 -240 -202 c 257
 -281 -201 l 257
 -281 -158 -294 -119 -318 -119 c 257
 -340 -118 -358 -138 -358 -184 c 256
 -358 -222 -333 -248 -309 -248 c 257
 -310 -289 l 257
 -344 -293 -354 -312 -354 -338 c 256
 -354 -366 -330 -388 -299 -388 c 257
 -299 -399 -300 -412 -299 -423 c 257
 -335 -424 -392 -403 -392 -338 c 256
 -392 -306 -378 -276 -348 -266 c 257
 -378 -257 -395 -222 -395 -183 c 256
 -395 -127 -370 -84 -318 -84 c 256
 -304 -84 -271 -97 -261 -142 c 257
 -253 -111 -230 -84 -196 -84 c 256
 -129 -84 -108 -164 -110 -236 c 256
 -113 -328 -140 -423 -207 -423 c 256
NamedP: "+BZoBGgD5"
-216 -293 m 256
 -234 -293 -242 -308 -242 -334 c 256
 -241 -361 -230 -388 -210 -388 c 256
 -197 -388 -186 -384 -182 -377 c 257
 -179 -319 -203 -293 -216 -293 c 256
EndSplineSet
Validated: 33
LCarets2: 1 0
Substitution2: "Ambarisha-Regular-Single Substitution lookup 9 subtable" knNNAc2.following
Ligature2: "Ambarisha-Regular-'blwf' Below Base Forms in Kannada lookup 2 subtable" knNNA knVirama
Ligature2: "Ambarisha-Regular-'blwf' Below Base Forms in Kannada2 lookup 1 subtable" knVirama knNNA
EndChar

StartChar: knTAc2
Encoding: 539 -1 474
Width: 0
VWidth: 0
GlyphClass: 4
Flags: HMW
LayerCount: 2
Fore
SplineSet
-178 -290 m 257
NamedP: "+ARoA+QAA"
 -446 -290 l 257
 -446 -249 l 257
 -210 -250 l 257
 -225 -232 -228 -199 -228 -191 c 256
 -228 -127 -196 -82 -149 -82 c 256
 -98 -82 -73 -127 -73 -174 c 256
 -73 -213 -80 -290 -178 -290 c 257
NamedP: "+ARoA+QAA"
-148 -120 m 256
 -181 -120 -190 -160 -190 -191 c 256
 -190 -201 -189 -233 -171 -250 c 257
 -135 -250 -111 -240 -111 -174 c 256
 -111 -146 -122 -120 -148 -120 c 256
EndSplineSet
Validated: 1
LCarets2: 1 0
Substitution2: "Ambarisha-Regular-Single Substitution lookup 9 subtable" knTAc2.following
Ligature2: "Ambarisha-Regular-'blwf' Below Base Forms in Kannada lookup 2 subtable" knTA knVirama
Ligature2: "Ambarisha-Regular-'blwf' Below Base Forms in Kannada2 lookup 1 subtable" knVirama knTA
EndChar

StartChar: knTHAc2
Encoding: 540 -1 475
Width: 0
VWidth: 0
GlyphClass: 4
Flags: HMW
LayerCount: 2
Fore
SplineSet
-275 -519 m 257
NamedP: "2+B0QGuQAA"
 -275 -505 -276 -448 -278 -432 c 257
 -273 -434 -270 -434 -267 -434 c 258
 -258 -434 l 258
 -255 -434 -251 -434 -245 -433 c 257
 -245 -445 -244 -506 -242 -514 c 257
 -275 -519 l 257
NamedP: "2+B0QGuQAA"
-265 -275 m 256
 -280 -275 -283 -251 -283 -235 c 256
 -283 -220 -281 -196 -265 -196 c 256
 -249 -196 -246 -220 -246 -235 c 256
 -246 -251 -251 -275 -265 -275 c 256
-208 -421 m 256
 -227 -421 -253 -403 -263 -365 c 257
 -269 -403 -287 -421 -313 -421 c 256
 -365 -421 -382 -378 -381 -255 c 256
 -380 -134 -337 -84 -278 -84 c 258
 -236 -84 l 258
 -173 -84 -136 -153 -136 -269 c 256
 -136 -351 -148 -421 -208 -421 c 256
-242 -116 m 257
 -282 -116 l 258
 -314 -116 -343 -152 -345 -249 c 256
 -345 -269 -345 -288 -345 -305 c 256
 -345 -321 -344 -336 -342 -347 c 256
 -339 -371 -331 -382 -315 -382 c 256
 -292 -382 -285 -343 -285 -288 c 257
 -245 -288 l 257
 -245 -345 -222 -384 -208 -383 c 256
 -180 -381 -172 -358 -172 -256 c 256
 -172 -139 -215 -116 -242 -116 c 257
EndSplineSet
Validated: 33
LCarets2: 1 0
Substitution2: "Ambarisha-Regular-Single Substitution lookup 9 subtable" knTHAc2.following
Ligature2: "Ambarisha-Regular-'blwf' Below Base Forms in Kannada lookup 2 subtable" knTHA knVirama
Ligature2: "Ambarisha-Regular-'blwf' Below Base Forms in Kannada2 lookup 1 subtable" knVirama knTHA
EndChar

StartChar: knDAc2
Encoding: 541 -1 476
Width: 0
VWidth: 0
GlyphClass: 4
Flags: HMW
LayerCount: 2
Fore
SplineSet
-208 -421 m 256
NamedP: "D+B4QGuQAA"
 -227 -421 -253 -403 -263 -365 c 257
 -269 -403 -287 -421 -313 -421 c 256
 -365 -421 -382 -378 -381 -255 c 256
 -380 -134 -337 -84 -278 -84 c 258
 -236 -84 l 258
 -173 -84 -136 -153 -136 -269 c 256
 -136 -351 -148 -421 -208 -421 c 256
NamedP: "D+B4QGuQAA"
-242 -116 m 257
 -282 -116 l 258
 -314 -116 -343 -152 -345 -249 c 256
 -345 -269 -345 -288 -345 -305 c 256
 -345 -321 -344 -336 -342 -347 c 256
 -339 -371 -331 -382 -315 -382 c 256
 -292 -382 -285 -343 -285 -288 c 257
 -245 -288 l 257
 -245 -345 -222 -384 -208 -383 c 256
 -180 -381 -172 -358 -172 -256 c 256
 -172 -139 -215 -116 -242 -116 c 257
EndSplineSet
Validated: 33
LCarets2: 1 0
Substitution2: "Ambarisha-Regular-Single Substitution lookup 9 subtable" knDAc2.following
Ligature2: "Ambarisha-Regular-'blwf' Below Base Forms in Kannada lookup 2 subtable" knDA knVirama
Ligature2: "Ambarisha-Regular-'blwf' Below Base Forms in Kannada2 lookup 1 subtable" knVirama knDA
EndChar

StartChar: knDHAc2
Encoding: 542 -1 477
Width: 0
VWidth: 0
GlyphClass: 4
Flags: HMW
LayerCount: 2
Fore
SplineSet
-208 -421 m 256
NamedP: "+AJ8BGgD5"
 -227 -421 -253 -403 -263 -365 c 257
 -269 -403 -287 -421 -313 -421 c 256
 -365 -421 -382 -378 -381 -255 c 256
 -380 -134 -337 -84 -278 -84 c 258
 -236 -84 l 258
 -173 -84 -136 -153 -136 -269 c 256
 -136 -351 -148 -421 -208 -421 c 256
NamedP: "+AJ8BGgD5"
-275 -519 m 257
 -275 -505 -276 -448 -278 -432 c 257
 -273 -434 -270 -434 -267 -434 c 258
 -258 -434 l 258
 -255 -434 -251 -434 -245 -433 c 257
 -245 -445 -244 -506 -242 -514 c 257
 -275 -519 l 257
-242 -116 m 257
 -282 -116 l 258
 -314 -116 -343 -152 -345 -249 c 256
 -345 -269 -345 -288 -345 -305 c 256
 -345 -321 -344 -336 -342 -347 c 256
 -339 -371 -331 -382 -315 -382 c 256
 -292 -382 -285 -343 -285 -288 c 257
 -245 -288 l 257
 -245 -345 -222 -384 -208 -383 c 256
 -180 -381 -172 -358 -172 -256 c 256
 -172 -139 -215 -116 -242 -116 c 257
EndSplineSet
Validated: 33
LCarets2: 1 0
Substitution2: "Ambarisha-Regular-Single Substitution lookup 9 subtable" knDHAc2.following
Ligature2: "Ambarisha-Regular-'blwf' Below Base Forms in Kannada lookup 2 subtable" knDHA knVirama
Ligature2: "Ambarisha-Regular-'blwf' Below Base Forms in Kannada2 lookup 1 subtable" knVirama knDHA
EndChar

StartChar: knNAc2
Encoding: 543 -1 478
Width: 129
VWidth: 0
GlyphClass: 4
Flags: HMW
LayerCount: 2
Fore
SplineSet
93 -312 m 257
NamedP: "+BCABGgD5"
 78 -265 45 -215 23 -194 c 257
 1 -231 -59 -239 -80 -239 c 256
 -156 -239 -210 -208 -210 -168 c 256
 -210 -112 -144 -83 -96 -83 c 256
 -42 -83 0 -113 10 -125 c 257
 27 -49 11 85 -1 144 c 257
 1 142 50 144 48 144 c 257
 62 91 80 -36 45 -157 c 257
 72 -187 104 -229 123 -278 c 257
 114 -287 105 -298 93 -312 c 257
NamedP: "+BCABGgD5"
-89 -124 m 256
 -110 -124 -167 -127 -167 -162 c 256
 -167 -186 -128 -194 -81 -194 c 256
 -53 -194 -12 -184 -12 -164 c 256
 -12 -144 -50 -124 -89 -124 c 256
EndSplineSet
Validated: 37
LCarets2: 1 0
Substitution2: "Ambarisha-Regular-Single Substitution lookup 9 subtable" knNAc2.following
Ligature2: "Ambarisha-Regular-'blwf' Below Base Forms in Kannada lookup 2 subtable" knNA knVirama
Ligature2: "Ambarisha-Regular-'blwf' Below Base Forms in Kannada2 lookup 1 subtable" knVirama knNA
EndChar

